<svg xmlns="http://www.w3.org/2000/svg" width="24" height="24" viewBox="0 0 24 24">
  <defs>
    <style>
      .cls-1 {
        fill: #9f9f9f;
      }

      .cls-2 {
        fill: none;
      }
    </style>
  </defs>
  <g id="image" transform="translate(-762 -463)">
    <g id="image-2" data-name="image" transform="translate(761.55 463.5)">
      <path id="Caminho_5" data-name="Caminho 5" class="cls-1" d="M3,3v.5H20.5v17H3.5V3H3V3H2.5V21c0,.1.1.3.1.4.1.1.2.1.4.1H21c.1,0,.3-.1.4-.1.1-.1.1-.2.1-.4V3c0-.1-.1-.3-.1-.4-.1-.1-.2-.1-.4-.1H3c-.1,0-.3.1-.4.1,0,.1-.1.3-.1.4Z"/>
      <path id="Caminho_6" data-name="Caminho 6" class="cls-1" d="M3.4,14.4,7,10.7,17.6,21.3a.495.495,0,0,0,.7-.7l-11-11a.483.483,0,0,0-.7,0l-4,4a.483.483,0,0,0,0,.7.783.783,0,0,0,.8.1Z"/>
      <path id="Caminho_7" data-name="Caminho 7" class="cls-1" d="M13.5,5v.5a2,2,0,1,1-2,2,2.006,2.006,0,0,1,2-2v-1a2.946,2.946,0,0,0-3,3,3,3,0,0,0,6,0,2.946,2.946,0,0,0-3-3Z"/>
      <path id="Caminho_8" data-name="Caminho 8" class="cls-1" d="M13.9,16.9l7.5-7.5a.495.495,0,1,0-.7-.7l-7.5,7.5a.483.483,0,0,0,0,.7.846.846,0,0,0,.7,0"/>
    </g>
    <rect id="Retângulo_2" data-name="Retângulo 2" class="cls-2" width="24" height="24" transform="translate(762 463)"/>
  </g>
</svg>
