<?xml version="1.0" encoding="utf-8"?>
<svg viewBox="0 0 103 45" xmlns="http://www.w3.org/2000/svg">
  <defs>
    <style>
            .cls-1{fill:#71bb00;font-size:24px;font-family:SFProDisplay-Black,SF Pro Display;font-weight:800}.cls-2{fill:#707070;font-size:12px;font-family:SFProDisplay-Light,SF Pro Display;font-weight:300;letter-spacing:.024em}
        </style>
  </defs>
  <g id="bx-logo" transform="matrix(1, 0, 0, 1, -615, -31)">
    <path d="M 616.031 55.896 L 616.031 39.896 L 620.344 39.896 L 620.344 45.99 L 620.406 45.99 Q 620.641 45.38 621.094 44.869 Q 621.547 44.357 622.219 44.048 Q 622.891 43.74 623.781 43.74 Q 624.969 43.74 626.043 44.373 Q 627.117 45.005 627.793 46.365 Q 628.469 47.724 628.469 49.896 Q 628.469 51.974 627.824 53.341 Q 627.18 54.708 626.105 55.38 Q 625.031 56.052 623.75 56.052 Q 622.906 56.052 622.246 55.775 Q 621.586 55.498 621.121 55.017 Q 620.656 54.537 620.406 53.927 L 620.313 53.927 L 620.313 55.896 Z M 620.25 49.896 Q 620.25 50.771 620.48 51.408 Q 620.711 52.044 621.137 52.392 Q 621.563 52.74 622.156 52.74 Q 622.75 52.74 623.168 52.4 Q 623.586 52.06 623.809 51.423 Q 624.031 50.787 624.031 49.896 Q 624.031 49.005 623.809 48.369 Q 623.586 47.732 623.168 47.392 Q 622.75 47.052 622.156 47.052 Q 621.563 47.052 621.137 47.392 Q 620.711 47.732 620.48 48.369 Q 620.25 49.005 620.25 49.896 Z" style="fill: rgb(113, 187, 0); white-space: pre;"/>
    <path d="M 638.063 50.646 L 638.063 43.896 L 642.375 43.896 L 642.375 55.896 L 638.281 55.896 L 638.281 53.615 L 638.156 53.615 Q 637.766 54.763 636.789 55.408 Q 635.813 56.052 634.469 56.052 Q 633.211 56.052 632.27 55.474 Q 631.328 54.896 630.809 53.88 Q 630.289 52.865 630.281 51.552 L 630.281 43.896 L 634.594 43.896 L 634.594 50.646 Q 634.602 51.537 635.051 52.044 Q 635.5 52.552 636.313 52.552 Q 636.852 52.552 637.246 52.322 Q 637.641 52.091 637.855 51.666 Q 638.07 51.24 638.063 50.646 Z" style="fill: rgb(113, 187, 0); white-space: pre;"/>
    <path d="M 644.563 55.896 L 644.563 43.896 L 648.875 43.896 L 648.875 55.896 Z M 646.727 42.646 Q 645.844 42.646 645.219 42.068 Q 644.594 41.49 644.594 40.677 Q 644.594 39.865 645.219 39.287 Q 645.844 38.708 646.719 38.708 Q 647.602 38.708 648.223 39.287 Q 648.844 39.865 648.844 40.677 Q 648.844 41.49 648.223 42.068 Q 647.602 42.646 646.727 42.646 Z" style="fill: rgb(113, 187, 0); white-space: pre;"/>
    <path d="M 655.375 39.896 L 655.375 55.896 L 651.063 55.896 L 651.063 39.896 Z" style="fill: rgb(113, 187, 0); white-space: pre;"/>
    <path d="M 661.906 56.052 Q 660.625 56.052 659.551 55.38 Q 658.477 54.708 657.832 53.341 Q 657.188 51.974 657.188 49.896 Q 657.188 47.724 657.863 46.365 Q 658.539 45.005 659.613 44.373 Q 660.688 43.74 661.875 43.74 Q 662.766 43.74 663.438 44.048 Q 664.109 44.357 664.563 44.869 Q 665.016 45.38 665.25 45.99 L 665.313 45.99 L 665.313 39.896 L 669.625 39.896 L 669.625 55.896 L 665.344 55.896 L 665.344 53.927 L 665.25 53.927 Q 665 54.537 664.535 55.017 Q 664.07 55.498 663.41 55.775 Q 662.75 56.052 661.906 56.052 Z M 663.5 52.74 Q 664.094 52.74 664.52 52.392 Q 664.945 52.044 665.176 51.408 Q 665.406 50.771 665.406 49.896 Q 665.406 49.005 665.176 48.369 Q 664.945 47.732 664.52 47.392 Q 664.094 47.052 663.5 47.052 Q 662.906 47.052 662.488 47.392 Q 662.07 47.732 661.848 48.369 Q 661.625 49.005 661.625 49.896 Q 661.625 50.787 661.848 51.423 Q 662.07 52.06 662.488 52.4 Q 662.906 52.74 663.5 52.74 Z" style="fill: rgb(113, 187, 0); white-space: pre;"/>
    <path d="M 671.688 55.896 L 671.688 39.896 L 676 39.896 L 676 45.99 L 676.063 45.99 Q 676.297 45.38 676.75 44.869 Q 677.203 44.357 677.875 44.048 Q 678.547 43.74 679.438 43.74 Q 680.625 43.74 681.699 44.373 Q 682.773 45.005 683.449 46.365 Q 684.125 47.724 684.125 49.896 Q 684.125 51.974 683.48 53.341 Q 682.836 54.708 681.762 55.38 Q 680.688 56.052 679.406 56.052 Q 678.563 56.052 677.902 55.775 Q 677.242 55.498 676.777 55.017 Q 676.313 54.537 676.063 53.927 L 675.969 53.927 L 675.969 55.896 Z M 675.906 49.896 Q 675.906 50.771 676.137 51.408 Q 676.367 52.044 676.793 52.392 Q 677.219 52.74 677.813 52.74 Q 678.406 52.74 678.824 52.4 Q 679.242 52.06 679.465 51.423 Q 679.688 50.787 679.688 49.896 Q 679.688 49.005 679.465 48.369 Q 679.242 47.732 678.824 47.392 Q 678.406 47.052 677.813 47.052 Q 677.219 47.052 676.793 47.392 Q 676.367 47.732 676.137 48.369 Q 675.906 49.005 675.906 49.896 Z" style="fill: rgb(113, 187, 0); white-space: pre;"/>
    <path d="M 691.719 56.115 Q 689.766 56.115 688.375 55.337 Q 686.984 54.56 686.242 53.166 Q 685.5 51.771 685.5 49.927 Q 685.5 48.083 686.242 46.689 Q 686.984 45.294 688.375 44.517 Q 689.766 43.74 691.719 43.74 Q 693.672 43.74 695.063 44.517 Q 696.453 45.294 697.195 46.689 Q 697.938 48.083 697.938 49.927 Q 697.938 51.771 697.195 53.166 Q 696.453 54.56 695.063 55.337 Q 693.672 56.115 691.719 56.115 Z M 691.75 52.927 Q 692.297 52.927 692.695 52.56 Q 693.094 52.193 693.313 51.513 Q 693.531 50.833 693.531 49.896 Q 693.531 48.951 693.313 48.275 Q 693.094 47.599 692.695 47.232 Q 692.297 46.865 691.75 46.865 Q 691.172 46.865 690.758 47.232 Q 690.344 47.599 690.125 48.275 Q 689.906 48.951 689.906 49.896 Q 689.906 50.833 690.125 51.513 Q 690.344 52.193 690.758 52.56 Q 691.172 52.927 691.75 52.927 Z" style="fill: rgb(113, 187, 0); white-space: pre;"/>
    <path d="M 703 43.896 L 704.75 47.615 L 706.594 43.896 L 710.875 43.896 L 707.656 49.896 L 711.031 55.896 L 706.781 55.896 L 704.75 52.083 L 702.781 55.896 L 698.469 55.896 L 701.875 49.896 L 698.688 43.896 Z" style="fill: rgb(113, 187, 0); white-space: pre;"/>
    <path d="M 617.985 70.678 L 615.993 63.405 L 616.668 63.405 L 618.315 69.659 L 618.372 69.659 L 620.02 63.405 L 620.787 63.405 L 622.435 69.659 L 622.492 69.659 L 624.139 63.405 L 624.818 63.405 L 622.825 70.678 L 622.115 70.678 L 620.428 64.51 L 620.382 64.51 L 618.695 70.678 Z" style="fill: rgb(112, 112, 112); white-space: pre;"/>
    <path d="M 626.018 70.678 L 626.018 63.405 L 630.237 63.405 L 630.237 64.002 L 626.682 64.002 L 626.682 66.74 L 630.013 66.74 L 630.013 67.336 L 626.682 67.336 L 626.682 70.081 L 630.308 70.081 L 630.308 70.678 Z" style="fill: rgb(112, 112, 112); white-space: pre;"/>
    <path d="M 631.955 70.678 L 631.955 63.405 L 634.409 63.405 Q 635.119 63.405 635.593 63.654 Q 636.068 63.902 636.305 64.332 Q 636.543 64.762 636.543 65.309 Q 636.543 65.763 636.391 66.086 Q 636.238 66.41 635.975 66.608 Q 635.712 66.807 635.389 66.896 L 635.389 66.953 Q 635.741 66.978 636.071 67.2 Q 636.401 67.422 636.614 67.819 Q 636.827 68.217 636.827 68.771 Q 636.827 69.321 636.582 69.753 Q 636.337 70.184 635.831 70.431 Q 635.325 70.678 634.544 70.678 Z M 632.619 70.081 L 634.544 70.081 Q 635.386 70.081 635.789 69.709 Q 636.192 69.336 636.192 68.771 Q 636.192 68.356 635.991 68.016 Q 635.791 67.677 635.427 67.478 Q 635.063 67.28 634.572 67.28 L 632.619 67.28 Z M 632.619 66.69 L 634.469 66.69 Q 634.899 66.69 635.222 66.513 Q 635.545 66.335 635.727 66.022 Q 635.908 65.71 635.908 65.309 Q 635.908 64.73 635.531 64.366 Q 635.155 64.002 634.409 64.002 L 632.619 64.002 Z" style="fill: rgb(112, 112, 112); white-space: pre;"/>
    <path d="M 646.933 65.678 L 646.265 65.678 Q 646.19 65.305 645.997 64.987 Q 645.803 64.669 645.512 64.432 Q 645.221 64.194 644.852 64.062 Q 644.482 63.931 644.053 63.931 Q 643.364 63.931 642.797 64.29 Q 642.231 64.648 641.892 65.342 Q 641.553 66.037 641.553 67.042 Q 641.553 68.054 641.892 68.746 Q 642.231 69.439 642.797 69.796 Q 643.364 70.152 644.053 70.152 Q 644.482 70.152 644.852 70.021 Q 645.221 69.89 645.512 69.653 Q 645.803 69.417 645.997 69.098 Q 646.19 68.778 646.265 68.405 L 646.933 68.405 Q 646.844 68.906 646.601 69.337 Q 646.357 69.769 645.983 70.092 Q 645.608 70.415 645.121 70.596 Q 644.635 70.777 644.053 70.777 Q 643.136 70.777 642.426 70.318 Q 641.716 69.858 641.313 69.02 Q 640.91 68.182 640.91 67.042 Q 640.91 65.902 641.313 65.064 Q 641.716 64.226 642.426 63.766 Q 643.136 63.306 644.053 63.306 Q 644.635 63.306 645.121 63.485 Q 645.608 63.665 645.983 63.989 Q 646.357 64.314 646.601 64.744 Q 646.844 65.174 646.933 65.678 Z" style="fill: rgb(112, 112, 112); white-space: pre;"/>
    <path d="M 648.487 70.678 L 648.487 63.405 L 649.151 63.405 L 649.151 66.74 L 653.277 66.74 L 653.277 63.405 L 653.941 63.405 L 653.941 70.678 L 653.277 70.678 L 653.277 67.336 L 649.151 67.336 L 649.151 70.678 Z" style="fill: rgb(112, 112, 112); white-space: pre;"/>
    <path d="M 655.888 70.678 L 655.192 70.678 L 657.837 63.405 L 658.548 63.405 L 661.193 70.678 L 660.497 70.678 L 658.217 64.268 L 658.168 64.268 Z M 656.389 67.89 L 659.996 67.89 L 659.996 68.487 L 656.389 68.487 Z" style="fill: rgb(112, 112, 112); white-space: pre;"/>
    <path d="M 662.44 70.678 L 662.44 63.405 L 663.104 63.405 L 663.104 70.081 L 666.57 70.081 L 666.57 70.678 Z" style="fill: rgb(112, 112, 112); white-space: pre;"/>
    <path d="M 668.065 70.678 L 668.065 63.405 L 668.729 63.405 L 668.729 70.081 L 672.195 70.081 L 672.195 70.678 Z" style="fill: rgb(112, 112, 112); white-space: pre;"/>
    <path d="M 673.69 70.678 L 673.69 63.405 L 677.908 63.405 L 677.908 64.002 L 674.354 64.002 L 674.354 66.74 L 677.685 66.74 L 677.685 67.336 L 674.354 67.336 L 674.354 70.081 L 677.979 70.081 L 677.979 70.678 Z" style="fill: rgb(112, 112, 112); white-space: pre;"/>
    <path d="M 685.291 63.405 L 685.291 70.678 L 684.645 70.678 L 680.348 64.588 L 680.291 64.588 L 680.291 70.678 L 679.627 70.678 L 679.627 63.405 L 680.27 63.405 L 684.581 69.503 L 684.638 69.503 L 684.638 63.405 Z" style="fill: rgb(112, 112, 112); white-space: pre;"/>
    <path d="M 692.253 65.678 Q 692.153 65.316 691.962 64.998 Q 691.77 64.68 691.488 64.44 Q 691.205 64.201 690.838 64.066 Q 690.47 63.931 690.019 63.931 Q 689.309 63.931 688.748 64.3 Q 688.187 64.669 687.862 65.366 Q 687.537 66.062 687.537 67.042 Q 687.537 68.018 687.864 68.714 Q 688.19 69.41 688.76 69.781 Q 689.33 70.152 690.065 70.152 Q 690.737 70.152 691.251 69.854 Q 691.766 69.556 692.056 69.002 Q 692.345 68.448 692.338 67.684 L 692.551 67.752 L 690.222 67.752 L 690.222 67.155 L 692.984 67.155 L 692.984 67.752 Q 692.984 68.682 692.608 69.361 Q 692.232 70.039 691.575 70.408 Q 690.918 70.777 690.065 70.777 Q 689.114 70.777 688.4 70.318 Q 687.686 69.858 687.29 69.018 Q 686.894 68.178 686.894 67.042 Q 686.894 66.186 687.121 65.497 Q 687.349 64.808 687.766 64.318 Q 688.183 63.828 688.755 63.567 Q 689.327 63.306 690.019 63.306 Q 690.616 63.306 691.111 63.494 Q 691.607 63.682 691.985 64.011 Q 692.363 64.339 692.606 64.767 Q 692.849 65.195 692.935 65.678 Z" style="fill: rgb(112, 112, 112); white-space: pre;"/>
    <path d="M 694.643 70.678 L 694.643 63.405 L 698.862 63.405 L 698.862 64.002 L 695.307 64.002 L 695.307 66.74 L 698.638 66.74 L 698.638 67.336 L 695.307 67.336 L 695.307 70.081 L 698.933 70.081 L 698.933 70.678 Z" style="fill: rgb(112, 112, 112); white-space: pre;"/>
  </g>
</svg>