<svg xmlns="http://www.w3.org/2000/svg" width="810" viewBox="0 0 810 810" height="810" version="1.0"><defs><clipPath id="a"><path d="M 399 259 L 729.335938 259 L 729.335938 608 L 399 608 Z M 399 259"/></clipPath><clipPath id="b"><path d="M 43.085938 259 L 374 259 L 374 608 L 43.085938 608 Z M 43.085938 259"/></clipPath><clipPath id="c"><path d="M 211 308 L 562 308 L 562 678.878906 L 211 678.878906 Z M 211 308"/></clipPath><clipPath id="d"><path d="M 417 278 L 732.398438 278 L 732.398438 612 L 417 612 Z M 417 278"/></clipPath><clipPath id="e"><path d="M 238 325 L 573 325 L 573 679.246094 L 238 679.246094 Z M 238 325"/></clipPath><clipPath id="f"><path d="M 203.492188 37 L 565 37 L 565 232 L 203.492188 232 Z M 203.492188 37"/></clipPath><clipPath id="g"><path d="M 242 208 L 275 208 L 275 259.117188 L 242 259.117188 Z M 242 208"/></clipPath><clipPath id="h"><path d="M 451 31.117188 L 568.742188 31.117188 L 568.742188 87 L 451 87 Z M 451 31.117188"/></clipPath></defs><g clip-path="url(#a)"><path fill="#303030" d="M 729.054688 563.125 C 727.917969 532.503906 710.890625 504.703125 682.929688 484.1875 C 670.011719 474.722656 654.765625 466.808594 637.667969 460.902344 C 662.6875 439.960938 678.605469 408.527344 678.605469 373.355469 C 678.605469 310.3125 627.457031 259.195312 564.363281 259.195312 C 501.261719 259.195312 450.109375 310.3125 450.109375 373.355469 C 450.109375 408.527344 466.039062 439.960938 491.054688 460.902344 C 473.949219 466.808594 458.722656 474.722656 445.808594 484.1875 C 417.847656 504.695312 400.847656 532.503906 399.667969 563.125 C 399.253906 573.871094 400.441406 582.921875 402.945312 590.632812 C 445.679688 601.1875 502.277344 607.613281 564.363281 607.613281 C 626.601562 607.613281 683.320312 601.152344 726.097656 590.558594 C 728.390625 582.859375 729.453125 573.824219 729.054688 563.125"/></g><g clip-path="url(#b)"><path fill="#303030" d="M 372.960938 563.125 C 371.820312 532.503906 354.804688 504.703125 326.828125 484.1875 C 313.914062 474.722656 298.671875 466.808594 281.570312 460.902344 C 306.589844 439.960938 322.507812 408.527344 322.507812 373.355469 C 322.507812 310.3125 271.359375 259.195312 208.265625 259.195312 C 145.164062 259.195312 94.015625 310.3125 94.015625 373.355469 C 94.015625 408.527344 109.941406 439.960938 134.960938 460.902344 C 117.851562 466.808594 102.625 474.722656 89.714844 484.1875 C 61.753906 504.695312 44.742188 532.503906 43.570312 563.125 C 43.15625 573.871094 44.34375 582.921875 46.847656 590.632812 C 89.582031 601.1875 146.179688 607.613281 208.265625 607.613281 C 270.503906 607.613281 327.226562 601.152344 370 590.558594 C 372.292969 582.859375 373.359375 573.824219 372.960938 563.125"/></g><g clip-path="url(#c)"><path fill="#303030" d="M 561.394531 631.492188 C 560.183594 598.9375 542.085938 569.371094 512.351562 547.574219 C 498.625 537.507812 482.421875 529.101562 464.242188 522.8125 C 490.835938 500.558594 507.757812 467.144531 507.757812 429.753906 C 507.757812 362.738281 453.386719 308.402344 386.316406 308.402344 C 319.230469 308.402344 264.863281 362.738281 264.863281 429.753906 C 264.863281 467.144531 281.789062 500.558594 308.386719 522.820312 C 290.207031 529.101562 274.011719 537.507812 260.292969 547.574219 C 230.566406 569.371094 212.484375 598.9375 211.234375 631.492188 C 210.800781 642.914062 212.0625 652.539062 214.722656 660.722656 C 260.15625 671.949219 320.3125 678.773438 386.316406 678.773438 C 452.476562 678.773438 512.773438 671.910156 558.238281 660.648438 C 560.679688 652.453125 561.808594 642.855469 561.394531 631.492188"/></g><g clip-path="url(#d)"><path fill="#494949" d="M 732.132812 568.65625 C 731.046875 539.40625 714.800781 512.84375 688.125 493.246094 C 675.796875 484.203125 661.25 476.644531 644.9375 471 C 668.808594 450.992188 683.996094 420.960938 683.996094 387.363281 C 683.996094 327.132812 635.195312 278.296875 574.996094 278.296875 C 514.792969 278.296875 465.988281 327.132812 465.988281 387.363281 C 465.988281 420.960938 481.1875 450.992188 505.054688 471 C 488.734375 476.644531 474.207031 484.203125 461.886719 493.246094 C 435.207031 512.835938 418.988281 539.40625 417.863281 568.65625 C 417.46875 578.925781 418.601562 587.574219 420.988281 594.9375 C 461.761719 605.019531 515.761719 611.160156 574.996094 611.160156 C 634.378906 611.160156 688.496094 604.992188 729.308594 594.871094 C 731.496094 587.511719 732.511719 578.878906 732.132812 568.65625"/></g><path fill="#494949" d="M 392.378906 568.65625 C 391.292969 539.40625 375.058594 512.84375 348.363281 493.246094 C 336.046875 484.203125 321.5 476.644531 305.1875 471 C 329.054688 450.992188 344.246094 420.960938 344.246094 387.363281 C 344.246094 327.132812 295.445312 278.296875 235.246094 278.296875 C 175.039062 278.296875 126.238281 327.132812 126.238281 387.363281 C 126.238281 420.960938 141.4375 450.992188 165.304688 471 C 148.984375 476.644531 134.453125 484.203125 122.136719 493.246094 C 95.457031 512.835938 79.230469 539.40625 78.113281 568.65625 C 77.714844 578.925781 78.847656 587.574219 81.238281 594.9375 C 122.011719 605.019531 176.011719 611.160156 235.246094 611.160156 C 294.628906 611.160156 348.746094 604.992188 389.554688 594.871094 C 391.742188 587.511719 392.761719 578.878906 392.378906 568.65625"/><g clip-path="url(#e)"><path fill="#9F9F9F" d="M 572.164062 633.972656 C 571.011719 602.871094 553.742188 574.625 525.371094 553.800781 C 512.277344 544.1875 496.816406 536.152344 479.472656 530.144531 C 504.847656 508.886719 520.988281 476.960938 520.988281 441.242188 C 520.988281 377.21875 469.117188 325.308594 405.125 325.308594 C 341.117188 325.308594 289.246094 377.21875 289.246094 441.242188 C 289.246094 476.960938 305.394531 508.886719 330.769531 530.152344 C 313.425781 536.152344 297.972656 544.1875 284.886719 553.800781 C 256.523438 574.625 239.273438 602.871094 238.078125 633.972656 C 237.667969 644.886719 238.867188 654.082031 241.40625 661.898438 C 284.753906 672.625 342.152344 679.144531 405.125 679.144531 C 468.246094 679.144531 525.777344 672.585938 569.15625 661.828125 C 571.484375 653.996094 572.5625 644.832031 572.164062 633.972656"/></g><g clip-path="url(#f)"><path fill="#303030" d="M 203.917969 190.152344 C 203.917969 153.054688 201.269531 110.65625 210.980469 75.328125 C 214.511719 61.195312 221.574219 55.011719 235.695312 50.59375 C 281.597656 36.464844 329.261719 37.347656 376.925781 37.347656 C 415.769531 37.347656 456.371094 39.113281 494.328125 46.179688 C 527.867188 52.363281 556.996094 55.011719 562.292969 94.757812 C 565.828125 118.605469 564.058594 144.21875 564.058594 168.070312 C 564.058594 178.664062 565.828125 191.035156 562.292969 200.746094 C 555.230469 228.132812 531.402344 227.25 507.566406 228.132812 C 467.839844 229.011719 429.007812 230.777344 389.289062 230.777344 C 346.914062 231.664062 304.550781 233.429688 261.296875 227.25 C 233.929688 223.710938 212.746094 224.597656 204.804688 197.21875 L 203.921875 190.152344"/></g><path fill="#303030" d="M 244.523438 218.414062 C 244.523438 218.414062 251.582031 248.441406 272.765625 257.28125 C 270.121094 239.613281 272.765625 210.464844 272.765625 210.464844 L 244.523438 218.414062"/><g clip-path="url(#g)"><path fill="#303030" d="M 242.703125 218.914062 C 246.476562 234.785156 256.359375 252.195312 271.8125 258.90625 C 273.417969 259.601562 274.835938 258.492188 274.589844 256.773438 C 272.417969 241.609375 273.285156 225.683594 274.65625 210.464844 C 274.765625 209.226562 273.371094 208.332031 272.265625 208.644531 C 262.851562 211.289062 253.433594 213.941406 244.019531 216.59375 C 241.679688 217.25 242.675781 220.894531 245.023438 220.234375 C 254.441406 217.582031 263.855469 214.9375 273.273438 212.285156 C 272.476562 211.679688 271.675781 211.070312 270.878906 210.464844 C 269.472656 226.0625 268.71875 242.242188 270.945312 257.78125 C 271.875 257.070312 272.796875 256.359375 273.71875 255.648438 C 259.097656 249.292969 249.917969 232.925781 246.34375 217.910156 C 245.777344 215.542969 242.136719 216.546875 242.703125 218.914062"/></g><path fill="#303030" d="M 278.636719 238.402344 C 278.636719 238.402344 279.753906 238.433594 281.710938 238.480469 C 282.683594 238.507812 283.863281 238.546875 285.214844 238.585938 C 286.574219 238.613281 288.101562 238.652344 289.761719 238.730469 C 291.421875 238.765625 293.226562 238.820312 295.132812 238.863281 C 297.035156 238.917969 299.042969 239.007812 301.121094 239.03125 C 303.199219 239.089844 305.34375 239.097656 307.515625 239.191406 C 309.699219 239.304688 311.914062 239.273438 314.125 239.304688 C 316.339844 239.347656 318.550781 239.402344 320.734375 239.453125 C 322.917969 239.46875 325.0625 239.476562 327.132812 239.492188 C 329.207031 239.492188 331.21875 239.542969 333.128906 239.589844 C 335.03125 239.652344 336.835938 239.613281 338.496094 239.628906 C 341.828125 239.621094 344.605469 239.679688 346.5625 239.75 C 348.511719 239.808594 349.628906 239.878906 349.628906 239.878906 C 349.628906 239.878906 348.535156 240.074219 346.601562 240.347656 C 344.667969 240.625 341.902344 240.996094 338.574219 241.359375 C 336.910156 241.539062 335.105469 241.773438 333.195312 241.84375 C 331.277344 241.957031 329.261719 242.082031 327.175781 242.152344 C 326.125 242.199219 325.0625 242.242188 323.988281 242.289062 C 322.917969 242.324219 321.820312 242.402344 320.726562 242.371094 C 318.527344 242.355469 316.300781 242.332031 314.074219 242.316406 C 311.835938 242.257812 309.609375 242.25 307.417969 242.097656 C 305.222656 242 303.0625 241.820312 300.976562 241.683594 C 298.890625 241.585938 296.882812 241.304688 294.972656 241.109375 C 293.070312 240.898438 291.273438 240.699219 289.609375 240.453125 C 287.957031 240.210938 286.4375 239.953125 285.101562 239.734375 C 283.757812 239.53125 282.59375 239.265625 281.636719 239.074219 C 279.71875 238.699219 278.636719 238.402344 278.636719 238.402344"/><g clip-path="url(#h)"><path fill="#303030" d="M 451.585938 32.054688 C 451.585938 32.054688 452.136719 31.996094 453.171875 31.886719 C 454.207031 31.789062 455.71875 31.636719 457.652344 31.519531 C 461.519531 31.269531 467.0625 31.027344 473.707031 31.144531 C 477.039062 31.199219 480.640625 31.316406 484.449219 31.582031 C 488.253906 31.84375 492.265625 32.195312 496.402344 32.746094 C 500.535156 33.289062 504.800781 33.945312 509.089844 34.859375 C 513.386719 35.761719 517.722656 36.832031 521.992188 38.148438 C 526.257812 39.492188 530.464844 41.046875 534.488281 42.859375 C 538.523438 44.664062 542.335938 46.792969 545.863281 49.113281 C 549.382812 51.4375 552.546875 54.066406 555.273438 56.820312 C 558.015625 59.566406 560.28125 62.484375 562.054688 65.359375 C 563.847656 68.226562 565.121094 71.058594 566.058594 73.621094 C 566.277344 74.265625 566.496094 74.886719 566.699219 75.488281 C 566.875 76.101562 567.035156 76.695312 567.191406 77.261719 C 567.273438 77.546875 567.34375 77.824219 567.425781 78.097656 C 567.480469 78.371094 567.539062 78.644531 567.59375 78.90625 C 567.707031 79.433594 567.8125 79.9375 567.910156 80.410156 C 568.257812 82.328125 568.445312 83.84375 568.511719 84.882812 C 568.605469 85.917969 568.648438 86.46875 568.648438 86.46875 C 568.648438 86.46875 568.542969 85.925781 568.355469 84.90625 C 568.1875 83.882812 567.820312 82.40625 567.328125 80.550781 C 567.191406 80.089844 567.039062 79.605469 566.890625 79.097656 C 566.8125 78.84375 566.730469 78.582031 566.65625 78.316406 C 566.558594 78.058594 566.460938 77.792969 566.359375 77.519531 C 566.15625 76.976562 565.953125 76.414062 565.742188 75.828125 C 565.5 75.257812 565.242188 74.664062 564.988281 74.050781 C 563.890625 71.625 562.464844 68.984375 560.605469 66.3125 C 558.742188 63.648438 556.421875 60.980469 553.710938 58.4375 C 550.984375 55.90625 547.851562 53.523438 544.414062 51.347656 C 540.976562 49.175781 537.207031 47.273438 533.304688 45.527344 C 529.382812 43.796875 525.269531 42.320312 521.097656 41.035156 C 516.9375 39.71875 512.695312 38.628906 508.480469 37.710938 C 504.265625 36.800781 500.097656 35.988281 496.027344 35.375 C 491.953125 34.761719 488.011719 34.226562 484.25 33.820312 C 480.492188 33.433594 476.933594 33.109375 473.632812 32.871094 C 467.046875 32.402344 461.535156 32.207031 457.667969 32.117188 C 453.800781 32.03125 451.585938 32.054688 451.585938 32.054688"/></g></svg>