<!DOCTYPE svg PUBLIC "-//W3C//DTD SVG 1.1//EN" "http://www.w3.org/Graphics/SVG/1.1/DTD/svg11.dtd">
<!-- Uploaded to: SVG Repo, www.svgrepo.com, Transformed by: SVG Repo Mixer Tools -->
<svg width="161px" height="161px" viewBox="0 0 512 512" version="1.1" xmlns="http://www.w3.org/2000/svg" xmlns:xlink="http://www.w3.org/1999/xlink" fill="#000000">
<g id="SVGRepo_bgCarrier" stroke-width="0"/>
<g id="SVGRepo_tracerCarrier" stroke-linecap="round" stroke-linejoin="round"/>
<g id="SVGRepo_iconCarrier"> <title>trashcan</title> <g id="Page-1" stroke-width="6.656000000000001" fill="none" fill-rule="evenodd"> <g id="Shape" fill="#fe7171" transform="translate(64.000000, 42.666667)"> <path d="M256,42.6666667 L128,42.6666667 L128,7.10542736e-15 L256,7.10542736e-15 L256,42.6666667 Z M170.666667,170.666667 L128,170.666667 L128,341.333333 L170.666667,341.333333 L170.666667,170.666667 Z M256,170.666667 L213.333333,170.666667 L213.333333,341.333333 L256,341.333333 L256,170.666667 Z M384,85.3333333 L384,128 L341.333333,128 L341.333333,426.666667 L42.6666667,426.666667 L42.6666667,128 L0,128 L0,85.3333333 L384,85.3333333 Z M298.666667,128 L85.3333333,128 L85.3333333,384 L298.666667,384 L298.666667,128 Z"> </path> </g> </g> </g>
</svg>