<svg xmlns="http://www.w3.org/2000/svg" viewBox="0 0 47.283 8.563"><g style="line-height:.80000001"><path class="logo" d="M0 .358h2.498v5.471h3.344v1.937H0zm10.308 7.577q-1.196 0-2.148-.497-.953-.498-1.493-1.376-.54-.889-.54-2t.54-1.99q.54-.889 1.493-1.386.952-.498 2.148-.498 1.196 0 2.149.498.952.497 1.492 1.386.54.879.54 1.99t-.54 2q-.54.878-1.492 1.376-.953.497-2.149.497zm0-2.021q.466 0 .836-.222.381-.233.603-.646.223-.423.223-.984 0-.561-.223-.974-.222-.423-.603-.645-.37-.233-.836-.233-.466 0-.847.233-.37.222-.592.645-.222.413-.222.974 0 .56.222.984.222.413.592.646.381.222.847.222zm9.991-2.054h2.17v3.133q-.657.455-1.525.699-.867.243-1.704.243-1.185 0-2.127-.487-.942-.497-1.481-1.375-.53-.89-.53-2.011 0-1.122.53-2 .54-.89 1.492-1.376.963-.498 2.17-.498 1.09 0 1.947.37.868.36 1.44 1.06l-1.599 1.407q-.699-.815-1.662-.815-.825 0-1.312.497-.487.498-.487 1.355 0 .836.476 1.344.487.508 1.292.508.476 0 .91-.18zm7.122 4.075q-1.196 0-2.148-.497-.953-.498-1.492-1.376-.54-.889-.54-2t.54-1.99q.54-.889 1.492-1.386.952-.498 2.148-.498 1.196 0 2.149.498.952.497 1.492 1.386.54.879.54 1.99t-.54 2q-.54.878-1.492 1.376-.953.497-2.149.497zm0-2.021q.466 0 .836-.222.381-.233.604-.646.222-.423.222-.984 0-.561-.222-.974-.223-.423-.604-.645-.37-.233-.836-.233-.465 0-.846.233-.37.222-.593.645-.222.413-.222.974 0 .56.222.984.222.413.593.646.38.222.846.222z" style="line-height:1;-inkscape-font-specification:Montserrat" aria-label="LOGO" font-weight="400" font-size="10.583" font-family="Montserrat" letter-spacing="0" word-spacing="0" stroke-width=".265" fill="#0a1128"/></g><path class="plane" d="M47.218 2.012a1.068 1.068 0 00-.445-.54 3.415 3.415 0 00-2.946-.297l-1.615.58L38.926.048a.424.424 0 00-.339-.023l-1.278.46a.412.412 0 00-.12.711l2.038 1.632-3.419 1.229-1.104-.963a.424.424 0 00-.422-.079l-1.032.371a.413.413 0 00-.25.531l.645 1.751c.422 1.145 1.708 1.738 2.868 1.32l3.193-1.147-.423 2.231a.412.412 0 00.14.393.424.424 0 00.415.073l1.279-.46c.111-.04.2-.124.245-.233l1.254-3.05 3.96-1.423c.557-.2.845-.81.642-1.36zm-8.792 2.843l-.394.142a.42.42 0 01-.537-.248.413.413 0 01.25-.53l.395-.142a.42.42 0 01.537.248.413.413 0 01-.25.53zm1.97-.708l-.394.142a.42.42 0 01-.537-.248.413.413 0 01.25-.53l.394-.142a.42.42 0 01.537.248.413.413 0 01-.25.53zm1.97-.708l-.394.142a.42.42 0 01-.538-.247.413.413 0 01.25-.531l.395-.142a.42.42 0 01.537.248.413.413 0 01-.25.53zm1.97-.708l-.395.142a.42.42 0 01-.537-.247.413.413 0 01.25-.531l.394-.142a.42.42 0 01.538.248.413.413 0 01-.25.53z" fill="#dc143c"/></svg>