<?xml version="1.0" standalone="no"?>
<!DOCTYPE svg PUBLIC "-//W3C//DTD SVG 20010904//EN"
 "http://www.w3.org/TR/2001/REC-SVG-20010904/DTD/svg10.dtd">
<svg version="1.0" xmlns="http://www.w3.org/2000/svg"
 width="162.000000pt" height="162.000000pt" viewBox="0 0 162.000000 162.000000"
 preserveAspectRatio="xMidYMid meet">

<g transform="translate(0.000000,162.000000) scale(0.100000,-0.100000)"
fill="#000000" stroke="none">
<path d="M695 1609 c-259 -38 -487 -205 -604 -444 -66 -134 -85 -212 -85 -355
0 -144 19 -221 87 -360 74 -153 204 -283 357 -357 139 -68 216 -87 360 -87
138 0 217 18 345 78 212 100 375 295 437 525 29 107 29 295 0 404 -107 394
-498 654 -897 596z m256 -181 c66 -33 118 -65 117 -70 -2 -5 -58 -38 -125 -73
l-122 -64 -126 65 c-69 37 -124 71 -123 76 4 12 227 127 247 128 7 0 67 -28
132 -62z m-331 -167 c63 -33 115 -65 115 -71 0 -14 -221 -129 -248 -130 -30 0
-258 123 -248 133 20 20 227 126 246 127 11 0 72 -27 135 -59z m661 -2 c66
-34 119 -67 119 -73 -1 -6 -57 -39 -125 -74 l-124 -63 -126 63 c-68 35 -125
68 -125 73 0 11 227 134 249 135 7 0 67 -28 132 -61z m-928 -199 l107 -55 0
-162 c0 -90 -3 -163 -7 -163 -5 1 -66 31 -138 68 l-130 67 -3 150 c-1 82 0
155 2 162 6 16 9 15 169 -67z m435 -82 l-3 -163 -128 -68 c-71 -38 -130 -67
-132 -65 -5 5 -9 318 -4 323 8 7 254 134 262 135 4 0 6 -73 5 -162z m217 83
l110 -59 3 -161 c1 -89 0 -161 -4 -161 -4 0 -64 30 -135 67 l-129 67 0 159 0
159 23 -6 c12 -3 72 -32 132 -65z m449 51 c-1 -6 -2 -77 -2 -157 l-2 -144
-117 -60 c-65 -34 -126 -63 -136 -67 -16 -5 -17 5 -15 158 l3 163 120 62 c116
61 151 71 149 45z m-503 -414 c65 -35 119 -66 119 -70 0 -4 -57 -36 -127 -72
l-127 -64 -120 61 c-66 34 -121 67 -123 72 -2 6 43 35 99 64 57 30 107 57 113
62 19 18 49 8 166 -53z m-608 -23 l117 -60 0 -163 c0 -151 -1 -163 -17 -158
-10 3 -72 34 -138 69 l-120 62 -3 150 c-1 82 0 155 2 162 6 15 6 15 159 -62z
m1108 53 c-1 -5 -1 -74 -1 -155 l0 -148 -120 -62 c-66 -35 -127 -63 -135 -63
-13 0 -15 21 -13 157 l3 157 120 62 c111 58 147 71 146 52z m-788 -218 l127
-65 0 -162 c0 -101 -4 -163 -10 -163 -10 0 -239 117 -253 130 -5 4 -8 34 -8
66 -1 177 2 265 9 262 4 -2 64 -32 135 -68z m457 -100 l0 -160 -130 -65 c-71
-36 -132 -65 -135 -65 -3 0 -5 73 -5 163 l0 162 123 62 c67 34 128 62 135 62
9 1 12 -37 12 -159z"/>
</g>
</svg>
