<svg xmlns="http://www.w3.org/2000/svg" version="1.1" xmlns:xlink="http://www.w3.org/1999/xlink" width="30" height="30" x="0" y="0" viewBox="0 0 24 24" style="enable-background:new 0 0 512 512" xml:space="preserve" class=""><g><path d="M19 0H5a5.006 5.006 0 0 0-5 5v14a5.006 5.006 0 0 0 5 5h14a5.006 5.006 0 0 0 5-5V5a5.006 5.006 0 0 0-5-5ZM5 2h14a3 3 0 0 1 3 3v14a2.951 2.951 0 0 1-.3 1.285l-9.163-9.163a5 5 0 0 0-7.072 0L2 14.586V5a3 3 0 0 1 3-3Zm0 20a3 3 0 0 1-3-3v-1.586l4.878-4.878a3 3 0 0 1 4.244 0l9.163 9.164A2.951 2.951 0 0 1 19 22Z" fill="#9f9f9f" opacity="1" class=""></path><path d="M16 10.5A3.5 3.5 0 1 0 12.5 7a3.5 3.5 0 0 0 3.5 3.5Zm0-5A1.5 1.5 0 1 1 14.5 7 1.5 1.5 0 0 1 16 5.5Z" fill="#9f9f9f" opacity="1" class=""></path></g></svg>
