<svg xmlns="http://www.w3.org/2000/svg" width="20" height="20" viewBox="0 0 20 20">
  <defs>
    <style>
      .cls-1 {
        fill: #d65923;
      }

      .cls-2 {
        fill: none;
      }
    </style>
  </defs>
  <g id="delete" transform="translate(-906.5 -462.5)">
    <g id="cancel" transform="translate(907.75 463.75)">
      <path id="Caminho_10" data-name="Caminho 10" class="cls-1" d="M14.575,13.992,8.658,8.075a.412.412,0,0,0-.583.583l5.917,5.917a.412.412,0,1,0,.583-.583Zm-.583-5.917L8.075,13.992a.412.412,0,0,0,.583.583l5.917-5.917a.412.412,0,0,0-.583-.583Z" transform="translate(-2.492 -2.658)"/>
      <path id="Caminho_11" data-name="Caminho 11" class="cls-1" d="M4.317,16.183l.333-.333a7.826,7.826,0,0,1-2.333-5.583A7.689,7.689,0,0,1,4.65,4.683h0A7.689,7.689,0,0,1,10.233,2.35a7.689,7.689,0,0,1,5.583,2.333,7.826,7.826,0,0,1,2.333,5.583,7.689,7.689,0,0,1-2.333,5.583,7.826,7.826,0,0,1-5.583,2.333A7.689,7.689,0,0,1,4.65,15.85h0l-.333.333-.333.333A8.783,8.783,0,0,0,10.15,19.1a8.443,8.443,0,0,0,6.167-2.583A8.783,8.783,0,0,0,18.9,10.35a8.443,8.443,0,0,0-2.583-6.167A8.783,8.783,0,0,0,10.15,1.6,8.443,8.443,0,0,0,3.983,4.183h0A8.783,8.783,0,0,0,1.4,10.35a8.443,8.443,0,0,0,2.583,6.167h0Z" transform="translate(-1.4 -1.6)"/>
    </g>
    <rect id="Retângulo_5" data-name="Retângulo 5" class="cls-2" width="20" height="20" transform="translate(906.5 462.5)"/>
  </g>
</svg>
