<svg xmlns="http://www.w3.org/2000/svg" width="24" height="24" viewBox="0 0 24 24">
  <defs>
    <style>
      .cls-1 {
        fill: #d65923;
      }

      .cls-2 {
        fill: none;
      }
    </style>
  </defs>
  <g id="trash" transform="translate(-1181 -306)">
    <g id="bin" transform="translate(1181.5 305.5)">
      <path id="Caminho_12" data-name="Caminho 12" class="cls-1" d="M19,5.5H5a.5.5,0,0,0,0,1H19a.5.5,0,0,0,0-1Zm-5-1H10a.472.472,0,0,0-.5.5.472.472,0,0,0,.5.5h4a.472.472,0,0,0,.5-.5A.472.472,0,0,0,14,4.5ZM5.5,10V20a1.5,1.5,0,0,0,.4,1.1,1.5,1.5,0,0,0,1.1.4H17A1.384,1.384,0,0,0,18.5,20V10a.5.5,0,0,0-1,0V20a.4.4,0,0,1-.5.5H7a.584.584,0,0,1-.4-.1.584.584,0,0,1-.1-.4V10a.5.5,0,0,0-1,0Z"/>
    </g>
    <rect id="Retângulo_13" data-name="Retângulo 13" class="cls-2" width="24" height="24" transform="translate(1181 306)"/>
  </g>
</svg>
