<svg height="787" xmlns:xlink="http://www.w3.org/1999/xlink" xmlns="http://www.w3.org/2000/svg" viewBox="0 0 604 787" width="604"><defs><linearGradient x1="0%" id="lg1" y1="0%" x2="0%" y2="100%"><stop offset="0.36" stop-color="#d3a717"/><stop offset="1.00" stop-color="#a8830d"/></linearGradient><linearGradient x1="0%" id="lg2" y1="0%" x2="0%" y2="100%"><stop offset="1.00" stop-color="#d6b14f"/><stop offset="1.00" stop-color="#a98013"/></linearGradient><linearGradient x1="0%" id="lg3" y1="0%" x2="100%" y2="0%"><stop stop-opacity="0.12" offset="0.00" stop-color="#ffffff"/><stop stop-opacity="0.05" offset="0.55" stop-color="#ffffff"/><stop stop-opacity="0.02" offset="1.00" stop-color="#ffffff"/></linearGradient></defs><g transform="translate(-245.68,-58.54)"><g id="group1" transform="translate(278.676500,61.317700)"><path id="shape2" fill-rule="nonzero" d="M2.3,26.0L2.2,26.4C2.2,26.4,2.0,25.9,2.0,25.4C2.0,24.9,.0,2.9,.0,2.9C.0,2.9,.1,2.0,1.2,1.8C2.2,1.6,8.5,.6,8.9,.6C9.6,.7,9.4,2.5,9.8,2.5C10.2,2.5,25.3,.0,25.3,.0C25.3,.0,25.6,-0.1,25.5,.6C25.5,1.1,2.3,25.9,2.3,26.0z" fill="#e7d299" transform="translate(-0.006100,-0.001900)"/><path id="shape3" fill-rule="nonzero" d="M1.9,26.2L.0,2.8C.0,2.8,-0.2,2.0,1.1,1.8C2.4,1.6,8.2,.6,8.2,.6C8.2,.6,8.8,.2,9.0,1.7C9.0,2.7,9.6,2.6,10.1,2.5C10.6,2.4,24.9,.0,24.9,.0C24.9,.0,25.2,.0,25.2,.7C25.2,1.5,24.3,17.8,24.3,17.8L1.9,26.2z" fill="url(#lg1)" transform="translate(0.413700,0.224800)"/><path id="shape4" fill-rule="nonzero" d="M.0,23.3L.3,4.0L22.6,.0L.0,23.3z" fill-opacity="0.55" fill="#ffffff" transform="translate(3.352800,2.457700)"/><path id="shape5" fill-rule="nonzero" d="M.8,24.2L.0,4.8L23.9,.0L22.7,16.3L.8,24.2z" stroke="#bcbcbc" stroke-width="1" fill="#fcfcfc" transform="translate(1.707900,1.448900)"/><path id="shape6" fill-rule="nonzero" d="M1.8,4.9L.0,23.6C.0,23.6,22.0,16.2,21.9,16.2C21.8,16.1,25.1,.0,25.1,.0L1.8,4.9z" stroke="#a0a0a0" stroke-width="1" fill="#fcfcfc" transform="translate(2.625200,1.993600)"/><path id="shape7" fill-rule="nonzero" d="M3.5,4.6L.0,22.8L21.6,15.0L25.7,.0L3.5,4.6z" stroke="#a0a0a0" stroke-width="1" fill="#fcfcfc" transform="translate(3.352700,2.920500)"/><path id="shape8" fill-rule="nonzero" d="M.2,22.8L.0,22.9L3.1,8.8C3.1,8.8,3.3,7.9,4.1,7.6C4.8,7.4,11.3,6.0,11.3,6.0C11.3,6.0,11.9,5.8,11.9,4.7C12.0,3.5,12.9,3.3,12.9,3.3L28.2,.0L28.6,.2L9.4,8.2L.2,22.8z" fill="#e7d299" transform="translate(2.403000,3.557900)"/><path id="shape9" fill-rule="nonzero" d="M.1,22.2C.1,22.2,.2,22.7,.3,22.6C.6,22.5,3.5,9.4,3.8,8.8C4.0,8.2,4.2,7.9,4.9,7.7C5.7,7.5,11.9,6.1,11.9,6.1C11.9,6.1,12.3,6.1,12.4,5.2C12.6,4.3,12.5,3.6,13.5,3.3C14.5,3.1,28.7,-0.2,28.8,.0C28.9,.2,29.1,.3,29.0,.9C28.8,1.6,23.1,14.4,23.1,14.4C23.1,14.4,23.1,14.9,22.6,14.9C22.1,15.0,.4,23.0,.4,23.0C.4,23.0,-0.2,22.9,.1,22.2z" fill="url(#lg2)" transform="translate(2.167400,3.750300)"/><path id="shape10" d="M224.2,342.7L224.2,342.7z" stroke="#000000" stroke-width="1" fill="none" transform="translate(26.500763,3.542605)"/><path id="shape11" fill-rule="nonzero" d="M14.4,2.0C14.4,2.0,23.9,-0.1,24.0,.0C24.1,.3,24.3,.4,24.1,1.0C24.0,1.6,18.3,14.4,18.3,14.4C18.3,14.4,18.3,14.8,17.7,14.9C17.2,15.0,.0,21.4,.0,21.4L14.4,2.0z" fill="url(#lg3)" transform="translate(7.008400,3.774500)"/><text xml:space="preserve" style="fill:#191919;font-family:Arial;font-size:9.60pt;font-weight:bold"><tspan x="7.0" y="42.7">src</tspan></text></g><g id="shape12" transform="translate(321.000500,58.541300)"><text xml:space="preserve" style="fill:#a66834;font-family:Arial;font-size:10.00pt;font-weight:bold"><tspan x="12.1" y="20.5">Project source</tspan></text></g><g id="group13" transform="translate(308.945500,104.611500)"><path id="shape14" fill-rule="nonzero" d="M2.3,26.0L2.2,26.4C2.2,26.4,2.0,25.9,2.0,25.4C2.0,24.9,.0,2.9,.0,2.9C.0,2.9,.1,2.0,1.2,1.8C2.2,1.6,8.5,.6,8.9,.6C9.6,.7,9.4,2.5,9.8,2.5C10.2,2.5,25.3,.0,25.3,.0C25.3,.0,25.6,-0.1,25.5,.6C25.5,1.1,2.3,25.9,2.3,26.0z" fill="#e7d299" transform="translate(-0.006100,-0.001900)"/><path id="shape15" fill-rule="nonzero" d="M1.9,26.2L.0,2.8C.0,2.8,-0.2,2.0,1.1,1.8C2.4,1.6,8.2,.6,8.2,.6C8.2,.6,8.8,.2,9.0,1.7C9.0,2.7,9.6,2.6,10.1,2.5C10.6,2.4,24.9,.0,24.9,.0C24.9,.0,25.2,.0,25.2,.7C25.2,1.5,24.3,17.8,24.3,17.8L1.9,26.2z" fill="url(#lg1)" transform="translate(0.413700,0.224800)"/><path id="shape16" fill-rule="nonzero" d="M.0,23.3L.3,4.0L22.5,.0L.0,23.3z" fill-opacity="0.55" fill="#ffffff" transform="translate(3.352700,2.457700)"/><path id="shape17" fill-rule="nonzero" d="M.8,24.2L.0,4.8L23.9,.0L22.7,16.3L.8,24.2z" stroke="#bcbcbc" stroke-width="1" fill="#fcfcfc" transform="translate(1.707900,1.448900)"/><path id="shape18" fill-rule="nonzero" d="M1.8,4.9L.0,23.6C.0,23.6,22.0,16.2,21.9,16.2C21.8,16.1,25.1,.0,25.1,.0L1.8,4.9z" stroke="#a0a0a0" stroke-width="1" fill="#fcfcfc" transform="translate(2.625200,1.993600)"/><path id="shape19" fill-rule="nonzero" d="M3.5,4.6L.0,22.8L21.6,15.0L25.7,.0L3.5,4.6z" stroke="#a0a0a0" stroke-width="1" fill="#fcfcfc" transform="translate(3.352700,2.920500)"/><path id="shape20" fill-rule="nonzero" d="M.2,22.8L.0,22.9L3.1,8.8C3.1,8.8,3.3,7.9,4.1,7.6C4.8,7.4,11.3,6.0,11.3,6.0C11.3,6.0,11.9,5.8,11.9,4.7C12.0,3.5,12.9,3.3,12.9,3.3L28.2,.0L28.6,.2L9.4,8.2L.2,22.8z" fill="#e7d299" transform="translate(2.403000,3.557900)"/><path id="shape21" fill-rule="nonzero" d="M.1,22.2C.1,22.2,.2,22.7,.3,22.6C.6,22.5,3.5,9.4,3.8,8.8C4.0,8.2,4.2,7.9,4.9,7.7C5.7,7.5,11.9,6.1,11.9,6.1C11.9,6.1,12.3,6.1,12.4,5.2C12.6,4.3,12.5,3.6,13.5,3.3C14.5,3.1,28.7,-0.2,28.8,.0C28.9,.2,29.1,.3,29.0,.9C28.8,1.6,23.1,14.4,23.1,14.4C23.1,14.4,23.1,14.9,22.6,14.9C22.1,15.0,.4,23.0,.4,23.0C.4,23.0,-0.2,22.9,.1,22.2z" fill="url(#lg2)" transform="translate(2.167400,3.750300)"/><path id="shape22" d="M224.2,342.7L224.2,342.7z" stroke="#000000" stroke-width="1" fill="none" transform="translate(26.500763,3.542605)"/><path id="shape23" fill-rule="nonzero" d="M14.4,2.0C14.4,2.0,23.9,-0.1,24.0,.0C24.1,.3,24.3,.4,24.1,1.0C24.0,1.6,18.3,14.4,18.3,14.4C18.3,14.4,18.3,14.8,17.7,14.9C17.2,15.0,.0,21.4,.0,21.4L14.4,2.0z" fill="url(#lg3)" transform="translate(7.008400,3.774500)"/><text xml:space="preserve" style="fill:#191919;font-family:Arial;font-size:9.60pt;font-weight:bold"><tspan x="-6.6" y="42.7">@types</tspan></text></g><g id="shape24" transform="translate(352.719000,104.611500)"><text xml:space="preserve" style="fill:#a66834;font-family:Arial;font-size:10.00pt;font-weight:bold"><tspan x="13.2" y="17.4">Typing organized by pages</tspan></text></g><g id="group25" transform="translate(343.437500,153.636500)"><path id="shape26" fill-rule="nonzero" d="M2.3,26.0L2.2,26.4C2.2,26.4,2.0,25.9,2.0,25.4C2.0,24.9,.0,2.9,.0,2.9C.0,2.9,.1,2.0,1.2,1.8C2.2,1.6,8.5,.6,8.9,.6C9.6,.7,9.4,2.5,9.8,2.5C10.2,2.5,25.3,.0,25.3,.0C25.3,.0,25.6,-0.1,25.5,.6C25.5,1.1,2.3,25.9,2.3,26.0z" fill="#e7d299" transform="translate(-0.006100,-0.001900)"/><path id="shape27" fill-rule="nonzero" d="M1.9,26.2L.0,2.8C.0,2.8,-0.2,2.0,1.1,1.8C2.4,1.6,8.2,.6,8.2,.6C8.2,.6,8.8,.2,9.0,1.7C9.0,2.7,9.6,2.6,10.1,2.5C10.6,2.4,24.9,.0,24.9,.0C24.9,.0,25.2,.0,25.2,.7C25.2,1.5,24.3,17.8,24.3,17.8L1.9,26.2z" fill="url(#lg1)" transform="translate(0.413700,0.224800)"/><path id="shape28" fill-rule="nonzero" d="M.0,23.3L.3,4.0L22.5,.0L.0,23.3z" fill-opacity="0.55" fill="#ffffff" transform="translate(3.352700,2.457700)"/><path id="shape29" fill-rule="nonzero" d="M.8,24.2L.0,4.8L23.9,.0L22.7,16.3L.8,24.2z" stroke="#bcbcbc" stroke-width="1" fill="#fcfcfc" transform="translate(1.707900,1.448900)"/><path id="shape30" fill-rule="nonzero" d="M1.8,4.9L.0,23.6C.0,23.6,22.0,16.2,21.9,16.2C21.8,16.1,25.1,.0,25.1,.0L1.8,4.9z" stroke="#a0a0a0" stroke-width="1" fill="#fcfcfc" transform="translate(2.625200,1.993600)"/><path id="shape31" fill-rule="nonzero" d="M3.5,4.6L.0,22.8L21.6,15.0L25.7,.0L3.5,4.6z" stroke="#a0a0a0" stroke-width="1" fill="#fcfcfc" transform="translate(3.352700,2.920500)"/><path id="shape32" fill-rule="nonzero" d="M.2,22.8L.0,22.9L3.1,8.8C3.1,8.8,3.3,7.9,4.1,7.6C4.8,7.4,11.3,6.0,11.3,6.0C11.3,6.0,11.9,5.8,11.9,4.7C12.0,3.5,12.9,3.3,12.9,3.3L28.2,.0L28.6,.2L9.4,8.2L.2,22.8z" fill="#e7d299" transform="translate(2.403000,3.557900)"/><path id="shape33" fill-rule="nonzero" d="M.1,22.2C.1,22.2,.2,22.7,.3,22.6C.6,22.5,3.5,9.4,3.8,8.8C4.0,8.2,4.2,7.9,4.9,7.7C5.7,7.5,11.9,6.1,11.9,6.1C11.9,6.1,12.3,6.1,12.4,5.2C12.6,4.3,12.5,3.6,13.5,3.3C14.5,3.1,28.7,-0.2,28.8,.0C28.9,.2,29.1,.3,29.0,.9C28.8,1.6,23.1,14.4,23.1,14.4C23.1,14.4,23.1,14.9,22.6,14.9C22.1,15.0,.4,23.0,.4,23.0C.4,23.0,-0.2,22.9,.1,22.2z" fill="url(#lg2)" transform="translate(2.167400,3.750300)"/><path id="shape34" d="M224.2,342.7L224.2,342.7z" stroke="#000000" stroke-width="1" fill="none" transform="translate(26.500763,3.542605)"/><path id="shape35" fill-rule="nonzero" d="M14.4,2.0C14.4,2.0,23.9,-0.1,24.0,.0C24.1,.3,24.3,.4,24.1,1.0C24.0,1.6,18.3,14.4,18.3,14.4C18.3,14.4,18.3,14.8,17.7,14.9C17.2,15.0,.0,21.4,.0,21.4L14.4,2.0z" fill="url(#lg3)" transform="translate(7.008400,3.774500)"/><text xml:space="preserve" style="fill:#191919;font-family:Arial;font-size:9.60pt;font-weight:bold"><tspan x="-0.6" y="42.7">home</tspan></text></g><g id="group36" transform="translate(375.880500,199.295500)"><path id="shape37" fill-rule="nonzero" d="M2.3,26.0L2.2,26.4C2.2,26.4,2.0,25.9,2.0,25.4C2.0,24.9,.0,2.9,.0,2.9C.0,2.9,.1,2.0,1.2,1.8C2.2,1.6,8.5,.6,8.9,.6C9.6,.7,9.4,2.5,9.8,2.5C10.2,2.5,25.3,.0,25.3,.0C25.3,.0,25.6,-0.1,25.5,.6C25.5,1.1,2.3,25.9,2.3,26.0z" fill="#e7d299" transform="translate(-0.006100,-0.001900)"/><path id="shape38" fill-rule="nonzero" d="M1.9,26.2L.0,2.8C.0,2.8,-0.2,2.0,1.1,1.8C2.4,1.6,8.2,.6,8.2,.6C8.2,.6,8.8,.2,9.0,1.7C9.0,2.7,9.6,2.6,10.1,2.5C10.6,2.4,24.9,.0,24.9,.0C24.9,.0,25.2,.0,25.2,.7C25.2,1.5,24.3,17.8,24.3,17.8L1.9,26.2z" fill="url(#lg1)" transform="translate(0.413700,0.224800)"/><path id="shape39" fill-rule="nonzero" d="M.0,23.3L.3,4.0L22.5,.0L.0,23.3z" fill-opacity="0.55" fill="#ffffff" transform="translate(3.352700,2.457700)"/><path id="shape40" fill-rule="nonzero" d="M.8,24.2L.0,4.8L23.9,.0L22.7,16.3L.8,24.2z" stroke="#bcbcbc" stroke-width="1" fill="#fcfcfc" transform="translate(1.707900,1.448900)"/><path id="shape41" fill-rule="nonzero" d="M1.8,4.9L.0,23.6C.0,23.6,22.0,16.2,21.9,16.2C21.8,16.1,25.1,.0,25.1,.0L1.8,4.9z" stroke="#a0a0a0" stroke-width="1" fill="#fcfcfc" transform="translate(2.625200,1.993600)"/><path id="shape42" fill-rule="nonzero" d="M3.5,4.6L.0,22.8L21.6,15.0L25.7,.0L3.5,4.6z" stroke="#a0a0a0" stroke-width="1" fill="#fcfcfc" transform="translate(3.352700,2.920500)"/><path id="shape43" fill-rule="nonzero" d="M.2,22.8L.0,22.9L3.1,8.8C3.1,8.8,3.3,7.9,4.1,7.6C4.8,7.4,11.3,6.0,11.3,6.0C11.3,6.0,11.9,5.8,11.9,4.7C12.0,3.5,12.9,3.3,12.9,3.3L28.2,.0L28.6,.2L9.4,8.2L.2,22.8z" fill="#e7d299" transform="translate(2.403000,3.557900)"/><path id="shape44" fill-rule="nonzero" d="M.1,22.2C.1,22.2,.2,22.7,.3,22.6C.6,22.5,3.5,9.4,3.8,8.8C4.0,8.2,4.2,7.9,4.9,7.7C5.7,7.5,11.9,6.1,11.9,6.1C11.9,6.1,12.3,6.1,12.4,5.2C12.6,4.3,12.5,3.6,13.5,3.3C14.5,3.1,28.7,-0.2,28.8,.0C28.9,.2,29.1,.3,29.0,.9C28.8,1.6,23.1,14.4,23.1,14.4C23.1,14.4,23.1,14.9,22.6,14.9C22.1,15.0,.4,23.0,.4,23.0C.4,23.0,-0.2,22.9,.1,22.2z" fill="url(#lg2)" transform="translate(2.167400,3.750300)"/><path id="shape45" d="M224.2,342.7L224.2,342.7z" stroke="#000000" stroke-width="1" fill="none" transform="translate(26.500763,3.542605)"/><path id="shape46" fill-rule="nonzero" d="M14.4,2.0C14.4,2.0,23.9,-0.1,24.0,.0C24.1,.3,24.3,.4,24.1,1.0C24.0,1.6,18.3,14.4,18.3,14.4C18.3,14.4,18.3,14.8,17.7,14.9C17.2,15.0,.0,21.4,.0,21.4L14.4,2.0z" fill="url(#lg3)" transform="translate(7.008400,2.047100)"/><text xml:space="preserve" style="fill:#191919;font-family:Arial;font-size:9.60pt;font-weight:bold"><tspan x="3.4" y="42.7">data</tspan></text></g><g id="group47" transform="translate(375.880500,249.273500)"><path id="shape48" fill-rule="nonzero" d="M2.3,26.0L2.2,26.4C2.2,26.4,2.0,25.9,2.0,25.4C2.0,24.9,.0,2.9,.0,2.9C.0,2.9,.1,2.0,1.2,1.8C2.2,1.6,8.5,.6,8.9,.6C9.6,.7,9.4,2.5,9.8,2.5C10.2,2.5,25.3,.0,25.3,.0C25.3,.0,25.6,-0.1,25.5,.6C25.5,1.1,2.3,25.9,2.3,26.0z" fill="#e7d299" transform="translate(-0.006100,-0.001900)"/><path id="shape49" fill-rule="nonzero" d="M1.9,26.2L.0,2.8C.0,2.8,-0.2,2.0,1.1,1.8C2.4,1.6,8.2,.6,8.2,.6C8.2,.6,8.8,.2,9.0,1.7C9.0,2.7,9.6,2.6,10.1,2.5C10.6,2.4,24.9,.0,24.9,.0C24.9,.0,25.2,.0,25.2,.7C25.2,1.5,24.3,17.8,24.3,17.8L1.9,26.2z" fill="url(#lg1)" transform="translate(0.413700,0.224800)"/><path id="shape50" fill-rule="nonzero" d="M.0,23.3L.3,4.0L22.5,.0L.0,23.3z" fill-opacity="0.55" fill="#ffffff" transform="translate(3.352700,2.457700)"/><path id="shape51" fill-rule="nonzero" d="M.8,24.2L.0,4.8L23.9,.0L22.7,16.3L.8,24.2z" stroke="#bcbcbc" stroke-width="1" fill="#fcfcfc" transform="translate(1.707900,1.448900)"/><path id="shape52" fill-rule="nonzero" d="M1.8,4.9L.0,23.6C.0,23.6,22.0,16.2,21.9,16.2C21.8,16.1,25.1,.0,25.1,.0L1.8,4.9z" stroke="#a0a0a0" stroke-width="1" fill="#fcfcfc" transform="translate(2.625200,1.993600)"/><path id="shape53" fill-rule="nonzero" d="M3.5,4.6L.0,22.8L21.6,15.0L25.7,.0L3.5,4.6z" stroke="#a0a0a0" stroke-width="1" fill="#fcfcfc" transform="translate(3.352700,2.920500)"/><path id="shape54" fill-rule="nonzero" d="M.2,22.8L.0,22.9L3.1,8.8C3.1,8.8,3.3,7.9,4.1,7.6C4.8,7.4,11.3,6.0,11.3,6.0C11.3,6.0,11.9,5.8,11.9,4.7C12.0,3.5,12.9,3.3,12.9,3.3L28.2,.0L28.6,.2L9.4,8.2L.2,22.8z" fill="#e7d299" transform="translate(2.403000,3.557900)"/><path id="shape55" fill-rule="nonzero" d="M.1,22.2C.1,22.2,.2,22.7,.3,22.6C.6,22.5,3.5,9.4,3.8,8.8C4.0,8.2,4.2,7.9,4.9,7.7C5.7,7.5,11.9,6.1,11.9,6.1C11.9,6.1,12.3,6.1,12.4,5.2C12.6,4.3,12.5,3.6,13.5,3.3C14.5,3.1,28.7,-0.2,28.8,.0C28.9,.2,29.1,.3,29.0,.9C28.8,1.6,23.1,14.4,23.1,14.4C23.1,14.4,23.1,14.9,22.6,14.9C22.1,15.0,.4,23.0,.4,23.0C.4,23.0,-0.2,22.9,.1,22.2z" fill="url(#lg2)" transform="translate(2.167400,3.750300)"/><path id="shape56" d="M224.2,342.7L224.2,342.7z" stroke="#000000" stroke-width="1" fill="none" transform="translate(26.500763,3.542605)"/><path id="shape57" fill-rule="nonzero" d="M14.4,2.0C14.4,2.0,23.9,-0.1,24.0,.0C24.1,.3,24.3,.4,24.1,1.0C24.0,1.6,18.3,14.4,18.3,14.4C18.3,14.4,18.3,14.8,17.7,14.9C17.2,15.0,.0,21.4,.0,21.4L14.4,2.0z" fill="url(#lg3)" transform="translate(7.008400,3.774500)"/><text xml:space="preserve" style="fill:#191919;font-family:Arial;font-size:9.60pt;font-weight:bold"><tspan x="11.0" y="42.7">ui</tspan></text></g><g id="group58" transform="translate(309.808500,293.411500)"><path id="shape59" fill-rule="nonzero" d="M2.3,26.0L2.2,26.4C2.2,26.4,2.0,25.9,2.0,25.4C2.0,24.9,.0,2.9,.0,2.9C.0,2.9,.1,2.0,1.2,1.8C2.2,1.6,8.5,.6,8.9,.6C9.6,.7,9.4,2.5,9.8,2.5C10.2,2.5,25.3,.0,25.3,.0C25.3,.0,25.6,-0.1,25.5,.6C25.5,1.1,2.3,25.9,2.3,26.0z" fill="#e7d299" transform="translate(-0.006100,-0.001800)"/><path id="shape60" fill-rule="nonzero" d="M1.9,26.2L.0,2.8C.0,2.8,-0.2,2.0,1.1,1.8C2.4,1.6,8.2,.6,8.2,.6C8.2,.6,8.8,.2,9.0,1.7C9.0,2.7,9.6,2.6,10.1,2.5C10.6,2.4,24.9,.0,24.9,.0C24.9,.0,25.2,.0,25.2,.7C25.2,1.5,24.3,17.8,24.3,17.8L1.9,26.2z" fill="url(#lg1)" transform="translate(0.413700,0.224800)"/><path id="shape61" fill-rule="nonzero" d="M.0,23.3L.3,4.0L22.5,.0L.0,23.3z" fill-opacity="0.55" fill="#ffffff" transform="translate(3.352700,2.457700)"/><path id="shape62" fill-rule="nonzero" d="M.8,24.2L.0,4.8L23.9,.0L22.7,16.3L.8,24.2z" stroke="#bcbcbc" stroke-width="1" fill="#fcfcfc" transform="translate(1.708000,1.448900)"/><path id="shape63" fill-rule="nonzero" d="M1.8,4.9L.0,23.6C.0,23.6,22.0,16.2,21.9,16.2C21.8,16.1,25.1,.0,25.1,.0L1.8,4.9z" stroke="#a0a0a0" stroke-width="1" fill="#fcfcfc" transform="translate(2.625300,1.993600)"/><path id="shape64" fill-rule="nonzero" d="M3.5,4.6L.0,22.8L21.6,15.0L25.7,.0L3.5,4.6z" stroke="#a0a0a0" stroke-width="1" fill="#fcfcfc" transform="translate(3.352700,2.920600)"/><path id="shape65" fill-rule="nonzero" d="M.2,22.8L.0,22.9L3.1,8.8C3.1,8.8,3.3,7.9,4.1,7.6C4.8,7.4,11.3,6.0,11.3,6.0C11.3,6.0,11.9,5.8,11.9,4.7C12.0,3.5,12.9,3.3,12.9,3.3L28.2,.0L28.6,.2L9.4,8.2L.2,22.8z" fill="#e7d299" transform="translate(2.403000,3.557900)"/><path id="shape66" fill-rule="nonzero" d="M.1,22.2C.1,22.2,.2,22.7,.3,22.6C.6,22.5,3.5,9.4,3.8,8.8C4.0,8.2,4.2,7.9,4.9,7.7C5.7,7.5,11.9,6.1,11.9,6.1C11.9,6.1,12.3,6.1,12.4,5.2C12.6,4.3,12.5,3.6,13.5,3.3C14.5,3.1,28.7,-0.2,28.8,.0C28.9,.2,29.1,.3,29.0,.9C28.8,1.6,23.1,14.4,23.1,14.4C23.1,14.4,23.1,14.9,22.6,14.9C22.1,15.0,.4,23.0,.4,23.0C.4,23.0,-0.2,22.9,.1,22.2z" fill="url(#lg2)" transform="translate(2.167500,3.750300)"/><path id="shape67" d="M224.2,342.7L224.2,342.7z" stroke="#000000" stroke-width="1" fill="none" transform="translate(26.500663,3.542605)"/><path id="shape68" fill-rule="nonzero" d="M14.4,2.0C14.4,2.0,23.9,-0.1,24.0,.0C24.1,.3,24.3,.4,24.1,1.0C24.0,1.6,18.3,14.4,18.3,14.4C18.3,14.4,18.3,14.8,17.7,14.9C17.2,15.0,.0,21.4,.0,21.4L14.4,2.0z" fill="url(#lg3)" transform="translate(7.008500,3.774500)"/><text xml:space="preserve" style="fill:#191919;font-family:Arial;font-size:9.60pt;font-weight:bold"><tspan x="-2.2" y="42.7">pages</tspan></text></g><g id="group69" transform="translate(309.809500,341.778500)"><path id="shape70" fill-rule="nonzero" d="M2.3,26.0L2.2,26.4C2.2,26.4,2.0,25.9,2.0,25.4C2.0,24.9,.0,2.9,.0,2.9C.0,2.9,.1,2.0,1.2,1.8C2.2,1.6,8.5,.6,8.9,.6C9.6,.7,9.4,2.5,9.8,2.5C10.2,2.5,25.3,.0,25.3,.0C25.3,.0,25.6,-0.1,25.5,.6C25.5,1.1,2.3,25.9,2.3,26.0z" fill="#e7d299" transform="translate(-0.006100,-0.001800)"/><path id="shape71" fill-rule="nonzero" d="M1.9,26.2L.0,2.8C.0,2.8,-0.2,2.0,1.1,1.8C2.4,1.6,8.2,.6,8.2,.6C8.2,.6,8.8,.2,9.0,1.7C9.0,2.7,9.6,2.6,10.1,2.5C10.6,2.4,24.9,.0,24.9,.0C24.9,.0,25.2,.0,25.2,.7C25.2,1.5,24.3,17.8,24.3,17.8L1.9,26.2z" fill="url(#lg1)" transform="translate(0.413700,0.224800)"/><path id="shape72" fill-rule="nonzero" d="M.0,23.3L.3,4.0L22.5,.0L.0,23.3z" fill-opacity="0.55" fill="#ffffff" transform="translate(3.352700,2.457700)"/><path id="shape73" fill-rule="nonzero" d="M.8,24.2L.0,4.8L23.9,.0L22.7,16.3L.8,24.2z" stroke="#bcbcbc" stroke-width="1" fill="#fcfcfc" transform="translate(1.708000,1.448900)"/><path id="shape74" fill-rule="nonzero" d="M1.8,4.9L.0,23.6C.0,23.6,22.0,16.2,21.9,16.2C21.8,16.1,25.1,.0,25.1,.0L1.8,4.9z" stroke="#a0a0a0" stroke-width="1" fill="#fcfcfc" transform="translate(2.625300,1.993600)"/><path id="shape75" fill-rule="nonzero" d="M3.5,4.6L.0,22.8L21.6,15.0L25.7,.0L3.5,4.6z" stroke="#a0a0a0" stroke-width="1" fill="#fcfcfc" transform="translate(3.352700,2.920600)"/><path id="shape76" fill-rule="nonzero" d="M.2,22.8L.0,22.9L3.1,8.8C3.1,8.8,3.3,7.9,4.1,7.6C4.8,7.4,11.3,6.0,11.3,6.0C11.3,6.0,11.9,5.8,11.9,4.7C12.0,3.5,12.9,3.3,12.9,3.3L28.2,.0L28.6,.2L9.4,8.2L.2,22.8z" fill="#e7d299" transform="translate(2.403000,3.557900)"/><path id="shape77" fill-rule="nonzero" d="M.1,22.2C.1,22.2,.2,22.7,.3,22.6C.6,22.5,3.5,9.4,3.8,8.8C4.0,8.2,4.2,7.9,4.9,7.7C5.7,7.5,11.9,6.1,11.9,6.1C11.9,6.1,12.3,6.1,12.4,5.2C12.6,4.3,12.5,3.6,13.5,3.3C14.5,3.1,28.7,-0.2,28.8,.0C28.9,.2,29.1,.3,29.0,.9C28.8,1.6,23.1,14.4,23.1,14.4C23.1,14.4,23.1,14.9,22.6,14.9C22.1,15.0,.4,23.0,.4,23.0C.4,23.0,-0.2,22.9,.1,22.2z" fill="url(#lg2)" transform="translate(2.167500,3.750300)"/><path id="shape78" d="M224.2,342.7L224.2,342.7z" stroke="#000000" stroke-width="1" fill="none" transform="translate(26.500663,3.542605)"/><path id="shape79" fill-rule="nonzero" d="M14.4,2.0C14.4,2.0,23.9,-0.1,24.0,.0C24.1,.3,24.3,.4,24.1,1.0C24.0,1.6,18.3,14.4,18.3,14.4C18.3,14.4,18.3,14.8,17.7,14.9C17.2,15.0,.0,21.4,.0,21.4L14.4,2.0z" fill="url(#lg3)" transform="translate(7.008500,3.774500)"/><text xml:space="preserve" style="fill:#191919;font-family:Arial;font-size:9.60pt;font-weight:bold"><tspan x="-10.6" y="42.7">reducers</tspan></text></g><path id="shape80" fill-rule="nonzero" d="M14.4,2.0C14.4,2.0,23.9,-0.1,24.0,.0C24.1,.3,24.3,.4,24.1,1.0C24.0,1.6,18.3,14.4,18.3,14.4C18.3,14.4,18.3,14.8,17.7,14.9C17.2,15.0,.0,21.4,.0,21.4L14.4,2.0z" fill="url(#lg3)" transform="translate(498.446900,264.597400)"/><g id="group81" transform="translate(309.809500,390.281500)"><path id="shape82" fill-rule="nonzero" d="M2.3,26.0L2.2,26.4C2.2,26.4,2.0,25.9,2.0,25.4C2.0,24.9,.0,2.9,.0,2.9C.0,2.9,.1,2.0,1.2,1.8C2.2,1.6,8.5,.6,8.9,.6C9.6,.7,9.4,2.5,9.8,2.5C10.2,2.5,25.3,.0,25.3,.0C25.3,.0,25.6,-0.1,25.5,.6C25.5,1.1,2.3,25.9,2.3,26.0z" fill="#e7d299" transform="translate(-0.006100,-0.001800)"/><path id="shape83" fill-rule="nonzero" d="M1.9,26.2L.0,2.8C.0,2.8,-0.2,2.0,1.1,1.8C2.4,1.6,8.2,.6,8.2,.6C8.2,.6,8.8,.2,9.0,1.7C9.0,2.7,9.6,2.6,10.1,2.5C10.6,2.4,24.9,.0,24.9,.0C24.9,.0,25.2,.0,25.2,.7C25.2,1.5,24.3,17.8,24.3,17.8L1.9,26.2z" fill="url(#lg1)" transform="translate(0.413700,0.224800)"/><path id="shape84" fill-rule="nonzero" d="M.0,23.3L.3,4.0L22.5,.0L.0,23.3z" fill-opacity="0.55" fill="#ffffff" transform="translate(3.352700,2.457700)"/><path id="shape85" fill-rule="nonzero" d="M.8,24.2L.0,4.8L23.9,.0L22.7,16.3L.8,24.2z" stroke="#bcbcbc" stroke-width="1" fill="#fcfcfc" transform="translate(1.708000,1.448900)"/><path id="shape86" fill-rule="nonzero" d="M1.8,4.9L.0,23.6C.0,23.6,22.0,16.2,21.9,16.2C21.8,16.1,25.1,.0,25.1,.0L1.8,4.9z" stroke="#a0a0a0" stroke-width="1" fill="#fcfcfc" transform="translate(2.625300,1.993600)"/><path id="shape87" fill-rule="nonzero" d="M3.5,4.6L.0,22.8L21.6,15.0L25.7,.0L3.5,4.6z" stroke="#a0a0a0" stroke-width="1" fill="#fcfcfc" transform="translate(3.352700,2.920600)"/><path id="shape88" fill-rule="nonzero" d="M.2,22.8L.0,22.9L3.1,8.8C3.1,8.8,3.3,7.9,4.1,7.6C4.8,7.4,11.3,6.0,11.3,6.0C11.3,6.0,11.9,5.8,11.9,4.7C12.0,3.5,12.9,3.3,12.9,3.3L28.2,.0L28.6,.2L9.4,8.2L.2,22.8z" fill="#e7d299" transform="translate(2.403000,3.557900)"/><path id="shape89" fill-rule="nonzero" d="M.1,22.2C.1,22.2,.2,22.7,.3,22.6C.6,22.5,3.5,9.4,3.8,8.8C4.0,8.2,4.2,7.9,4.9,7.7C5.7,7.5,11.9,6.1,11.9,6.1C11.9,6.1,12.3,6.1,12.4,5.2C12.6,4.3,12.5,3.6,13.5,3.3C14.5,3.1,28.7,-0.2,28.8,.0C28.9,.2,29.1,.3,29.0,.9C28.8,1.6,23.1,14.4,23.1,14.4C23.1,14.4,23.1,14.9,22.6,14.9C22.1,15.0,.4,23.0,.4,23.0C.4,23.0,-0.2,22.9,.1,22.2z" fill="url(#lg2)" transform="translate(2.167500,3.750300)"/><path id="shape90" d="M224.2,342.7L224.2,342.7z" stroke="#000000" stroke-width="1" fill="none" transform="translate(26.500663,3.542605)"/><path id="shape91" fill-rule="nonzero" d="M14.4,2.0C14.4,2.0,23.9,-0.1,24.0,.0C24.1,.3,24.3,.4,24.1,1.0C24.0,1.6,18.3,14.4,18.3,14.4C18.3,14.4,18.3,14.8,17.7,14.9C17.2,15.0,.0,21.4,.0,21.4L14.4,2.0z" fill="url(#lg3)" transform="translate(7.008500,3.774500)"/><text xml:space="preserve" style="fill:#191919;font-family:Arial;font-size:9.60pt;font-weight:bold"><tspan x="-3.0" y="42.7">routes</tspan></text></g><g id="group92" transform="translate(309.808500,438.783500)"><path id="shape93" fill-rule="nonzero" d="M2.3,26.0L2.2,26.4C2.2,26.4,2.0,25.9,2.0,25.4C2.0,24.9,.0,2.9,.0,2.9C.0,2.9,.1,2.0,1.2,1.8C2.2,1.6,8.5,.6,8.9,.6C9.6,.7,9.4,2.5,9.8,2.5C10.2,2.5,25.3,.0,25.3,.0C25.3,.0,25.6,-0.1,25.5,.6C25.5,1.1,2.3,25.9,2.3,26.0z" fill="#e7d299" transform="translate(-0.006100,-0.001800)"/><path id="shape94" fill-rule="nonzero" d="M1.9,26.2L.0,2.8C.0,2.8,-0.2,2.0,1.1,1.8C2.4,1.6,8.2,.6,8.2,.6C8.2,.6,8.8,.2,9.0,1.7C9.0,2.7,9.6,2.6,10.1,2.5C10.6,2.4,24.9,.0,24.9,.0C24.9,.0,25.2,.0,25.2,.7C25.2,1.5,24.3,17.8,24.3,17.8L1.9,26.2z" fill="url(#lg1)" transform="translate(0.413700,0.224800)"/><path id="shape95" fill-rule="nonzero" d="M.0,23.3L.3,4.0L22.5,.0L.0,23.3z" fill-opacity="0.55" fill="#ffffff" transform="translate(3.352700,2.457700)"/><path id="shape96" fill-rule="nonzero" d="M.8,24.2L.0,4.8L23.9,.0L22.7,16.3L.8,24.2z" stroke="#bcbcbc" stroke-width="1" fill="#fcfcfc" transform="translate(1.708000,1.448900)"/><path id="shape97" fill-rule="nonzero" d="M1.8,4.9L.0,23.6C.0,23.6,22.0,16.2,21.9,16.2C21.8,16.1,25.1,.0,25.1,.0L1.8,4.9z" stroke="#a0a0a0" stroke-width="1" fill="#fcfcfc" transform="translate(2.625300,1.993600)"/><path id="shape98" fill-rule="nonzero" d="M3.5,4.6L.0,22.8L21.6,15.0L25.7,.0L3.5,4.6z" stroke="#a0a0a0" stroke-width="1" fill="#fcfcfc" transform="translate(3.352700,2.920600)"/><path id="shape99" fill-rule="nonzero" d="M.2,22.8L.0,22.9L3.1,8.8C3.1,8.8,3.3,7.9,4.1,7.6C4.8,7.4,11.3,6.0,11.3,6.0C11.3,6.0,11.9,5.8,11.9,4.7C12.0,3.5,12.9,3.3,12.9,3.3L28.2,.0L28.6,.2L9.4,8.2L.2,22.8z" fill="#e7d299" transform="translate(2.403000,3.557900)"/><path id="shape100" fill-rule="nonzero" d="M.1,22.2C.1,22.2,.2,22.7,.3,22.6C.6,22.5,3.5,9.4,3.8,8.8C4.0,8.2,4.2,7.9,4.9,7.7C5.7,7.5,11.9,6.1,11.9,6.1C11.9,6.1,12.3,6.1,12.4,5.2C12.6,4.3,12.5,3.6,13.5,3.3C14.5,3.1,28.7,-0.2,28.8,.0C28.9,.2,29.1,.3,29.0,.9C28.8,1.6,23.1,14.4,23.1,14.4C23.1,14.4,23.1,14.9,22.6,14.9C22.1,15.0,.4,23.0,.4,23.0C.4,23.0,-0.2,22.9,.1,22.2z" fill="url(#lg2)" transform="translate(2.167500,3.750300)"/><path id="shape101" d="M224.2,342.7L224.2,342.7z" stroke="#000000" stroke-width="1" fill="none" transform="translate(26.500663,3.542605)"/><path id="shape102" fill-rule="nonzero" d="M14.4,2.0C14.4,2.0,23.9,-0.1,24.0,.0C24.1,.3,24.3,.4,24.1,1.0C24.0,1.6,18.3,14.4,18.3,14.4C18.3,14.4,18.3,14.8,17.7,14.9C17.2,15.0,.0,21.4,.0,21.4L14.4,2.0z" fill="url(#lg3)" transform="translate(7.008500,3.774500)"/><text xml:space="preserve" style="fill:#191919;font-family:Arial;font-size:9.60pt;font-weight:bold"><tspan x="11.0" y="42.7">ui</tspan></text></g><g id="shape103" transform="translate(308.945000,117.986000)"><path d="M.0,.0L-28.0,.0L-28.0,49.0L29.0,49.0" stroke="#191919" stroke-width="1" fill="none"/><path stroke-linecap="round" d="M29.0,46.0L35.0,49.0L29.0,52.0L29.0,46.0" stroke-width="1" stroke="#191919" fill="#191919"/></g><g id="group104" transform="translate(340.339500,480.877500)"><path id="shape105" fill-rule="nonzero" d="M2.3,26.0L2.2,26.4C2.2,26.4,2.0,25.9,2.0,25.4C2.0,24.9,.0,2.9,.0,2.9C.0,2.9,.1,2.0,1.2,1.8C2.2,1.6,8.5,.6,8.9,.6C9.6,.7,9.4,2.5,9.8,2.5C10.2,2.5,25.3,.0,25.3,.0C25.3,.0,25.6,-0.1,25.5,.6C25.5,1.1,2.3,25.9,2.3,26.0z" fill="#e7d299" transform="translate(-0.006100,-0.001800)"/><path id="shape106" fill-rule="nonzero" d="M1.9,26.2L.0,2.8C.0,2.8,-0.2,2.0,1.1,1.8C2.4,1.6,8.2,.6,8.2,.6C8.2,.6,8.8,.2,9.0,1.7C9.0,2.7,9.6,2.6,10.1,2.5C10.6,2.4,24.9,.0,24.9,.0C24.9,.0,25.2,.0,25.2,.7C25.2,1.5,24.3,17.8,24.3,17.8L1.9,26.2z" fill="url(#lg1)" transform="translate(0.413700,0.224800)"/><path id="shape107" fill-rule="nonzero" d="M.0,23.3L.3,4.0L22.5,.0L.0,23.3z" fill-opacity="0.55" fill="#ffffff" transform="translate(3.352700,2.457700)"/><path id="shape108" fill-rule="nonzero" d="M.8,24.2L.0,4.8L23.9,.0L22.7,16.3L.8,24.2z" stroke="#bcbcbc" stroke-width="1" fill="#fcfcfc" transform="translate(1.708000,1.448900)"/><path id="shape109" fill-rule="nonzero" d="M1.8,4.9L.0,23.6C.0,23.6,22.0,16.2,21.9,16.2C21.8,16.1,25.1,.0,25.1,.0L1.8,4.9z" stroke="#a0a0a0" stroke-width="1" fill="#fcfcfc" transform="translate(2.625300,1.993600)"/><path id="shape110" fill-rule="nonzero" d="M3.5,4.6L.0,22.8L21.6,15.0L25.7,.0L3.5,4.6z" stroke="#a0a0a0" stroke-width="1" fill="#fcfcfc" transform="translate(3.352700,2.920600)"/><path id="shape111" fill-rule="nonzero" d="M.2,22.8L.0,22.9L3.1,8.8C3.1,8.8,3.3,7.9,4.1,7.6C4.8,7.4,11.3,6.0,11.3,6.0C11.3,6.0,11.9,5.8,11.9,4.7C12.0,3.5,12.9,3.3,12.9,3.3L28.2,.0L28.6,.2L9.4,8.2L.2,22.8z" fill="#e7d299" transform="translate(2.403000,3.557900)"/><path id="shape112" fill-rule="nonzero" d="M.1,22.2C.1,22.2,.2,22.7,.3,22.6C.6,22.5,3.5,9.4,3.8,8.8C4.0,8.2,4.2,7.9,4.9,7.7C5.7,7.5,11.9,6.1,11.9,6.1C11.9,6.1,12.3,6.1,12.4,5.2C12.6,4.3,12.5,3.6,13.5,3.3C14.5,3.1,28.7,-0.2,28.8,.0C28.9,.2,29.1,.3,29.0,.9C28.8,1.6,23.1,14.4,23.1,14.4C23.1,14.4,23.1,14.9,22.6,14.9C22.1,15.0,.4,23.0,.4,23.0C.4,23.0,-0.2,22.9,.1,22.2z" fill="url(#lg2)" transform="translate(2.167500,3.750300)"/><path id="shape113" d="M224.2,342.7L224.2,342.7z" stroke="#000000" stroke-width="1" fill="none" transform="translate(26.500663,3.542605)"/><path id="shape114" fill-rule="nonzero" d="M14.4,2.0C14.4,2.0,23.9,-0.1,24.0,.0C24.1,.3,24.3,.4,24.1,1.0C24.0,1.6,18.3,14.4,18.3,14.4C18.3,14.4,18.3,14.8,17.7,14.9C17.2,15.0,.0,21.4,.0,21.4L14.4,2.0z" fill="url(#lg3)" transform="translate(7.008500,3.774500)"/><text xml:space="preserve" style="fill:#191919;font-family:Arial;font-size:9.60pt;font-weight:bold"><tspan x="-3.4" y="42.7">assets</tspan></text></g><g id="group115" transform="translate(340.000500,536.251500)"><path id="shape116" fill-rule="nonzero" d="M2.3,26.0L2.2,26.4C2.2,26.4,2.0,25.9,2.0,25.4C2.0,24.9,.0,2.9,.0,2.9C.0,2.9,.1,2.0,1.2,1.8C2.2,1.6,8.5,.6,8.9,.6C9.6,.7,9.4,2.5,9.8,2.5C10.2,2.5,25.3,.0,25.3,.0C25.3,.0,25.6,-0.1,25.5,.6C25.5,1.1,2.3,25.9,2.3,26.0z" fill="#e7d299" transform="translate(-0.006100,-0.001800)"/><path id="shape117" fill-rule="nonzero" d="M1.9,26.2L.0,2.8C.0,2.8,-0.2,2.0,1.1,1.8C2.4,1.6,8.2,.6,8.2,.6C8.2,.6,8.8,.2,9.0,1.7C9.0,2.7,9.6,2.6,10.1,2.5C10.6,2.4,24.9,.0,24.9,.0C24.9,.0,25.2,.0,25.2,.7C25.2,1.5,24.3,17.8,24.3,17.8L1.9,26.2z" fill="url(#lg1)" transform="translate(0.413700,0.224800)"/><path id="shape118" fill-rule="nonzero" d="M.0,23.3L.3,4.0L22.5,.0L.0,23.3z" fill-opacity="0.55" fill="#ffffff" transform="translate(3.352700,2.457700)"/><path id="shape119" fill-rule="nonzero" d="M.8,24.2L.0,4.8L23.9,.0L22.7,16.3L.8,24.2z" stroke="#bcbcbc" stroke-width="1" fill="#fcfcfc" transform="translate(1.708000,1.448900)"/><path id="shape120" fill-rule="nonzero" d="M1.8,4.9L.0,23.6C.0,23.6,22.0,16.2,21.9,16.2C21.8,16.1,25.1,.0,25.1,.0L1.8,4.9z" stroke="#a0a0a0" stroke-width="1" fill="#fcfcfc" transform="translate(2.625300,1.993600)"/><path id="shape121" fill-rule="nonzero" d="M3.5,4.6L.0,22.8L21.6,15.0L25.7,.0L3.5,4.6z" stroke="#a0a0a0" stroke-width="1" fill="#fcfcfc" transform="translate(3.352700,2.920600)"/><path id="shape122" fill-rule="nonzero" d="M.2,22.8L.0,22.9L3.1,8.8C3.1,8.8,3.3,7.9,4.1,7.6C4.8,7.4,11.3,6.0,11.3,6.0C11.3,6.0,11.9,5.8,11.9,4.7C12.0,3.5,12.9,3.3,12.9,3.3L28.2,.0L28.6,.2L9.4,8.2L.2,22.8z" fill="#e7d299" transform="translate(2.403000,3.557900)"/><path id="shape123" fill-rule="nonzero" d="M.1,22.2C.1,22.2,.2,22.7,.3,22.6C.6,22.5,3.5,9.4,3.8,8.8C4.0,8.2,4.2,7.9,4.9,7.7C5.7,7.5,11.9,6.1,11.9,6.1C11.9,6.1,12.3,6.1,12.4,5.2C12.6,4.3,12.5,3.6,13.5,3.3C14.5,3.1,28.7,-0.2,28.8,.0C28.9,.2,29.1,.3,29.0,.9C28.8,1.6,23.1,14.4,23.1,14.4C23.1,14.4,23.1,14.9,22.6,14.9C22.1,15.0,.4,23.0,.4,23.0C.4,23.0,-0.2,22.9,.1,22.2z" fill="url(#lg2)" transform="translate(2.167500,3.750300)"/><path id="shape124" d="M224.2,342.7L224.2,342.7z" stroke="#000000" stroke-width="1" fill="none" transform="translate(26.500663,3.542605)"/><path id="shape125" fill-rule="nonzero" d="M14.4,2.0C14.4,2.0,23.9,-0.1,24.0,.0C24.1,.3,24.3,.4,24.1,1.0C24.0,1.6,18.3,14.4,18.3,14.4C18.3,14.4,18.3,14.8,17.7,14.9C17.2,15.0,.0,21.4,.0,21.4L14.4,2.0z" fill="url(#lg3)" transform="translate(7.008500,3.774500)"/><text xml:space="preserve" style="fill:#191919;font-family:Arial;font-size:9.60pt;font-weight:bold"><tspan x="-21.8" y="42.7">components</tspan></text></g><g id="shape126" transform="translate(278.677000,74.692200)"><path d="M.0,.0L-28.0,.0L-28.0,232.0L25.0,232.0" stroke="#191919" stroke-width="1" fill="none"/><path stroke-linecap="round" d="M25.0,229.0L31.0,232.0L25.0,235.0L25.0,229.0" stroke-width="1" stroke="#191919" fill="#191919"/></g><g id="shape127" transform="translate(278.677000,74.692200)"><path d="M.0,.0L-28.0,.0L-28.0,280.0L25.0,280.0" stroke="#191919" stroke-width="1" fill="none"/><path stroke-linecap="round" d="M25.0,277.0L31.0,280.0L25.0,283.0L25.0,277.0" stroke-width="1" stroke="#191919" fill="#191919"/></g><g id="shape128" transform="translate(278.677000,74.692200)"><path d="M.0,.0L-28.0,.0L-28.0,328.0L25.0,328.0" stroke="#191919" stroke-width="1" fill="none"/><path stroke-linecap="round" d="M25.0,325.0L31.0,328.0L25.0,331.0L25.0,325.0" stroke-width="1" stroke="#191919" fill="#191919"/></g><g id="shape129" transform="translate(278.677000,74.692200)"><path d="M.0,.0L-28.0,.0L-28.0,377.0L25.0,377.0" stroke="#191919" stroke-width="1" fill="none"/><path stroke-linecap="round" d="M25.0,374.0L31.0,377.0L25.0,380.0L25.0,374.0" stroke-width="1" stroke="#191919" fill="#191919"/></g><g id="shape130" transform="translate(309.809000,452.158000)"><path d="M.0,.0L-28.0,.0L-28.0,42.0L25.0,42.0" stroke="#191919" stroke-width="1" fill="none"/><path stroke-linecap="round" d="M25.0,39.0L31.0,42.0L25.0,45.0L25.0,39.0" stroke-width="1" stroke="#191919" fill="#191919"/></g><g id="shape131" transform="translate(309.809000,452.158000)"><path d="M.0,.0L-28.0,.0L-28.0,97.5L24.2,97.5" stroke="#191919" stroke-width="1" fill="none"/><path stroke-linecap="round" d="M24.2,94.5L30.2,97.5L24.2,100.5L24.2,94.5" stroke-width="1" stroke="#191919" fill="#191919"/></g><g id="group132" transform="translate(389.570500,589.625500)"><path id="shape133" fill-rule="nonzero" d="M2.3,26.0L2.2,26.4C2.2,26.4,2.0,25.9,2.0,25.4C2.0,24.9,.0,2.9,.0,2.9C.0,2.9,.1,2.0,1.2,1.8C2.2,1.6,8.5,.6,8.9,.6C9.6,.7,9.4,2.5,9.8,2.5C10.2,2.5,25.3,.0,25.3,.0C25.3,.0,25.6,-0.1,25.5,.6C25.5,1.1,2.3,25.9,2.3,26.0z" fill="#e7d299" transform="translate(-0.006100,-0.001800)"/><path id="shape134" fill-rule="nonzero" d="M1.9,26.2L.0,2.8C.0,2.8,-0.2,2.0,1.1,1.8C2.4,1.6,8.2,.6,8.2,.6C8.2,.6,8.8,.2,9.0,1.7C9.0,2.7,9.6,2.6,10.1,2.5C10.6,2.4,24.9,.0,24.9,.0C24.9,.0,25.2,.0,25.2,.7C25.2,1.5,24.3,17.8,24.3,17.8L1.9,26.2z" fill="url(#lg1)" transform="translate(0.413700,0.224800)"/><path id="shape135" fill-rule="nonzero" d="M.0,23.3L.3,4.0L22.5,.0L.0,23.3z" fill-opacity="0.55" fill="#ffffff" transform="translate(3.352700,2.457700)"/><path id="shape136" fill-rule="nonzero" d="M.8,24.2L.0,4.8L23.9,.0L22.7,16.3L.8,24.2z" stroke="#bcbcbc" stroke-width="1" fill="#fcfcfc" transform="translate(1.708000,1.448900)"/><path id="shape137" fill-rule="nonzero" d="M1.8,4.9L.0,23.6C.0,23.6,22.0,16.2,21.9,16.2C21.8,16.1,25.1,.0,25.1,.0L1.8,4.9z" stroke="#a0a0a0" stroke-width="1" fill="#fcfcfc" transform="translate(2.625300,1.993600)"/><path id="shape138" fill-rule="nonzero" d="M3.5,4.6L.0,22.8L21.6,15.0L25.7,.0L3.5,4.6z" stroke="#a0a0a0" stroke-width="1" fill="#fcfcfc" transform="translate(3.352700,2.920600)"/><path id="shape139" fill-rule="nonzero" d="M.2,22.8L.0,22.9L3.1,8.8C3.1,8.8,3.3,7.9,4.1,7.6C4.8,7.4,11.3,6.0,11.3,6.0C11.3,6.0,11.9,5.8,11.9,4.7C12.0,3.5,12.9,3.3,12.9,3.3L28.2,.0L28.6,.2L9.4,8.2L.2,22.8z" fill="#e7d299" transform="translate(2.403000,3.557900)"/><path id="shape140" fill-rule="nonzero" d="M.1,22.2C.1,22.2,.2,22.7,.3,22.6C.6,22.5,3.5,9.4,3.8,8.8C4.0,8.2,4.2,7.9,4.9,7.7C5.7,7.5,11.9,6.1,11.9,6.1C11.9,6.1,12.3,6.1,12.4,5.2C12.6,4.3,12.5,3.6,13.5,3.3C14.5,3.1,28.7,-0.2,28.8,.0C28.9,.2,29.1,.3,29.0,.9C28.8,1.6,23.1,14.4,23.1,14.4C23.1,14.4,23.1,14.9,22.6,14.9C22.1,15.0,.4,23.0,.4,23.0C.4,23.0,-0.2,22.9,.1,22.2z" fill="url(#lg2)" transform="translate(2.167500,3.750300)"/><path id="shape141" d="M224.2,342.7L224.2,342.7z" stroke="#000000" stroke-width="1" fill="none" transform="translate(26.500663,3.542605)"/><path id="shape142" fill-rule="nonzero" d="M14.4,2.0C14.4,2.0,23.9,-0.1,24.0,.0C24.1,.3,24.3,.4,24.1,1.0C24.0,1.6,18.3,14.4,18.3,14.4C18.3,14.4,18.3,14.8,17.7,14.9C17.2,15.0,.0,21.4,.0,21.4L14.4,2.0z" fill="url(#lg3)" transform="translate(7.008500,3.774500)"/><text xml:space="preserve" style="fill:#191919;font-family:Arial;font-size:9.60pt;font-weight:bold"><tspan x="-6.2" y="42.7">generic</tspan></text></g><g id="group143" transform="translate(389.570500,642.340500)"><path id="shape144" fill-rule="nonzero" d="M2.3,26.0L2.2,26.4C2.2,26.4,2.0,25.9,2.0,25.4C2.0,24.9,.0,2.9,.0,2.9C.0,2.9,.1,2.0,1.2,1.8C2.2,1.6,8.5,.6,8.9,.6C9.6,.7,9.4,2.5,9.8,2.5C10.2,2.5,25.3,.0,25.3,.0C25.3,.0,25.6,-0.1,25.5,.6C25.5,1.1,2.3,25.9,2.3,26.0z" fill="#e7d299" transform="translate(-0.006100,-0.001800)"/><path id="shape145" fill-rule="nonzero" d="M1.9,26.2L.0,2.8C.0,2.8,-0.2,2.0,1.1,1.8C2.4,1.6,8.2,.6,8.2,.6C8.2,.6,8.8,.2,9.0,1.7C9.0,2.7,9.6,2.6,10.1,2.5C10.6,2.4,24.9,.0,24.9,.0C24.9,.0,25.2,.0,25.2,.7C25.2,1.5,24.3,17.8,24.3,17.8L1.9,26.2z" fill="url(#lg1)" transform="translate(0.413700,0.224800)"/><path id="shape146" fill-rule="nonzero" d="M.0,23.3L.3,4.0L22.5,.0L.0,23.3z" fill-opacity="0.55" fill="#ffffff" transform="translate(3.352700,2.457700)"/><path id="shape147" fill-rule="nonzero" d="M.8,24.2L.0,4.8L23.9,.0L22.7,16.3L.8,24.2z" stroke="#bcbcbc" stroke-width="1" fill="#fcfcfc" transform="translate(1.708000,1.448900)"/><path id="shape148" fill-rule="nonzero" d="M1.8,4.9L.0,23.6C.0,23.6,22.0,16.2,21.9,16.2C21.8,16.1,25.1,.0,25.1,.0L1.8,4.9z" stroke="#a0a0a0" stroke-width="1" fill="#fcfcfc" transform="translate(2.625300,1.993600)"/><path id="shape149" fill-rule="nonzero" d="M3.5,4.6L.0,22.8L21.6,15.0L25.7,.0L3.5,4.6z" stroke="#a0a0a0" stroke-width="1" fill="#fcfcfc" transform="translate(3.352700,2.920600)"/><path id="shape150" fill-rule="nonzero" d="M.2,22.8L.0,22.9L3.1,8.8C3.1,8.8,3.3,7.9,4.1,7.6C4.8,7.4,11.3,6.0,11.3,6.0C11.3,6.0,11.9,5.8,11.9,4.7C12.0,3.5,12.9,3.3,12.9,3.3L28.2,.0L28.6,.2L9.4,8.2L.2,22.8z" fill="#e7d299" transform="translate(2.403000,3.557900)"/><path id="shape151" fill-rule="nonzero" d="M.1,22.2C.1,22.2,.2,22.7,.3,22.6C.6,22.5,3.5,9.4,3.8,8.8C4.0,8.2,4.2,7.9,4.9,7.7C5.7,7.5,11.9,6.1,11.9,6.1C11.9,6.1,12.3,6.1,12.4,5.2C12.6,4.3,12.5,3.6,13.5,3.3C14.5,3.1,28.7,-0.2,28.8,.0C28.9,.2,29.1,.3,29.0,.9C28.8,1.6,23.1,14.4,23.1,14.4C23.1,14.4,23.1,14.9,22.6,14.9C22.1,15.0,.4,23.0,.4,23.0C.4,23.0,-0.2,22.9,.1,22.2z" fill="url(#lg2)" transform="translate(2.167500,3.750300)"/><path id="shape152" d="M224.2,342.7L224.2,342.7z" stroke="#000000" stroke-width="1" fill="none" transform="translate(26.500663,3.542605)"/><path id="shape153" fill-rule="nonzero" d="M14.4,2.0C14.4,2.0,23.9,-0.1,24.0,.0C24.1,.3,24.3,.4,24.1,1.0C24.0,1.6,18.3,14.4,18.3,14.4C18.3,14.4,18.3,14.8,17.7,14.9C17.2,15.0,.0,21.4,.0,21.4L14.4,2.0z" fill="url(#lg3)" transform="translate(7.008500,3.774500)"/><text xml:space="preserve" style="fill:#191919;font-family:Arial;font-size:9.60pt;font-weight:bold"><tspan x="-0.6" y="42.7">home</tspan></text></g><g id="group154" transform="translate(422.999500,690.251500)"><path id="shape155" fill-rule="nonzero" d="M2.3,26.0L2.2,26.4C2.2,26.4,2.0,25.9,2.0,25.4C2.0,24.9,.0,2.9,.0,2.9C.0,2.9,.1,2.0,1.2,1.8C2.2,1.6,8.5,.6,8.9,.6C9.6,.7,9.4,2.5,9.8,2.5C10.2,2.5,25.3,.0,25.3,.0C25.3,.0,25.6,-0.1,25.5,.6C25.5,1.1,2.3,25.9,2.3,26.0z" fill="#e7d299" transform="translate(-0.006100,-0.001800)"/><path id="shape156" fill-rule="nonzero" d="M1.9,26.2L.0,2.8C.0,2.8,-0.2,2.0,1.1,1.8C2.4,1.6,8.2,.6,8.2,.6C8.2,.6,8.8,.2,9.0,1.7C9.0,2.7,9.6,2.6,10.1,2.5C10.6,2.4,24.9,.0,24.9,.0C24.9,.0,25.2,.0,25.2,.7C25.2,1.5,24.3,17.8,24.3,17.8L1.9,26.2z" fill="url(#lg1)" transform="translate(0.413700,0.224800)"/><path id="shape157" fill-rule="nonzero" d="M.0,23.3L.3,4.0L22.5,.0L.0,23.3z" fill-opacity="0.55" fill="#ffffff" transform="translate(3.352700,2.457700)"/><path id="shape158" fill-rule="nonzero" d="M.8,24.2L.0,4.8L23.9,.0L22.7,16.3L.8,24.2z" stroke="#bcbcbc" stroke-width="1" fill="#fcfcfc" transform="translate(1.708000,1.448900)"/><path id="shape159" fill-rule="nonzero" d="M1.8,4.9L.0,23.6C.0,23.6,22.0,16.2,21.9,16.2C21.8,16.1,25.1,.0,25.1,.0L1.8,4.9z" stroke="#a0a0a0" stroke-width="1" fill="#fcfcfc" transform="translate(2.625300,1.993600)"/><path id="shape160" fill-rule="nonzero" d="M3.5,4.6L.0,22.8L21.6,15.0L25.7,.0L3.5,4.6z" stroke="#a0a0a0" stroke-width="1" fill="#fcfcfc" transform="translate(3.352700,2.920600)"/><path id="shape161" fill-rule="nonzero" d="M.2,22.8L.0,22.9L3.1,8.8C3.1,8.8,3.3,7.9,4.1,7.6C4.8,7.4,11.3,6.0,11.3,6.0C11.3,6.0,11.9,5.8,11.9,4.7C12.0,3.5,12.9,3.3,12.9,3.3L28.2,.0L28.6,.2L9.4,8.2L.2,22.8z" fill="#e7d299" transform="translate(2.403000,3.557900)"/><path id="shape162" fill-rule="nonzero" d="M.1,22.2C.1,22.2,.2,22.7,.3,22.6C.6,22.5,3.5,9.4,3.8,8.8C4.0,8.2,4.2,7.9,4.9,7.7C5.7,7.5,11.9,6.1,11.9,6.1C11.9,6.1,12.3,6.1,12.4,5.2C12.6,4.3,12.5,3.6,13.5,3.3C14.5,3.1,28.7,-0.2,28.8,.0C28.9,.2,29.1,.3,29.0,.9C28.8,1.6,23.1,14.4,23.1,14.4C23.1,14.4,23.1,14.9,22.6,14.9C22.1,15.0,.4,23.0,.4,23.0C.4,23.0,-0.2,22.9,.1,22.2z" fill="url(#lg2)" transform="translate(2.167500,3.750300)"/><path id="shape163" d="M224.2,342.7L224.2,342.7z" stroke="#000000" stroke-width="1" fill="none" transform="translate(26.500663,3.542605)"/><path id="shape164" fill-rule="nonzero" d="M14.4,2.0C14.4,2.0,23.9,-0.1,24.0,.0C24.1,.3,24.3,.4,24.1,1.0C24.0,1.6,18.3,14.4,18.3,14.4C18.3,14.4,18.3,14.8,17.7,14.9C17.2,15.0,.0,21.4,.0,21.4L14.4,2.0z" fill="url(#lg3)" transform="translate(7.008500,3.774500)"/><text xml:space="preserve" style="fill:#191919;font-family:Arial;font-size:9.60pt;font-weight:bold"><tspan x="-9.8" y="42.7">modules</tspan></text></g><g id="group165" transform="translate(422.999500,748.625500)"><path id="shape166" fill-rule="nonzero" d="M2.3,26.0L2.2,26.4C2.2,26.4,2.0,25.9,2.0,25.4C2.0,24.9,.0,2.9,.0,2.9C.0,2.9,.1,2.0,1.2,1.8C2.2,1.6,8.5,.6,8.9,.6C9.6,.7,9.4,2.5,9.8,2.5C10.2,2.5,25.3,.0,25.3,.0C25.3,.0,25.6,-0.1,25.5,.6C25.5,1.1,2.3,25.9,2.3,26.0z" fill="#e7d299" transform="translate(-0.006100,-0.001800)"/><path id="shape167" fill-rule="nonzero" d="M1.9,26.2L.0,2.8C.0,2.8,-0.2,2.0,1.1,1.8C2.4,1.6,8.2,.6,8.2,.6C8.2,.6,8.8,.2,9.0,1.7C9.0,2.7,9.6,2.6,10.1,2.5C10.6,2.4,24.9,.0,24.9,.0C24.9,.0,25.2,.0,25.2,.7C25.2,1.5,24.3,17.8,24.3,17.8L1.9,26.2z" fill="url(#lg1)" transform="translate(0.413700,0.224800)"/><path id="shape168" fill-rule="nonzero" d="M.0,23.3L.3,4.0L22.5,.0L.0,23.3z" fill-opacity="0.55" fill="#ffffff" transform="translate(3.352700,2.457700)"/><path id="shape169" fill-rule="nonzero" d="M.8,24.2L.0,4.8L23.9,.0L22.7,16.3L.8,24.2z" stroke="#bcbcbc" stroke-width="1" fill="#fcfcfc" transform="translate(1.708000,1.448900)"/><path id="shape170" fill-rule="nonzero" d="M1.8,4.9L.0,23.6C.0,23.6,22.0,16.2,21.9,16.2C21.8,16.1,25.1,.0,25.1,.0L1.8,4.9z" stroke="#a0a0a0" stroke-width="1" fill="#fcfcfc" transform="translate(2.625300,1.993600)"/><path id="shape171" fill-rule="nonzero" d="M3.5,4.6L.0,22.8L21.6,15.0L25.7,.0L3.5,4.6z" stroke="#a0a0a0" stroke-width="1" fill="#fcfcfc" transform="translate(3.352700,2.920600)"/><path id="shape172" fill-rule="nonzero" d="M.2,22.8L.0,22.9L3.1,8.8C3.1,8.8,3.3,7.9,4.1,7.6C4.8,7.4,11.3,6.0,11.3,6.0C11.3,6.0,11.9,5.8,11.9,4.7C12.0,3.5,12.9,3.3,12.9,3.3L28.2,.0L28.6,.2L9.4,8.2L.2,22.8z" fill="#e7d299" transform="translate(2.403000,3.557900)"/><path id="shape173" fill-rule="nonzero" d="M.1,22.2C.1,22.2,.2,22.7,.3,22.6C.6,22.5,3.5,9.4,3.8,8.8C4.0,8.2,4.2,7.9,4.9,7.7C5.7,7.5,11.9,6.1,11.9,6.1C11.9,6.1,12.3,6.1,12.4,5.2C12.6,4.3,12.5,3.6,13.5,3.3C14.5,3.1,28.7,-0.2,28.8,.0C28.9,.2,29.1,.3,29.0,.9C28.8,1.6,23.1,14.4,23.1,14.4C23.1,14.4,23.1,14.9,22.6,14.9C22.1,15.0,.4,23.0,.4,23.0C.4,23.0,-0.2,22.9,.1,22.2z" fill="url(#lg2)" transform="translate(2.167500,3.750300)"/><path id="shape174" d="M224.2,342.7L224.2,342.7z" stroke="#000000" stroke-width="1" fill="none" transform="translate(26.500663,3.542605)"/><path id="shape175" fill-rule="nonzero" d="M14.4,2.0C14.4,2.0,23.9,-0.1,24.0,.0C24.1,.3,24.3,.4,24.1,1.0C24.0,1.6,18.3,14.4,18.3,14.4C18.3,14.4,18.3,14.8,17.7,14.9C17.2,15.0,.0,21.4,.0,21.4L14.4,2.0z" fill="url(#lg3)" transform="translate(7.008500,3.774500)"/><text xml:space="preserve" style="fill:#191919;font-family:Arial;font-size:9.60pt;font-weight:bold"><tspan x="-5.8" y="42.7">partials</tspan></text></g><g id="group176" transform="translate(309.809500,794.778500)"><path id="shape177" fill-rule="nonzero" d="M2.3,26.0L2.2,26.4C2.2,26.4,2.0,25.9,2.0,25.4C2.0,24.9,.0,2.9,.0,2.9C.0,2.9,.1,2.0,1.2,1.8C2.2,1.6,8.5,.6,8.9,.6C9.6,.7,9.4,2.5,9.8,2.5C10.2,2.5,25.3,.0,25.3,.0C25.3,.0,25.6,-0.1,25.5,.6C25.5,1.1,2.3,25.9,2.3,26.0z" fill="#e7d299" transform="translate(-0.006100,-0.001800)"/><path id="shape178" fill-rule="nonzero" d="M1.9,26.2L.0,2.8C.0,2.8,-0.2,2.0,1.1,1.8C2.4,1.6,8.2,.6,8.2,.6C8.2,.6,8.8,.2,9.0,1.7C9.0,2.7,9.6,2.6,10.1,2.5C10.6,2.4,24.9,.0,24.9,.0C24.9,.0,25.2,.0,25.2,.7C25.2,1.5,24.3,17.8,24.3,17.8L1.9,26.2z" fill="url(#lg1)" transform="translate(0.413700,0.224800)"/><path id="shape179" fill-rule="nonzero" d="M.0,23.3L.3,4.0L22.5,.0L.0,23.3z" fill-opacity="0.55" fill="#ffffff" transform="translate(3.352700,2.457700)"/><path id="shape180" fill-rule="nonzero" d="M.8,24.2L.0,4.8L23.9,.0L22.7,16.3L.8,24.2z" stroke="#bcbcbc" stroke-width="1" fill="#fcfcfc" transform="translate(1.708000,1.448900)"/><path id="shape181" fill-rule="nonzero" d="M1.8,4.9L.0,23.6C.0,23.6,22.0,16.2,21.9,16.2C21.8,16.1,25.1,.0,25.1,.0L1.8,4.9z" stroke="#a0a0a0" stroke-width="1" fill="#fcfcfc" transform="translate(2.625300,1.993600)"/><path id="shape182" fill-rule="nonzero" d="M3.5,4.6L.0,22.8L21.6,15.0L25.7,.0L3.5,4.6z" stroke="#a0a0a0" stroke-width="1" fill="#fcfcfc" transform="translate(3.352700,2.920600)"/><path id="shape183" fill-rule="nonzero" d="M.2,22.8L.0,22.9L3.1,8.8C3.1,8.8,3.3,7.9,4.1,7.6C4.8,7.4,11.3,6.0,11.3,6.0C11.3,6.0,11.9,5.8,11.9,4.7C12.0,3.5,12.9,3.3,12.9,3.3L28.2,.0L28.6,.2L9.4,8.2L.2,22.8z" fill="#e7d299" transform="translate(2.403000,3.557900)"/><path id="shape184" fill-rule="nonzero" d="M.1,22.2C.1,22.2,.2,22.7,.3,22.6C.6,22.5,3.5,9.4,3.8,8.8C4.0,8.2,4.2,7.9,4.9,7.7C5.7,7.5,11.9,6.1,11.9,6.1C11.9,6.1,12.3,6.1,12.4,5.2C12.6,4.3,12.5,3.6,13.5,3.3C14.5,3.1,28.7,-0.2,28.8,.0C28.9,.2,29.1,.3,29.0,.9C28.8,1.6,23.1,14.4,23.1,14.4C23.1,14.4,23.1,14.9,22.6,14.9C22.1,15.0,.4,23.0,.4,23.0C.4,23.0,-0.2,22.9,.1,22.2z" fill="url(#lg2)" transform="translate(2.167500,3.750300)"/><path id="shape185" d="M224.2,342.7L224.2,342.7z" stroke="#000000" stroke-width="1" fill="none" transform="translate(26.500663,3.542605)"/><path id="shape186" fill-rule="nonzero" d="M14.4,2.0C14.4,2.0,23.9,-0.1,24.0,.0C24.1,.3,24.3,.4,24.1,1.0C24.0,1.6,18.3,14.4,18.3,14.4C18.3,14.4,18.3,14.8,17.7,14.9C17.2,15.0,.0,21.4,.0,21.4L14.4,2.0z" fill="url(#lg3)" transform="translate(7.008500,3.774500)"/><text xml:space="preserve" style="fill:#191919;font-family:Arial;font-size:9.60pt;font-weight:bold"><tspan x="-1.4" y="42.7">styles</tspan></text></g><g id="shape187" transform="translate(278.677000,74.692200)"><path d="M.0,.0L-28.0,.0L-28.0,733.0L25.0,733.0" stroke="#191919" stroke-width="1" fill="none"/><path stroke-linecap="round" d="M25.0,730.0L31.0,733.0L25.0,736.0L25.0,730.0" stroke-width="1" stroke="#191919" fill="#191919"/></g><g id="shape188" transform="translate(389.570000,655.715000)"><path d="M.0,.0L-28.0,.0L-28.0,48.0L28.0,48.0" stroke="#191919" stroke-width="1" fill="none"/><path stroke-linecap="round" d="M28.0,45.0L34.0,48.0L28.0,51.0L28.0,45.0" stroke-width="1" stroke="#191919" fill="#191919"/></g><g id="shape189" transform="translate(389.570000,655.715000)"><path d="M.0,.0L-28.0,.0L-28.0,106.0L28.0,106.0" stroke="#191919" stroke-width="1" fill="none"/><path stroke-linecap="round" d="M28.0,103.0L34.0,106.0L28.0,109.0L28.0,103.0" stroke-width="1" stroke="#191919" fill="#191919"/></g><g id="shape190" transform="translate(343.000000,167.000000)"><path d="M.0,.0L-28.0,.0L-28.0,45.0L26.0,45.0" stroke="#191919" stroke-width="1" fill="none"/><path stroke-linecap="round" d="M26.0,42.0L32.0,45.0L26.0,48.0L26.0,42.0" stroke-width="1" stroke="#191919" fill="#191919"/></g><g id="shape191" transform="translate(343.437000,167.011000)"><path d="M.0,.0L-28.0,.0L-28.0,95.0L26.0,95.0" stroke="#191919" stroke-width="1" fill="none"/><path stroke-linecap="round" d="M26.0,92.0L32.0,95.0L26.0,98.0L26.0,92.0" stroke-width="1" stroke="#191919" fill="#191919"/></g><g id="shape192" transform="translate(340.000000,549.626000)"><path d="M.0,.0L-29.0,.0L-29.0,53.0L43.0,53.0" stroke="#191919" stroke-width="1" fill="none"/><path stroke-linecap="round" d="M43.0,50.0L49.0,53.0L43.0,56.0L43.0,50.0" stroke-width="1" stroke="#191919" fill="#191919"/></g><g id="shape193" transform="translate(340.000000,549.626000)"><path d="M.0,.0L-29.0,.0L-29.0,106.0L43.0,106.0" stroke="#191919" stroke-width="1" fill="none"/><path stroke-linecap="round" d="M43.0,103.0L49.0,106.0L43.0,109.0L43.0,103.0" stroke-width="1" stroke="#191919" fill="#191919"/></g><g id="shape194" transform="translate(375.881000,153.636500)"><text xml:space="preserve" style="fill:#a66834;font-family:Arial;font-size:10.00pt;font-weight:bold"><tspan x="22.0" y="17.4">Typing of components and data used on the home page</tspan></text></g><g id="shape195" transform="translate(413.133000,199.295500)"><text xml:space="preserve" style="fill:#a66834;font-family:Arial;font-size:10.00pt;font-weight:bold"><tspan x="13.3" y="17.4">Data typing used in logic</tspan></text></g><g id="shape196" transform="translate(413.133000,246.469400)"><text xml:space="preserve" style="fill:#a66834;font-family:Arial;font-size:10.00pt;font-weight:bold"><tspan x="14.4" y="20.2">Typing used in graphic components</tspan></text></g><g id="shape197" transform="translate(343.437700,293.303400)"><text xml:space="preserve" style="fill:#a66834;font-family:Arial;font-size:10.00pt;font-weight:bold"><tspan x="15.2" y="20.2">Pages to display</tspan></text></g><g id="shape198" transform="translate(347.925000,341.778500)"><text xml:space="preserve" style="fill:#a66834;font-family:Arial;font-size:10.00pt;font-weight:bold"><tspan x="17.9" y="17.4">Reducers used in page data manipulation</tspan></text></g><g id="shape199" transform="translate(352.718300,387.796500)"><text xml:space="preserve" style="fill:#a66834;font-family:Arial;font-size:10.00pt;font-weight:bold"><tspan x="11.0" y="19.9">Access routes to pages</tspan></text></g><g id="shape200" transform="translate(359.000000,438.783500)"><text xml:space="preserve" style="fill:#a66834;font-family:Arial;font-size:10.00pt;font-weight:bold"><tspan x="7.2" y="17.4">Visual elements used on pages</tspan></text></g><g id="shape201" transform="translate(389.570000,492.301600)"><text xml:space="preserve" style="fill:#a66834;font-family:Arial;font-size:10.00pt;font-weight:bold"><tspan x="5.6" y="17.4">Images used in components</tspan></text></g><g id="shape202" transform="translate(389.570000,545.819600)"><text xml:space="preserve" style="fill:#a66834;font-family:Arial;font-size:10.00pt;font-weight:bold"><tspan x="16.7" y="17.4">Components used in page development</tspan></text></g><g id="shape203" transform="translate(435.000000,579.125600)"><text xml:space="preserve" style="fill:#a66834;font-family:Arial;font-size:10.00pt;font-weight:bold"><tspan x="3.2" y="20.0">General purpose component used to position items in </tspan><tspan x="3.2" y="36.0">more complex components</tspan></text></g><g id="shape204" transform="translate(445.000000,642.340500)"><text xml:space="preserve" style="fill:#a66834;font-family:Arial;font-size:10.00pt;font-weight:bold"><tspan x="3.2" y="17.4">Home page components</tspan></text></g><g id="shape205" transform="translate(472.000000,682.251600)"><text xml:space="preserve" style="fill:#a66834;font-family:Arial;font-size:10.00pt;font-weight:bold"><tspan x="3.2" y="28.0">Components of greater complexity that are used to create </tspan><tspan x="3.2" y="44.0">the final components of the home page</tspan></text></g><g id="shape206" transform="translate(472.000000,748.661600)"><text xml:space="preserve" style="fill:#a66834;font-family:Arial;font-size:10.00pt;font-weight:bold"><tspan x="3.2" y="20.0">Components used in the development of module </tspan><tspan x="3.2" y="36.0">components</tspan></text></g><g id="shape207" transform="translate(354.000000,804.251600)"><text xml:space="preserve" style="fill:#a66834;font-family:Arial;font-size:10.00pt;font-weight:bold"><tspan x="3.2" y="17.5">Color and font formatting styles</tspan></text></g></g></svg>