<svg xmlns:xlink="http://www.w3.org/1999/xlink" viewBox="0 0 604 787" width="604" height="787" xmlns="http://www.w3.org/2000/svg"><defs><linearGradient x1="0%" y2="100%" id="lg1" y1="0%" x2="0%"><stop stop-color="#d3a717" offset="0.36"/><stop stop-color="#a8830d" offset="1.00"/></linearGradient><linearGradient x1="0%" y2="100%" id="lg2" y1="0%" x2="0%"><stop stop-color="#d6b14f" offset="1.00"/><stop stop-color="#a98013" offset="1.00"/></linearGradient><linearGradient x1="0%" y2="0%" id="lg3" y1="0%" x2="100%"><stop stop-color="#ffffff" stop-opacity="0.12" offset="0.00"/><stop stop-color="#ffffff" stop-opacity="0.05" offset="0.55"/><stop stop-color="#ffffff" stop-opacity="0.02" offset="1.00"/></linearGradient></defs><g transform="translate(-245.68,-58.54)"><g id="group1" transform="translate(278.676753,61.317747)"><path d="M2.3,26.0L2.2,26.4C2.2,26.4,2.0,25.9,2.0,25.4C2.0,24.9,.0,2.9,.0,2.9C.0,2.9,.1,2.0,1.2,1.8C2.2,1.6,8.5,.6,8.9,.6C9.6,.7,9.4,2.5,9.8,2.5C10.2,2.5,25.3,.0,25.3,.0C25.3,.0,25.6,-0.1,25.5,.6C25.5,1.1,2.3,25.9,2.3,26.0z" fill-rule="nonzero" fill="#e7d299" id="shape2" transform="translate(-0.006085,-0.001859)"/><path d="M1.9,26.2L.0,2.8C.0,2.8,-0.2,2.0,1.1,1.8C2.4,1.6,8.2,.6,8.2,.6C8.2,.6,8.8,.2,9.0,1.7C9.0,2.7,9.6,2.6,10.1,2.5C10.6,2.4,24.9,.0,24.9,.0C24.9,.0,25.2,.0,25.2,.7C25.2,1.5,24.3,17.8,24.3,17.8L1.9,26.2z" fill-rule="nonzero" fill="url(#lg1)" id="shape3" transform="translate(0.413697,0.224825)"/><path d="M.0,23.3L.3,4.0L22.5,.0L.0,23.3z" fill-rule="nonzero" fill-opacity="0.55" fill="#ffffff" id="shape4" transform="translate(3.352779,2.457771)"/><path d="M.8,24.2L.0,4.8L23.9,.0L22.7,16.3L.8,24.2z" fill-rule="nonzero" stroke-width="1" fill="#fcfcfc" stroke="#bcbcbc" id="shape5" transform="translate(1.707963,1.448909)"/><path d="M1.8,4.9L.0,23.6C.0,23.6,22.0,16.2,21.9,16.2C21.8,16.1,25.1,.0,25.1,.0L1.8,4.9z" fill-rule="nonzero" stroke-width="1" fill="#fcfcfc" stroke="#a0a0a0" id="shape6" transform="translate(2.625249,1.993597)"/><path d="M3.5,4.6L.0,22.8L21.6,15.0L25.7,.0L3.5,4.6z" fill-rule="nonzero" stroke-width="1" fill="#fcfcfc" stroke="#a0a0a0" id="shape7" transform="translate(3.352701,2.920514)"/><path d="M.2,22.8L.0,22.9L3.1,8.8C3.1,8.8,3.3,7.9,4.1,7.6C4.8,7.4,11.3,6.0,11.3,6.0C11.3,6.0,11.9,5.8,11.9,4.7C12.0,3.5,12.9,3.3,12.9,3.3L28.2,.0L28.6,.2L9.4,8.2L.2,22.8z" fill-rule="nonzero" fill="#e7d299" id="shape8" transform="translate(2.402976,3.557834)"/><path d="M.1,22.2C.1,22.2,.2,22.7,.3,22.6C.6,22.5,3.5,9.4,3.8,8.8C4.0,8.2,4.2,7.9,4.9,7.7C5.7,7.5,11.9,6.1,11.9,6.1C11.9,6.1,12.3,6.1,12.4,5.2C12.6,4.3,12.5,3.6,13.5,3.3C14.5,3.1,28.7,-0.2,28.8,.0C28.9,.2,29.1,.3,29.0,.9C28.8,1.6,23.1,14.4,23.1,14.4C23.1,14.4,23.1,14.9,22.6,14.9C22.1,15.0,.4,23.0,.4,23.0C.4,23.0,-0.2,22.9,.1,22.2z" fill-rule="nonzero" fill="url(#lg2)" id="shape9" transform="translate(2.167441,3.750279)"/><path d="M224.2,342.7L224.2,342.7z" stroke-width="1" fill="none" stroke="#000000" id="shape10" transform="translate(26.500751,3.542607)"/><path d="M14.4,2.0C14.4,2.0,23.9,-0.1,24.0,.0C24.1,.3,24.3,.4,24.1,1.0C24.0,1.6,18.3,14.4,18.3,14.4C18.3,14.4,18.3,14.8,17.7,14.9C17.2,15.0,.0,21.4,.0,21.4L14.4,2.0z" fill-rule="nonzero" fill="url(#lg3)" id="shape11" transform="translate(7.008470,3.774434)"/><text style="fill:#191919;font-family:Arial;font-size:9.60pt;font-weight:bold" xml:space="preserve"><tspan x="7.0" y="42.7">src</tspan></text></g><g id="shape12" transform="translate(321.000000,58.541261)"><text style="fill:#a66834;font-family:Arial;font-size:10.00pt;font-weight:bold" xml:space="preserve"><tspan x="5.7" y="20.2">Fonte do projeto</tspan></text></g><g id="group13" transform="translate(308.945268,104.611140)"><path d="M2.3,26.0L2.2,26.4C2.2,26.4,2.0,25.9,2.0,25.4C2.0,24.9,.0,2.9,.0,2.9C.0,2.9,.1,2.0,1.2,1.8C2.2,1.6,8.5,.6,8.9,.6C9.6,.7,9.4,2.5,9.8,2.5C10.2,2.5,25.3,.0,25.3,.0C25.3,.0,25.6,-0.1,25.5,.6C25.5,1.1,2.3,25.9,2.3,26.0z" fill-rule="nonzero" fill="#e7d299" id="shape14" transform="translate(-0.006085,-0.001859)"/><path d="M1.9,26.2L.0,2.8C.0,2.8,-0.2,2.0,1.1,1.8C2.4,1.6,8.2,.6,8.2,.6C8.2,.6,8.8,.2,9.0,1.7C9.0,2.7,9.6,2.6,10.1,2.5C10.6,2.4,24.9,.0,24.9,.0C24.9,.0,25.2,.0,25.2,.7C25.2,1.5,24.3,17.8,24.3,17.8L1.9,26.2z" fill-rule="nonzero" fill="url(#lg1)" id="shape15" transform="translate(0.413696,0.224825)"/><path d="M.0,23.3L.3,4.0L22.5,.0L.0,23.3z" fill-rule="nonzero" fill-opacity="0.55" fill="#ffffff" id="shape16" transform="translate(3.352777,2.457771)"/><path d="M.8,24.2L.0,4.8L23.9,.0L22.7,16.3L.8,24.2z" fill-rule="nonzero" stroke-width="1" fill="#fcfcfc" stroke="#bcbcbc" id="shape17" transform="translate(1.707962,1.448909)"/><path d="M1.8,4.9L.0,23.6C.0,23.6,22.0,16.2,21.9,16.2C21.8,16.1,25.1,.0,25.1,.0L1.8,4.9z" fill-rule="nonzero" stroke-width="1" fill="#fcfcfc" stroke="#a0a0a0" id="shape18" transform="translate(2.625247,1.993597)"/><path d="M3.5,4.6L.0,22.8L21.6,15.0L25.7,.0L3.5,4.6z" fill-rule="nonzero" stroke-width="1" fill="#fcfcfc" stroke="#a0a0a0" id="shape19" transform="translate(3.352699,2.920514)"/><path d="M.2,22.8L.0,22.9L3.1,8.8C3.1,8.8,3.3,7.9,4.1,7.6C4.8,7.4,11.3,6.0,11.3,6.0C11.3,6.0,11.9,5.8,11.9,4.7C12.0,3.5,12.9,3.3,12.9,3.3L28.2,.0L28.6,.2L9.4,8.2L.2,22.8z" fill-rule="nonzero" fill="#e7d299" id="shape20" transform="translate(2.402974,3.557834)"/><path d="M.1,22.2C.1,22.2,.2,22.7,.3,22.6C.6,22.5,3.5,9.4,3.8,8.8C4.0,8.2,4.2,7.9,4.9,7.7C5.7,7.5,11.9,6.1,11.9,6.1C11.9,6.1,12.3,6.1,12.4,5.2C12.6,4.3,12.5,3.6,13.5,3.3C14.5,3.1,28.7,-0.2,28.8,.0C28.9,.2,29.1,.3,29.0,.9C28.8,1.6,23.1,14.4,23.1,14.4C23.1,14.4,23.1,14.9,22.6,14.9C22.1,15.0,.4,23.0,.4,23.0C.4,23.0,-0.2,22.9,.1,22.2z" fill-rule="nonzero" fill="url(#lg2)" id="shape21" transform="translate(2.167439,3.750279)"/><path d="M224.2,342.7L224.2,342.7z" stroke-width="1" fill="none" stroke="#000000" id="shape22" transform="translate(26.500731,3.542607)"/><path d="M14.4,2.0C14.4,2.0,23.9,-0.1,24.0,.0C24.1,.3,24.3,.4,24.1,1.0C24.0,1.6,18.3,14.4,18.3,14.4C18.3,14.4,18.3,14.8,17.7,14.9C17.2,15.0,.0,21.4,.0,21.4L14.4,2.0z" fill-rule="nonzero" fill="url(#lg3)" id="shape23" transform="translate(7.008465,3.774434)"/><text style="fill:#191919;font-family:Arial;font-size:9.60pt;font-weight:bold" xml:space="preserve"><tspan x="-6.6" y="42.7">@types</tspan></text></g><g id="shape24" transform="translate(352.718653,104.611140)"><text style="fill:#a66834;font-family:Arial;font-size:10.00pt;font-weight:bold" xml:space="preserve"><tspan x="14.9" y="17.5"> Tipagem organizada por páginas</tspan></text></g><g id="group25" transform="translate(343.437306,153.636286)"><path d="M2.3,26.0L2.2,26.4C2.2,26.4,2.0,25.9,2.0,25.4C2.0,24.9,.0,2.9,.0,2.9C.0,2.9,.1,2.0,1.2,1.8C2.2,1.6,8.5,.6,8.9,.6C9.6,.7,9.4,2.5,9.8,2.5C10.2,2.5,25.3,.0,25.3,.0C25.3,.0,25.6,-0.1,25.5,.6C25.5,1.1,2.3,25.9,2.3,26.0z" fill-rule="nonzero" fill="#e7d299" id="shape26" transform="translate(-0.006085,-0.001859)"/><path d="M1.9,26.2L.0,2.8C.0,2.8,-0.2,2.0,1.1,1.8C2.4,1.6,8.2,.6,8.2,.6C8.2,.6,8.8,.2,9.0,1.7C9.0,2.7,9.6,2.6,10.1,2.5C10.6,2.4,24.9,.0,24.9,.0C24.9,.0,25.2,.0,25.2,.7C25.2,1.5,24.3,17.8,24.3,17.8L1.9,26.2z" fill-rule="nonzero" fill="url(#lg1)" id="shape27" transform="translate(0.413696,0.224825)"/><path d="M.0,23.3L.3,4.0L22.5,.0L.0,23.3z" fill-rule="nonzero" fill-opacity="0.55" fill="#ffffff" id="shape28" transform="translate(3.352777,2.457771)"/><path d="M.8,24.2L.0,4.8L23.9,.0L22.7,16.3L.8,24.2z" fill-rule="nonzero" stroke-width="1" fill="#fcfcfc" stroke="#bcbcbc" id="shape29" transform="translate(1.707962,1.448909)"/><path d="M1.8,4.9L.0,23.6C.0,23.6,22.0,16.2,21.9,16.2C21.8,16.1,25.1,.0,25.1,.0L1.8,4.9z" fill-rule="nonzero" stroke-width="1" fill="#fcfcfc" stroke="#a0a0a0" id="shape30" transform="translate(2.625247,1.993597)"/><path d="M3.5,4.6L.0,22.8L21.6,15.0L25.7,.0L3.5,4.6z" fill-rule="nonzero" stroke-width="1" fill="#fcfcfc" stroke="#a0a0a0" id="shape31" transform="translate(3.352699,2.920514)"/><path d="M.2,22.8L.0,22.9L3.1,8.8C3.1,8.8,3.3,7.9,4.1,7.6C4.8,7.4,11.3,6.0,11.3,6.0C11.3,6.0,11.9,5.8,11.9,4.7C12.0,3.5,12.9,3.3,12.9,3.3L28.2,.0L28.6,.2L9.4,8.2L.2,22.8z" fill-rule="nonzero" fill="#e7d299" id="shape32" transform="translate(2.402974,3.557834)"/><path d="M.1,22.2C.1,22.2,.2,22.7,.3,22.6C.6,22.5,3.5,9.4,3.8,8.8C4.0,8.2,4.2,7.9,4.9,7.7C5.7,7.5,11.9,6.1,11.9,6.1C11.9,6.1,12.3,6.1,12.4,5.2C12.6,4.3,12.5,3.6,13.5,3.3C14.5,3.1,28.7,-0.2,28.8,.0C28.9,.2,29.1,.3,29.0,.9C28.8,1.6,23.1,14.4,23.1,14.4C23.1,14.4,23.1,14.9,22.6,14.9C22.1,15.0,.4,23.0,.4,23.0C.4,23.0,-0.2,22.9,.1,22.2z" fill-rule="nonzero" fill="url(#lg2)" id="shape33" transform="translate(2.167439,3.750279)"/><path d="M224.2,342.7L224.2,342.7z" stroke-width="1" fill="none" stroke="#000000" id="shape34" transform="translate(26.500731,3.542607)"/><path d="M14.4,2.0C14.4,2.0,23.9,-0.1,24.0,.0C24.1,.3,24.3,.4,24.1,1.0C24.0,1.6,18.3,14.4,18.3,14.4C18.3,14.4,18.3,14.8,17.7,14.9C17.2,15.0,.0,21.4,.0,21.4L14.4,2.0z" fill-rule="nonzero" fill="url(#lg3)" id="shape35" transform="translate(7.008465,3.774434)"/><text style="fill:#191919;font-family:Arial;font-size:9.60pt;font-weight:bold" xml:space="preserve"><tspan x="-0.6" y="42.7">home</tspan></text></g><g id="group36" transform="translate(375.880739,199.295653)"><path d="M2.3,26.0L2.2,26.4C2.2,26.4,2.0,25.9,2.0,25.4C2.0,24.9,.0,2.9,.0,2.9C.0,2.9,.1,2.0,1.2,1.8C2.2,1.6,8.5,.6,8.9,.6C9.6,.7,9.4,2.5,9.8,2.5C10.2,2.5,25.3,.0,25.3,.0C25.3,.0,25.6,-0.1,25.5,.6C25.5,1.1,2.3,25.9,2.3,26.0z" fill-rule="nonzero" fill="#e7d299" id="shape37" transform="translate(-0.006085,-0.001859)"/><path d="M1.9,26.2L.0,2.8C.0,2.8,-0.2,2.0,1.1,1.8C2.4,1.6,8.2,.6,8.2,.6C8.2,.6,8.8,.2,9.0,1.7C9.0,2.7,9.6,2.6,10.1,2.5C10.6,2.4,24.9,.0,24.9,.0C24.9,.0,25.2,.0,25.2,.7C25.2,1.5,24.3,17.8,24.3,17.8L1.9,26.2z" fill-rule="nonzero" fill="url(#lg1)" id="shape38" transform="translate(0.413696,0.224825)"/><path d="M.0,23.3L.3,4.0L22.5,.0L.0,23.3z" fill-rule="nonzero" fill-opacity="0.55" fill="#ffffff" id="shape39" transform="translate(3.352777,2.457771)"/><path d="M.8,24.2L.0,4.8L23.9,.0L22.7,16.3L.8,24.2z" fill-rule="nonzero" stroke-width="1" fill="#fcfcfc" stroke="#bcbcbc" id="shape40" transform="translate(1.707962,1.448909)"/><path d="M1.8,4.9L.0,23.6C.0,23.6,22.0,16.2,21.9,16.2C21.8,16.1,25.1,.0,25.1,.0L1.8,4.9z" fill-rule="nonzero" stroke-width="1" fill="#fcfcfc" stroke="#a0a0a0" id="shape41" transform="translate(2.625247,1.993597)"/><path d="M3.5,4.6L.0,22.8L21.6,15.0L25.7,.0L3.5,4.6z" fill-rule="nonzero" stroke-width="1" fill="#fcfcfc" stroke="#a0a0a0" id="shape42" transform="translate(3.352699,2.920514)"/><path d="M.2,22.8L.0,22.9L3.1,8.8C3.1,8.8,3.3,7.9,4.1,7.6C4.8,7.4,11.3,6.0,11.3,6.0C11.3,6.0,11.9,5.8,11.9,4.7C12.0,3.5,12.9,3.3,12.9,3.3L28.2,.0L28.6,.2L9.4,8.2L.2,22.8z" fill-rule="nonzero" fill="#e7d299" id="shape43" transform="translate(2.402974,3.557834)"/><path d="M.1,22.2C.1,22.2,.2,22.7,.3,22.6C.6,22.5,3.5,9.4,3.8,8.8C4.0,8.2,4.2,7.9,4.9,7.7C5.7,7.5,11.9,6.1,11.9,6.1C11.9,6.1,12.3,6.1,12.4,5.2C12.6,4.3,12.5,3.6,13.5,3.3C14.5,3.1,28.7,-0.2,28.8,.0C28.9,.2,29.1,.3,29.0,.9C28.8,1.6,23.1,14.4,23.1,14.4C23.1,14.4,23.1,14.9,22.6,14.9C22.1,15.0,.4,23.0,.4,23.0C.4,23.0,-0.2,22.9,.1,22.2z" fill-rule="nonzero" fill="url(#lg2)" id="shape44" transform="translate(2.167439,3.750279)"/><path d="M224.2,342.7L224.2,342.7z" stroke-width="1" fill="none" stroke="#000000" id="shape45" transform="translate(26.500731,3.542607)"/><path d="M14.4,2.0C14.4,2.0,23.9,-0.1,24.0,.0C24.1,.3,24.3,.4,24.1,1.0C24.0,1.6,18.3,14.4,18.3,14.4C18.3,14.4,18.3,14.8,17.7,14.9C17.2,15.0,.0,21.4,.0,21.4L14.4,2.0z" fill-rule="nonzero" fill="url(#lg3)" id="shape46" transform="translate(7.008465,2.047064)"/><text style="fill:#191919;font-family:Arial;font-size:9.60pt;font-weight:bold" xml:space="preserve"><tspan x="3.4" y="42.7">data</tspan></text></g><g id="group47" transform="translate(375.880739,249.273446)"><path d="M2.3,26.0L2.2,26.4C2.2,26.4,2.0,25.9,2.0,25.4C2.0,24.9,.0,2.9,.0,2.9C.0,2.9,.1,2.0,1.2,1.8C2.2,1.6,8.5,.6,8.9,.6C9.6,.7,9.4,2.5,9.8,2.5C10.2,2.5,25.3,.0,25.3,.0C25.3,.0,25.6,-0.1,25.5,.6C25.5,1.1,2.3,25.9,2.3,26.0z" fill-rule="nonzero" fill="#e7d299" id="shape48" transform="translate(-0.006085,-0.001859)"/><path d="M1.9,26.2L.0,2.8C.0,2.8,-0.2,2.0,1.1,1.8C2.4,1.6,8.2,.6,8.2,.6C8.2,.6,8.8,.2,9.0,1.7C9.0,2.7,9.6,2.6,10.1,2.5C10.6,2.4,24.9,.0,24.9,.0C24.9,.0,25.2,.0,25.2,.7C25.2,1.5,24.3,17.8,24.3,17.8L1.9,26.2z" fill-rule="nonzero" fill="url(#lg1)" id="shape49" transform="translate(0.413696,0.224825)"/><path d="M.0,23.3L.3,4.0L22.5,.0L.0,23.3z" fill-rule="nonzero" fill-opacity="0.55" fill="#ffffff" id="shape50" transform="translate(3.352777,2.457771)"/><path d="M.8,24.2L.0,4.8L23.9,.0L22.7,16.3L.8,24.2z" fill-rule="nonzero" stroke-width="1" fill="#fcfcfc" stroke="#bcbcbc" id="shape51" transform="translate(1.707962,1.448909)"/><path d="M1.8,4.9L.0,23.6C.0,23.6,22.0,16.2,21.9,16.2C21.8,16.1,25.1,.0,25.1,.0L1.8,4.9z" fill-rule="nonzero" stroke-width="1" fill="#fcfcfc" stroke="#a0a0a0" id="shape52" transform="translate(2.625247,1.993597)"/><path d="M3.5,4.6L.0,22.8L21.6,15.0L25.7,.0L3.5,4.6z" fill-rule="nonzero" stroke-width="1" fill="#fcfcfc" stroke="#a0a0a0" id="shape53" transform="translate(3.352699,2.920514)"/><path d="M.2,22.8L.0,22.9L3.1,8.8C3.1,8.8,3.3,7.9,4.1,7.6C4.8,7.4,11.3,6.0,11.3,6.0C11.3,6.0,11.9,5.8,11.9,4.7C12.0,3.5,12.9,3.3,12.9,3.3L28.2,.0L28.6,.2L9.4,8.2L.2,22.8z" fill-rule="nonzero" fill="#e7d299" id="shape54" transform="translate(2.402974,3.557834)"/><path d="M.1,22.2C.1,22.2,.2,22.7,.3,22.6C.6,22.5,3.5,9.4,3.8,8.8C4.0,8.2,4.2,7.9,4.9,7.7C5.7,7.5,11.9,6.1,11.9,6.1C11.9,6.1,12.3,6.1,12.4,5.2C12.6,4.3,12.5,3.6,13.5,3.3C14.5,3.1,28.7,-0.2,28.8,.0C28.9,.2,29.1,.3,29.0,.9C28.8,1.6,23.1,14.4,23.1,14.4C23.1,14.4,23.1,14.9,22.6,14.9C22.1,15.0,.4,23.0,.4,23.0C.4,23.0,-0.2,22.9,.1,22.2z" fill-rule="nonzero" fill="url(#lg2)" id="shape55" transform="translate(2.167439,3.750279)"/><path d="M224.2,342.7L224.2,342.7z" stroke-width="1" fill="none" stroke="#000000" id="shape56" transform="translate(26.500731,3.542607)"/><path d="M14.4,2.0C14.4,2.0,23.9,-0.1,24.0,.0C24.1,.3,24.3,.4,24.1,1.0C24.0,1.6,18.3,14.4,18.3,14.4C18.3,14.4,18.3,14.8,17.7,14.9C17.2,15.0,.0,21.4,.0,21.4L14.4,2.0z" fill-rule="nonzero" fill="url(#lg3)" id="shape57" transform="translate(7.008465,3.774434)"/><text style="fill:#191919;font-family:Arial;font-size:9.60pt;font-weight:bold" xml:space="preserve"><tspan x="11.0" y="42.7">ui</tspan></text></g><g id="group58" transform="translate(309.808953,293.412019)"><path d="M2.3,26.0L2.2,26.4C2.2,26.4,2.0,25.9,2.0,25.4C2.0,24.9,.0,2.9,.0,2.9C.0,2.9,.1,2.0,1.2,1.8C2.2,1.6,8.5,.6,8.9,.6C9.6,.7,9.4,2.5,9.8,2.5C10.2,2.5,25.3,.0,25.3,.0C25.3,.0,25.6,-0.1,25.5,.6C25.5,1.1,2.3,25.9,2.3,26.0z" fill-rule="nonzero" fill="#e7d299" id="shape59" transform="translate(-0.006085,-0.001859)"/><path d="M1.9,26.2L.0,2.8C.0,2.8,-0.2,2.0,1.1,1.8C2.4,1.6,8.2,.6,8.2,.6C8.2,.6,8.8,.2,9.0,1.7C9.0,2.7,9.6,2.6,10.1,2.5C10.6,2.4,24.9,.0,24.9,.0C24.9,.0,25.2,.0,25.2,.7C25.2,1.5,24.3,17.8,24.3,17.8L1.9,26.2z" fill-rule="nonzero" fill="url(#lg1)" id="shape60" transform="translate(0.413696,0.224825)"/><path d="M.0,23.3L.3,4.0L22.5,.0L.0,23.3z" fill-rule="nonzero" fill-opacity="0.55" fill="#ffffff" id="shape61" transform="translate(3.352772,2.457772)"/><path d="M.8,24.2L.0,4.8L23.9,.0L22.7,16.3L.8,24.2z" fill-rule="nonzero" stroke-width="1" fill="#fcfcfc" stroke="#bcbcbc" id="shape62" transform="translate(1.707960,1.448909)"/><path d="M1.8,4.9L.0,23.6C.0,23.6,22.0,16.2,21.9,16.2C21.8,16.1,25.1,.0,25.1,.0L1.8,4.9z" fill-rule="nonzero" stroke-width="1" fill="#fcfcfc" stroke="#a0a0a0" id="shape63" transform="translate(2.625243,1.993598)"/><path d="M3.5,4.6L.0,22.8L21.6,15.0L25.7,.0L3.5,4.6z" fill-rule="nonzero" stroke-width="1" fill="#fcfcfc" stroke="#a0a0a0" id="shape64" transform="translate(3.352694,2.920515)"/><path d="M.2,22.8L.0,22.9L3.1,8.8C3.1,8.8,3.3,7.9,4.1,7.6C4.8,7.4,11.3,6.0,11.3,6.0C11.3,6.0,11.9,5.8,11.9,4.7C12.0,3.5,12.9,3.3,12.9,3.3L28.2,.0L28.6,.2L9.4,8.2L.2,22.8z" fill-rule="nonzero" fill="#e7d299" id="shape65" transform="translate(2.402971,3.557835)"/><path d="M.1,22.2C.1,22.2,.2,22.7,.3,22.6C.6,22.5,3.5,9.4,3.8,8.8C4.0,8.2,4.2,7.9,4.9,7.7C5.7,7.5,11.9,6.1,11.9,6.1C11.9,6.1,12.3,6.1,12.4,5.2C12.6,4.3,12.5,3.6,13.5,3.3C14.5,3.1,28.7,-0.2,28.8,.0C28.9,.2,29.1,.3,29.0,.9C28.8,1.6,23.1,14.4,23.1,14.4C23.1,14.4,23.1,14.9,22.6,14.9C22.1,15.0,.4,23.0,.4,23.0C.4,23.0,-0.2,22.9,.1,22.2z" fill-rule="nonzero" fill="url(#lg2)" id="shape66" transform="translate(2.167436,3.750280)"/><path d="M224.2,342.7L224.2,342.7z" stroke-width="1" fill="none" stroke="#000000" id="shape67" transform="translate(26.500697,3.542608)"/><path d="M14.4,2.0C14.4,2.0,23.9,-0.1,24.0,.0C24.1,.3,24.3,.4,24.1,1.0C24.0,1.6,18.3,14.4,18.3,14.4C18.3,14.4,18.3,14.8,17.7,14.9C17.2,15.0,.0,21.4,.0,21.4L14.4,2.0z" fill-rule="nonzero" fill="url(#lg3)" id="shape68" transform="translate(7.008456,3.774435)"/><text style="fill:#191919;font-family:Arial;font-size:9.60pt;font-weight:bold" xml:space="preserve"><tspan x="-2.2" y="42.7">pages</tspan></text></g><g id="group69" transform="translate(309.808994,341.778383)"><path d="M2.3,26.0L2.2,26.4C2.2,26.4,2.0,25.9,2.0,25.4C2.0,24.9,.0,2.9,.0,2.9C.0,2.9,.1,2.0,1.2,1.8C2.2,1.6,8.5,.6,8.9,.6C9.6,.7,9.4,2.5,9.8,2.5C10.2,2.5,25.3,.0,25.3,.0C25.3,.0,25.6,-0.1,25.5,.6C25.5,1.1,2.3,25.9,2.3,26.0z" fill-rule="nonzero" fill="#e7d299" id="shape70" transform="translate(-0.006085,-0.001859)"/><path d="M1.9,26.2L.0,2.8C.0,2.8,-0.2,2.0,1.1,1.8C2.4,1.6,8.2,.6,8.2,.6C8.2,.6,8.8,.2,9.0,1.7C9.0,2.7,9.6,2.6,10.1,2.5C10.6,2.4,24.9,.0,24.9,.0C24.9,.0,25.2,.0,25.2,.7C25.2,1.5,24.3,17.8,24.3,17.8L1.9,26.2z" fill-rule="nonzero" fill="url(#lg1)" id="shape71" transform="translate(0.413696,0.224825)"/><path d="M.0,23.3L.3,4.0L22.5,.0L.0,23.3z" fill-rule="nonzero" fill-opacity="0.55" fill="#ffffff" id="shape72" transform="translate(3.352772,2.457772)"/><path d="M.8,24.2L.0,4.8L23.9,.0L22.7,16.3L.8,24.2z" fill-rule="nonzero" stroke-width="1" fill="#fcfcfc" stroke="#bcbcbc" id="shape73" transform="translate(1.707960,1.448909)"/><path d="M1.8,4.9L.0,23.6C.0,23.6,22.0,16.2,21.9,16.2C21.8,16.1,25.1,.0,25.1,.0L1.8,4.9z" fill-rule="nonzero" stroke-width="1" fill="#fcfcfc" stroke="#a0a0a0" id="shape74" transform="translate(2.625243,1.993598)"/><path d="M3.5,4.6L.0,22.8L21.6,15.0L25.7,.0L3.5,4.6z" fill-rule="nonzero" stroke-width="1" fill="#fcfcfc" stroke="#a0a0a0" id="shape75" transform="translate(3.352694,2.920515)"/><path d="M.2,22.8L.0,22.9L3.1,8.8C3.1,8.8,3.3,7.9,4.1,7.6C4.8,7.4,11.3,6.0,11.3,6.0C11.3,6.0,11.9,5.8,11.9,4.7C12.0,3.5,12.9,3.3,12.9,3.3L28.2,.0L28.6,.2L9.4,8.2L.2,22.8z" fill-rule="nonzero" fill="#e7d299" id="shape76" transform="translate(2.402971,3.557835)"/><path d="M.1,22.2C.1,22.2,.2,22.7,.3,22.6C.6,22.5,3.5,9.4,3.8,8.8C4.0,8.2,4.2,7.9,4.9,7.7C5.7,7.5,11.9,6.1,11.9,6.1C11.9,6.1,12.3,6.1,12.4,5.2C12.6,4.3,12.5,3.6,13.5,3.3C14.5,3.1,28.7,-0.2,28.8,.0C28.9,.2,29.1,.3,29.0,.9C28.8,1.6,23.1,14.4,23.1,14.4C23.1,14.4,23.1,14.9,22.6,14.9C22.1,15.0,.4,23.0,.4,23.0C.4,23.0,-0.2,22.9,.1,22.2z" fill-rule="nonzero" fill="url(#lg2)" id="shape77" transform="translate(2.167436,3.750280)"/><path d="M224.2,342.7L224.2,342.7z" stroke-width="1" fill="none" stroke="#000000" id="shape78" transform="translate(26.500697,3.542608)"/><path d="M14.4,2.0C14.4,2.0,23.9,-0.1,24.0,.0C24.1,.3,24.3,.4,24.1,1.0C24.0,1.6,18.3,14.4,18.3,14.4C18.3,14.4,18.3,14.8,17.7,14.9C17.2,15.0,.0,21.4,.0,21.4L14.4,2.0z" fill-rule="nonzero" fill="url(#lg3)" id="shape79" transform="translate(7.008456,3.774435)"/><text style="fill:#191919;font-family:Arial;font-size:9.60pt;font-weight:bold" xml:space="preserve"><tspan x="-10.6" y="42.7">reducers</tspan></text></g><path d="M14.4,2.0C14.4,2.0,23.9,-0.1,24.0,.0C24.1,.3,24.3,.4,24.1,1.0C24.0,1.6,18.3,14.4,18.3,14.4C18.3,14.4,18.3,14.8,17.7,14.9C17.2,15.0,.0,21.4,.0,21.4L14.4,2.0z" fill-rule="nonzero" fill="url(#lg3)" id="shape80" transform="translate(498.447124,264.597679)"/><g id="group81" transform="translate(309.808994,390.281061)"><path d="M2.3,26.0L2.2,26.4C2.2,26.4,2.0,25.9,2.0,25.4C2.0,24.9,.0,2.9,.0,2.9C.0,2.9,.1,2.0,1.2,1.8C2.2,1.6,8.5,.6,8.9,.6C9.6,.7,9.4,2.5,9.8,2.5C10.2,2.5,25.3,.0,25.3,.0C25.3,.0,25.6,-0.1,25.5,.6C25.5,1.1,2.3,25.9,2.3,26.0z" fill-rule="nonzero" fill="#e7d299" id="shape82" transform="translate(-0.006085,-0.001859)"/><path d="M1.9,26.2L.0,2.8C.0,2.8,-0.2,2.0,1.1,1.8C2.4,1.6,8.2,.6,8.2,.6C8.2,.6,8.8,.2,9.0,1.7C9.0,2.7,9.6,2.6,10.1,2.5C10.6,2.4,24.9,.0,24.9,.0C24.9,.0,25.2,.0,25.2,.7C25.2,1.5,24.3,17.8,24.3,17.8L1.9,26.2z" fill-rule="nonzero" fill="url(#lg1)" id="shape83" transform="translate(0.413696,0.224825)"/><path d="M.0,23.3L.3,4.0L22.5,.0L.0,23.3z" fill-rule="nonzero" fill-opacity="0.55" fill="#ffffff" id="shape84" transform="translate(3.352772,2.457772)"/><path d="M.8,24.2L.0,4.8L23.9,.0L22.7,16.3L.8,24.2z" fill-rule="nonzero" stroke-width="1" fill="#fcfcfc" stroke="#bcbcbc" id="shape85" transform="translate(1.707960,1.448909)"/><path d="M1.8,4.9L.0,23.6C.0,23.6,22.0,16.2,21.9,16.2C21.8,16.1,25.1,.0,25.1,.0L1.8,4.9z" fill-rule="nonzero" stroke-width="1" fill="#fcfcfc" stroke="#a0a0a0" id="shape86" transform="translate(2.625243,1.993598)"/><path d="M3.5,4.6L.0,22.8L21.6,15.0L25.7,.0L3.5,4.6z" fill-rule="nonzero" stroke-width="1" fill="#fcfcfc" stroke="#a0a0a0" id="shape87" transform="translate(3.352694,2.920515)"/><path d="M.2,22.8L.0,22.9L3.1,8.8C3.1,8.8,3.3,7.9,4.1,7.6C4.8,7.4,11.3,6.0,11.3,6.0C11.3,6.0,11.9,5.8,11.9,4.7C12.0,3.5,12.9,3.3,12.9,3.3L28.2,.0L28.6,.2L9.4,8.2L.2,22.8z" fill-rule="nonzero" fill="#e7d299" id="shape88" transform="translate(2.402971,3.557835)"/><path d="M.1,22.2C.1,22.2,.2,22.7,.3,22.6C.6,22.5,3.5,9.4,3.8,8.8C4.0,8.2,4.2,7.9,4.9,7.7C5.7,7.5,11.9,6.1,11.9,6.1C11.9,6.1,12.3,6.1,12.4,5.2C12.6,4.3,12.5,3.6,13.5,3.3C14.5,3.1,28.7,-0.2,28.8,.0C28.9,.2,29.1,.3,29.0,.9C28.8,1.6,23.1,14.4,23.1,14.4C23.1,14.4,23.1,14.9,22.6,14.9C22.1,15.0,.4,23.0,.4,23.0C.4,23.0,-0.2,22.9,.1,22.2z" fill-rule="nonzero" fill="url(#lg2)" id="shape89" transform="translate(2.167436,3.750280)"/><path d="M224.2,342.7L224.2,342.7z" stroke-width="1" fill="none" stroke="#000000" id="shape90" transform="translate(26.500697,3.542608)"/><path d="M14.4,2.0C14.4,2.0,23.9,-0.1,24.0,.0C24.1,.3,24.3,.4,24.1,1.0C24.0,1.6,18.3,14.4,18.3,14.4C18.3,14.4,18.3,14.8,17.7,14.9C17.2,15.0,.0,21.4,.0,21.4L14.4,2.0z" fill-rule="nonzero" fill="url(#lg3)" id="shape91" transform="translate(7.008456,3.774435)"/><text style="fill:#191919;font-family:Arial;font-size:9.60pt;font-weight:bold" xml:space="preserve"><tspan x="-3.0" y="42.7">routes</tspan></text></g><g id="group92" transform="translate(309.808953,438.783740)"><path d="M2.3,26.0L2.2,26.4C2.2,26.4,2.0,25.9,2.0,25.4C2.0,24.9,.0,2.9,.0,2.9C.0,2.9,.1,2.0,1.2,1.8C2.2,1.6,8.5,.6,8.9,.6C9.6,.7,9.4,2.5,9.8,2.5C10.2,2.5,25.3,.0,25.3,.0C25.3,.0,25.6,-0.1,25.5,.6C25.5,1.1,2.3,25.9,2.3,26.0z" fill-rule="nonzero" fill="#e7d299" id="shape93" transform="translate(-0.006085,-0.001859)"/><path d="M1.9,26.2L.0,2.8C.0,2.8,-0.2,2.0,1.1,1.8C2.4,1.6,8.2,.6,8.2,.6C8.2,.6,8.8,.2,9.0,1.7C9.0,2.7,9.6,2.6,10.1,2.5C10.6,2.4,24.9,.0,24.9,.0C24.9,.0,25.2,.0,25.2,.7C25.2,1.5,24.3,17.8,24.3,17.8L1.9,26.2z" fill-rule="nonzero" fill="url(#lg1)" id="shape94" transform="translate(0.413696,0.224825)"/><path d="M.0,23.3L.3,4.0L22.5,.0L.0,23.3z" fill-rule="nonzero" fill-opacity="0.55" fill="#ffffff" id="shape95" transform="translate(3.352772,2.457772)"/><path d="M.8,24.2L.0,4.8L23.9,.0L22.7,16.3L.8,24.2z" fill-rule="nonzero" stroke-width="1" fill="#fcfcfc" stroke="#bcbcbc" id="shape96" transform="translate(1.707960,1.448909)"/><path d="M1.8,4.9L.0,23.6C.0,23.6,22.0,16.2,21.9,16.2C21.8,16.1,25.1,.0,25.1,.0L1.8,4.9z" fill-rule="nonzero" stroke-width="1" fill="#fcfcfc" stroke="#a0a0a0" id="shape97" transform="translate(2.625243,1.993598)"/><path d="M3.5,4.6L.0,22.8L21.6,15.0L25.7,.0L3.5,4.6z" fill-rule="nonzero" stroke-width="1" fill="#fcfcfc" stroke="#a0a0a0" id="shape98" transform="translate(3.352694,2.920515)"/><path d="M.2,22.8L.0,22.9L3.1,8.8C3.1,8.8,3.3,7.9,4.1,7.6C4.8,7.4,11.3,6.0,11.3,6.0C11.3,6.0,11.9,5.8,11.9,4.7C12.0,3.5,12.9,3.3,12.9,3.3L28.2,.0L28.6,.2L9.4,8.2L.2,22.8z" fill-rule="nonzero" fill="#e7d299" id="shape99" transform="translate(2.402971,3.557835)"/><path d="M.1,22.2C.1,22.2,.2,22.7,.3,22.6C.6,22.5,3.5,9.4,3.8,8.8C4.0,8.2,4.2,7.9,4.9,7.7C5.7,7.5,11.9,6.1,11.9,6.1C11.9,6.1,12.3,6.1,12.4,5.2C12.6,4.3,12.5,3.6,13.5,3.3C14.5,3.1,28.7,-0.2,28.8,.0C28.9,.2,29.1,.3,29.0,.9C28.8,1.6,23.1,14.4,23.1,14.4C23.1,14.4,23.1,14.9,22.6,14.9C22.1,15.0,.4,23.0,.4,23.0C.4,23.0,-0.2,22.9,.1,22.2z" fill-rule="nonzero" fill="url(#lg2)" id="shape100" transform="translate(2.167436,3.750280)"/><path d="M224.2,342.7L224.2,342.7z" stroke-width="1" fill="none" stroke="#000000" id="shape101" transform="translate(26.500697,3.542608)"/><path d="M14.4,2.0C14.4,2.0,23.9,-0.1,24.0,.0C24.1,.3,24.3,.4,24.1,1.0C24.0,1.6,18.3,14.4,18.3,14.4C18.3,14.4,18.3,14.8,17.7,14.9C17.2,15.0,.0,21.4,.0,21.4L14.4,2.0z" fill-rule="nonzero" fill="url(#lg3)" id="shape102" transform="translate(7.008456,3.774435)"/><text style="fill:#191919;font-family:Arial;font-size:9.60pt;font-weight:bold" xml:space="preserve"><tspan x="11.0" y="42.7">ui</tspan></text></g><g id="shape103" transform="translate(308.945268,117.985602)"><path d="M.0,.0L-28.0,.0L-28.0,49.0L29.0,49.0" stroke-width="1" fill="none" stroke="#191919"/><path d="M29.0,46.0L35.0,49.0L29.0,52.0L29.0,46.0" stroke-width="1" fill="#191919" stroke="#191919" stroke-linecap="round"/></g><g id="group104" transform="translate(340.339984,480.877172)"><path d="M2.3,26.0L2.2,26.4C2.2,26.4,2.0,25.9,2.0,25.4C2.0,24.9,.0,2.9,.0,2.9C.0,2.9,.1,2.0,1.2,1.8C2.2,1.6,8.5,.6,8.9,.6C9.6,.7,9.4,2.5,9.8,2.5C10.2,2.5,25.3,.0,25.3,.0C25.3,.0,25.6,-0.1,25.5,.6C25.5,1.1,2.3,25.9,2.3,26.0z" fill-rule="nonzero" fill="#e7d299" id="shape105" transform="translate(-0.006085,-0.001859)"/><path d="M1.9,26.2L.0,2.8C.0,2.8,-0.2,2.0,1.1,1.8C2.4,1.6,8.2,.6,8.2,.6C8.2,.6,8.8,.2,9.0,1.7C9.0,2.7,9.6,2.6,10.1,2.5C10.6,2.4,24.9,.0,24.9,.0C24.9,.0,25.2,.0,25.2,.7C25.2,1.5,24.3,17.8,24.3,17.8L1.9,26.2z" fill-rule="nonzero" fill="url(#lg1)" id="shape106" transform="translate(0.413696,0.224825)"/><path d="M.0,23.3L.3,4.0L22.5,.0L.0,23.3z" fill-rule="nonzero" fill-opacity="0.55" fill="#ffffff" id="shape107" transform="translate(3.352772,2.457772)"/><path d="M.8,24.2L.0,4.8L23.9,.0L22.7,16.3L.8,24.2z" fill-rule="nonzero" stroke-width="1" fill="#fcfcfc" stroke="#bcbcbc" id="shape108" transform="translate(1.707960,1.448909)"/><path d="M1.8,4.9L.0,23.6C.0,23.6,22.0,16.2,21.9,16.2C21.8,16.1,25.1,.0,25.1,.0L1.8,4.9z" fill-rule="nonzero" stroke-width="1" fill="#fcfcfc" stroke="#a0a0a0" id="shape109" transform="translate(2.625243,1.993598)"/><path d="M3.5,4.6L.0,22.8L21.6,15.0L25.7,.0L3.5,4.6z" fill-rule="nonzero" stroke-width="1" fill="#fcfcfc" stroke="#a0a0a0" id="shape110" transform="translate(3.352694,2.920515)"/><path d="M.2,22.8L.0,22.9L3.1,8.8C3.1,8.8,3.3,7.9,4.1,7.6C4.8,7.4,11.3,6.0,11.3,6.0C11.3,6.0,11.9,5.8,11.9,4.7C12.0,3.5,12.9,3.3,12.9,3.3L28.2,.0L28.6,.2L9.4,8.2L.2,22.8z" fill-rule="nonzero" fill="#e7d299" id="shape111" transform="translate(2.402971,3.557835)"/><path d="M.1,22.2C.1,22.2,.2,22.7,.3,22.6C.6,22.5,3.5,9.4,3.8,8.8C4.0,8.2,4.2,7.9,4.9,7.7C5.7,7.5,11.9,6.1,11.9,6.1C11.9,6.1,12.3,6.1,12.4,5.2C12.6,4.3,12.5,3.6,13.5,3.3C14.5,3.1,28.7,-0.2,28.8,.0C28.9,.2,29.1,.3,29.0,.9C28.8,1.6,23.1,14.4,23.1,14.4C23.1,14.4,23.1,14.9,22.6,14.9C22.1,15.0,.4,23.0,.4,23.0C.4,23.0,-0.2,22.9,.1,22.2z" fill-rule="nonzero" fill="url(#lg2)" id="shape112" transform="translate(2.167436,3.750280)"/><path d="M224.2,342.7L224.2,342.7z" stroke-width="1" fill="none" stroke="#000000" id="shape113" transform="translate(26.500697,3.542608)"/><path d="M14.4,2.0C14.4,2.0,23.9,-0.1,24.0,.0C24.1,.3,24.3,.4,24.1,1.0C24.0,1.6,18.3,14.4,18.3,14.4C18.3,14.4,18.3,14.8,17.7,14.9C17.2,15.0,.0,21.4,.0,21.4L14.4,2.0z" fill-rule="nonzero" fill="url(#lg3)" id="shape114" transform="translate(7.008456,3.774435)"/><text style="fill:#191919;font-family:Arial;font-size:9.60pt;font-weight:bold" xml:space="preserve"><tspan x="-3.4" y="42.7">assets</tspan></text></g><g id="group115" transform="translate(340.000000,536.251069)"><path d="M2.3,26.0L2.2,26.4C2.2,26.4,2.0,25.9,2.0,25.4C2.0,24.9,.0,2.9,.0,2.9C.0,2.9,.1,2.0,1.2,1.8C2.2,1.6,8.5,.6,8.9,.6C9.6,.7,9.4,2.5,9.8,2.5C10.2,2.5,25.3,.0,25.3,.0C25.3,.0,25.6,-0.1,25.5,.6C25.5,1.1,2.3,25.9,2.3,26.0z" fill-rule="nonzero" fill="#e7d299" id="shape116" transform="translate(-0.006085,-0.001859)"/><path d="M1.9,26.2L.0,2.8C.0,2.8,-0.2,2.0,1.1,1.8C2.4,1.6,8.2,.6,8.2,.6C8.2,.6,8.8,.2,9.0,1.7C9.0,2.7,9.6,2.6,10.1,2.5C10.6,2.4,24.9,.0,24.9,.0C24.9,.0,25.2,.0,25.2,.7C25.2,1.5,24.3,17.8,24.3,17.8L1.9,26.2z" fill-rule="nonzero" fill="url(#lg1)" id="shape117" transform="translate(0.413696,0.224825)"/><path d="M.0,23.3L.3,4.0L22.5,.0L.0,23.3z" fill-rule="nonzero" fill-opacity="0.55" fill="#ffffff" id="shape118" transform="translate(3.352772,2.457772)"/><path d="M.8,24.2L.0,4.8L23.9,.0L22.7,16.3L.8,24.2z" fill-rule="nonzero" stroke-width="1" fill="#fcfcfc" stroke="#bcbcbc" id="shape119" transform="translate(1.707960,1.448909)"/><path d="M1.8,4.9L.0,23.6C.0,23.6,22.0,16.2,21.9,16.2C21.8,16.1,25.1,.0,25.1,.0L1.8,4.9z" fill-rule="nonzero" stroke-width="1" fill="#fcfcfc" stroke="#a0a0a0" id="shape120" transform="translate(2.625243,1.993598)"/><path d="M3.5,4.6L.0,22.8L21.6,15.0L25.7,.0L3.5,4.6z" fill-rule="nonzero" stroke-width="1" fill="#fcfcfc" stroke="#a0a0a0" id="shape121" transform="translate(3.352694,2.920515)"/><path d="M.2,22.8L.0,22.9L3.1,8.8C3.1,8.8,3.3,7.9,4.1,7.6C4.8,7.4,11.3,6.0,11.3,6.0C11.3,6.0,11.9,5.8,11.9,4.7C12.0,3.5,12.9,3.3,12.9,3.3L28.2,.0L28.6,.2L9.4,8.2L.2,22.8z" fill-rule="nonzero" fill="#e7d299" id="shape122" transform="translate(2.402971,3.557835)"/><path d="M.1,22.2C.1,22.2,.2,22.7,.3,22.6C.6,22.5,3.5,9.4,3.8,8.8C4.0,8.2,4.2,7.9,4.9,7.7C5.7,7.5,11.9,6.1,11.9,6.1C11.9,6.1,12.3,6.1,12.4,5.2C12.6,4.3,12.5,3.6,13.5,3.3C14.5,3.1,28.7,-0.2,28.8,.0C28.9,.2,29.1,.3,29.0,.9C28.8,1.6,23.1,14.4,23.1,14.4C23.1,14.4,23.1,14.9,22.6,14.9C22.1,15.0,.4,23.0,.4,23.0C.4,23.0,-0.2,22.9,.1,22.2z" fill-rule="nonzero" fill="url(#lg2)" id="shape123" transform="translate(2.167436,3.750280)"/><path d="M224.2,342.7L224.2,342.7z" stroke-width="1" fill="none" stroke="#000000" id="shape124" transform="translate(26.500697,3.542608)"/><path d="M14.4,2.0C14.4,2.0,23.9,-0.1,24.0,.0C24.1,.3,24.3,.4,24.1,1.0C24.0,1.6,18.3,14.4,18.3,14.4C18.3,14.4,18.3,14.8,17.7,14.9C17.2,15.0,.0,21.4,.0,21.4L14.4,2.0z" fill-rule="nonzero" fill="url(#lg3)" id="shape125" transform="translate(7.008456,3.774435)"/><text style="fill:#191919;font-family:Arial;font-size:9.60pt;font-weight:bold" xml:space="preserve"><tspan x="-21.8" y="42.7">components</tspan></text></g><g id="shape126" transform="translate(278.676753,74.692209)"><path d="M.0,.0L-28.0,.0L-28.0,232.0L25.0,232.0" stroke-width="1" fill="none" stroke="#191919"/><path d="M25.0,229.0L31.0,232.0L25.0,235.0L25.0,229.0" stroke-width="1" fill="#191919" stroke="#191919" stroke-linecap="round"/></g><g id="shape127" transform="translate(278.676753,74.692209)"><path d="M.0,.0L-28.0,.0L-28.0,280.0L25.0,280.0" stroke-width="1" fill="none" stroke="#191919"/><path d="M25.0,277.0L31.0,280.0L25.0,283.0L25.0,277.0" stroke-width="1" fill="#191919" stroke="#191919" stroke-linecap="round"/></g><g id="shape128" transform="translate(278.676753,74.692209)"><path d="M.0,.0L-28.0,.0L-28.0,328.0L25.0,328.0" stroke-width="1" fill="none" stroke="#191919"/><path d="M25.0,325.0L31.0,328.0L25.0,331.0L25.0,325.0" stroke-width="1" fill="#191919" stroke="#191919" stroke-linecap="round"/></g><g id="shape129" transform="translate(278.676753,74.692209)"><path d="M.0,.0L-28.0,.0L-28.0,377.0L25.0,377.0" stroke-width="1" fill="none" stroke="#191919"/><path d="M25.0,374.0L31.0,377.0L25.0,380.0L25.0,374.0" stroke-width="1" fill="#191919" stroke="#191919" stroke-linecap="round"/></g><g id="shape130" transform="translate(309.808953,452.158205)"><path d="M.0,.0L-28.0,.0L-28.0,42.0L25.0,42.0" stroke-width="1" fill="none" stroke="#191919"/><path d="M25.0,39.0L31.0,42.0L25.0,45.0L25.0,39.0" stroke-width="1" fill="#191919" stroke="#191919" stroke-linecap="round"/></g><g id="shape131" transform="translate(309.808953,452.158205)"><path d="M.0,.0L-28.0,.0L-28.0,97.5L24.2,97.5" stroke-width="1" fill="none" stroke="#191919"/><path d="M24.2,94.5L30.2,97.5L24.2,100.5L24.2,94.5" stroke-width="1" fill="#191919" stroke="#191919" stroke-linecap="round"/></g><g id="group132" transform="translate(389.570032,589.625535)"><path d="M2.3,26.0L2.2,26.4C2.2,26.4,2.0,25.9,2.0,25.4C2.0,24.9,.0,2.9,.0,2.9C.0,2.9,.1,2.0,1.2,1.8C2.2,1.6,8.5,.6,8.9,.6C9.6,.7,9.4,2.5,9.8,2.5C10.2,2.5,25.3,.0,25.3,.0C25.3,.0,25.6,-0.1,25.5,.6C25.5,1.1,2.3,25.9,2.3,26.0z" fill-rule="nonzero" fill="#e7d299" id="shape133" transform="translate(-0.006085,-0.001859)"/><path d="M1.9,26.2L.0,2.8C.0,2.8,-0.2,2.0,1.1,1.8C2.4,1.6,8.2,.6,8.2,.6C8.2,.6,8.8,.2,9.0,1.7C9.0,2.7,9.6,2.6,10.1,2.5C10.6,2.4,24.9,.0,24.9,.0C24.9,.0,25.2,.0,25.2,.7C25.2,1.5,24.3,17.8,24.3,17.8L1.9,26.2z" fill-rule="nonzero" fill="url(#lg1)" id="shape134" transform="translate(0.413696,0.224825)"/><path d="M.0,23.3L.3,4.0L22.5,.0L.0,23.3z" fill-rule="nonzero" fill-opacity="0.55" fill="#ffffff" id="shape135" transform="translate(3.352772,2.457772)"/><path d="M.8,24.2L.0,4.8L23.9,.0L22.7,16.3L.8,24.2z" fill-rule="nonzero" stroke-width="1" fill="#fcfcfc" stroke="#bcbcbc" id="shape136" transform="translate(1.707960,1.448909)"/><path d="M1.8,4.9L.0,23.6C.0,23.6,22.0,16.2,21.9,16.2C21.8,16.1,25.1,.0,25.1,.0L1.8,4.9z" fill-rule="nonzero" stroke-width="1" fill="#fcfcfc" stroke="#a0a0a0" id="shape137" transform="translate(2.625243,1.993598)"/><path d="M3.5,4.6L.0,22.8L21.6,15.0L25.7,.0L3.5,4.6z" fill-rule="nonzero" stroke-width="1" fill="#fcfcfc" stroke="#a0a0a0" id="shape138" transform="translate(3.352694,2.920515)"/><path d="M.2,22.8L.0,22.9L3.1,8.8C3.1,8.8,3.3,7.9,4.1,7.6C4.8,7.4,11.3,6.0,11.3,6.0C11.3,6.0,11.9,5.8,11.9,4.7C12.0,3.5,12.9,3.3,12.9,3.3L28.2,.0L28.6,.2L9.4,8.2L.2,22.8z" fill-rule="nonzero" fill="#e7d299" id="shape139" transform="translate(2.402971,3.557835)"/><path d="M.1,22.2C.1,22.2,.2,22.7,.3,22.6C.6,22.5,3.5,9.4,3.8,8.8C4.0,8.2,4.2,7.9,4.9,7.7C5.7,7.5,11.9,6.1,11.9,6.1C11.9,6.1,12.3,6.1,12.4,5.2C12.6,4.3,12.5,3.6,13.5,3.3C14.5,3.1,28.7,-0.2,28.8,.0C28.9,.2,29.1,.3,29.0,.9C28.8,1.6,23.1,14.4,23.1,14.4C23.1,14.4,23.1,14.9,22.6,14.9C22.1,15.0,.4,23.0,.4,23.0C.4,23.0,-0.2,22.9,.1,22.2z" fill-rule="nonzero" fill="url(#lg2)" id="shape140" transform="translate(2.167436,3.750280)"/><path d="M224.2,342.7L224.2,342.7z" stroke-width="1" fill="none" stroke="#000000" id="shape141" transform="translate(26.500697,3.542608)"/><path d="M14.4,2.0C14.4,2.0,23.9,-0.1,24.0,.0C24.1,.3,24.3,.4,24.1,1.0C24.0,1.6,18.3,14.4,18.3,14.4C18.3,14.4,18.3,14.8,17.7,14.9C17.2,15.0,.0,21.4,.0,21.4L14.4,2.0z" fill-rule="nonzero" fill="url(#lg3)" id="shape142" transform="translate(7.008456,3.774435)"/><text style="fill:#191919;font-family:Arial;font-size:9.60pt;font-weight:bold" xml:space="preserve"><tspan x="-6.2" y="42.7">generic</tspan></text></g><g id="group143" transform="translate(389.570032,642.340484)"><path d="M2.3,26.0L2.2,26.4C2.2,26.4,2.0,25.9,2.0,25.4C2.0,24.9,.0,2.9,.0,2.9C.0,2.9,.1,2.0,1.2,1.8C2.2,1.6,8.5,.6,8.9,.6C9.6,.7,9.4,2.5,9.8,2.5C10.2,2.5,25.3,.0,25.3,.0C25.3,.0,25.6,-0.1,25.5,.6C25.5,1.1,2.3,25.9,2.3,26.0z" fill-rule="nonzero" fill="#e7d299" id="shape144" transform="translate(-0.006085,-0.001859)"/><path d="M1.9,26.2L.0,2.8C.0,2.8,-0.2,2.0,1.1,1.8C2.4,1.6,8.2,.6,8.2,.6C8.2,.6,8.8,.2,9.0,1.7C9.0,2.7,9.6,2.6,10.1,2.5C10.6,2.4,24.9,.0,24.9,.0C24.9,.0,25.2,.0,25.2,.7C25.2,1.5,24.3,17.8,24.3,17.8L1.9,26.2z" fill-rule="nonzero" fill="url(#lg1)" id="shape145" transform="translate(0.413696,0.224825)"/><path d="M.0,23.3L.3,4.0L22.5,.0L.0,23.3z" fill-rule="nonzero" fill-opacity="0.55" fill="#ffffff" id="shape146" transform="translate(3.352772,2.457772)"/><path d="M.8,24.2L.0,4.8L23.9,.0L22.7,16.3L.8,24.2z" fill-rule="nonzero" stroke-width="1" fill="#fcfcfc" stroke="#bcbcbc" id="shape147" transform="translate(1.707960,1.448909)"/><path d="M1.8,4.9L.0,23.6C.0,23.6,22.0,16.2,21.9,16.2C21.8,16.1,25.1,.0,25.1,.0L1.8,4.9z" fill-rule="nonzero" stroke-width="1" fill="#fcfcfc" stroke="#a0a0a0" id="shape148" transform="translate(2.625243,1.993598)"/><path d="M3.5,4.6L.0,22.8L21.6,15.0L25.7,.0L3.5,4.6z" fill-rule="nonzero" stroke-width="1" fill="#fcfcfc" stroke="#a0a0a0" id="shape149" transform="translate(3.352694,2.920515)"/><path d="M.2,22.8L.0,22.9L3.1,8.8C3.1,8.8,3.3,7.9,4.1,7.6C4.8,7.4,11.3,6.0,11.3,6.0C11.3,6.0,11.9,5.8,11.9,4.7C12.0,3.5,12.9,3.3,12.9,3.3L28.2,.0L28.6,.2L9.4,8.2L.2,22.8z" fill-rule="nonzero" fill="#e7d299" id="shape150" transform="translate(2.402971,3.557835)"/><path d="M.1,22.2C.1,22.2,.2,22.7,.3,22.6C.6,22.5,3.5,9.4,3.8,8.8C4.0,8.2,4.2,7.9,4.9,7.7C5.7,7.5,11.9,6.1,11.9,6.1C11.9,6.1,12.3,6.1,12.4,5.2C12.6,4.3,12.5,3.6,13.5,3.3C14.5,3.1,28.7,-0.2,28.8,.0C28.9,.2,29.1,.3,29.0,.9C28.8,1.6,23.1,14.4,23.1,14.4C23.1,14.4,23.1,14.9,22.6,14.9C22.1,15.0,.4,23.0,.4,23.0C.4,23.0,-0.2,22.9,.1,22.2z" fill-rule="nonzero" fill="url(#lg2)" id="shape151" transform="translate(2.167436,3.750280)"/><path d="M224.2,342.7L224.2,342.7z" stroke-width="1" fill="none" stroke="#000000" id="shape152" transform="translate(26.500697,3.542608)"/><path d="M14.4,2.0C14.4,2.0,23.9,-0.1,24.0,.0C24.1,.3,24.3,.4,24.1,1.0C24.0,1.6,18.3,14.4,18.3,14.4C18.3,14.4,18.3,14.8,17.7,14.9C17.2,15.0,.0,21.4,.0,21.4L14.4,2.0z" fill-rule="nonzero" fill="url(#lg3)" id="shape153" transform="translate(7.008456,3.774435)"/><text style="fill:#191919;font-family:Arial;font-size:9.60pt;font-weight:bold" xml:space="preserve"><tspan x="-0.6" y="42.7">home</tspan></text></g><g id="group154" transform="translate(423.000000,690.251100)"><path d="M2.3,26.0L2.2,26.4C2.2,26.4,2.0,25.9,2.0,25.4C2.0,24.9,.0,2.9,.0,2.9C.0,2.9,.1,2.0,1.2,1.8C2.2,1.6,8.5,.6,8.9,.6C9.6,.7,9.4,2.5,9.8,2.5C10.2,2.5,25.3,.0,25.3,.0C25.3,.0,25.6,-0.1,25.5,.6C25.5,1.1,2.3,25.9,2.3,26.0z" fill-rule="nonzero" fill="#e7d299" id="shape155" transform="translate(-0.006100,-0.001800)"/><path d="M1.9,26.2L.0,2.8C.0,2.8,-0.2,2.0,1.1,1.8C2.4,1.6,8.2,.6,8.2,.6C8.2,.6,8.8,.2,9.0,1.7C9.0,2.7,9.6,2.6,10.1,2.5C10.6,2.4,24.9,.0,24.9,.0C24.9,.0,25.2,.0,25.2,.7C25.2,1.5,24.3,17.8,24.3,17.8L1.9,26.2z" fill-rule="nonzero" fill="url(#lg1)" id="shape156" transform="translate(0.413700,0.224800)"/><path d="M.0,23.3L.3,4.0L22.5,.0L.0,23.3z" fill-rule="nonzero" fill-opacity="0.55" fill="#ffffff" id="shape157" transform="translate(3.352700,2.457700)"/><path d="M.8,24.2L.0,4.8L23.9,.0L22.7,16.3L.8,24.2z" fill-rule="nonzero" stroke-width="1" fill="#fcfcfc" stroke="#bcbcbc" id="shape158" transform="translate(1.708000,1.448900)"/><path d="M1.8,4.9L.0,23.6C.0,23.6,22.0,16.2,21.9,16.2C21.8,16.1,25.1,.0,25.1,.0L1.8,4.9z" fill-rule="nonzero" stroke-width="1" fill="#fcfcfc" stroke="#a0a0a0" id="shape159" transform="translate(2.625300,1.993600)"/><path d="M3.5,4.6L.0,22.8L21.6,15.0L25.7,.0L3.5,4.6z" fill-rule="nonzero" stroke-width="1" fill="#fcfcfc" stroke="#a0a0a0" id="shape160" transform="translate(3.352700,2.920600)"/><path d="M.2,22.8L.0,22.9L3.1,8.8C3.1,8.8,3.3,7.9,4.1,7.6C4.8,7.4,11.3,6.0,11.3,6.0C11.3,6.0,11.9,5.8,11.9,4.7C12.0,3.5,12.9,3.3,12.9,3.3L28.2,.0L28.6,.2L9.4,8.2L.2,22.8z" fill-rule="nonzero" fill="#e7d299" id="shape161" transform="translate(2.403000,3.557900)"/><path d="M.1,22.2C.1,22.2,.2,22.7,.3,22.6C.6,22.5,3.5,9.4,3.8,8.8C4.0,8.2,4.2,7.9,4.9,7.7C5.7,7.5,11.9,6.1,11.9,6.1C11.9,6.1,12.3,6.1,12.4,5.2C12.6,4.3,12.5,3.6,13.5,3.3C14.5,3.1,28.7,-0.2,28.8,.0C28.9,.2,29.1,.3,29.0,.9C28.8,1.6,23.1,14.4,23.1,14.4C23.1,14.4,23.1,14.9,22.6,14.9C22.1,15.0,.4,23.0,.4,23.0C.4,23.0,-0.2,22.9,.1,22.2z" fill-rule="nonzero" fill="url(#lg2)" id="shape162" transform="translate(2.167500,3.750300)"/><path d="M224.2,342.7L224.2,342.7z" stroke-width="1" fill="none" stroke="#000000" id="shape163" transform="translate(26.500663,3.542605)"/><path d="M14.4,2.0C14.4,2.0,23.9,-0.1,24.0,.0C24.1,.3,24.3,.4,24.1,1.0C24.0,1.6,18.3,14.4,18.3,14.4C18.3,14.4,18.3,14.8,17.7,14.9C17.2,15.0,.0,21.4,.0,21.4L14.4,2.0z" fill-rule="nonzero" fill="url(#lg3)" id="shape164" transform="translate(7.008500,3.774500)"/><text style="fill:#191919;font-family:Arial;font-size:9.60pt;font-weight:bold" xml:space="preserve"><tspan x="-9.8" y="42.7">modules</tspan></text></g><g id="group165" transform="translate(423.000000,748.625550)"><path d="M2.3,26.0L2.2,26.4C2.2,26.4,2.0,25.9,2.0,25.4C2.0,24.9,.0,2.9,.0,2.9C.0,2.9,.1,2.0,1.2,1.8C2.2,1.6,8.5,.6,8.9,.6C9.6,.7,9.4,2.5,9.8,2.5C10.2,2.5,25.3,.0,25.3,.0C25.3,.0,25.6,-0.1,25.5,.6C25.5,1.1,2.3,25.9,2.3,26.0z" fill-rule="nonzero" fill="#e7d299" id="shape166" transform="translate(-0.006100,-0.001800)"/><path d="M1.9,26.2L.0,2.8C.0,2.8,-0.2,2.0,1.1,1.8C2.4,1.6,8.2,.6,8.2,.6C8.2,.6,8.8,.2,9.0,1.7C9.0,2.7,9.6,2.6,10.1,2.5C10.6,2.4,24.9,.0,24.9,.0C24.9,.0,25.2,.0,25.2,.7C25.2,1.5,24.3,17.8,24.3,17.8L1.9,26.2z" fill-rule="nonzero" fill="url(#lg1)" id="shape167" transform="translate(0.413700,0.224800)"/><path d="M.0,23.3L.3,4.0L22.5,.0L.0,23.3z" fill-rule="nonzero" fill-opacity="0.55" fill="#ffffff" id="shape168" transform="translate(3.352700,2.457700)"/><path d="M.8,24.2L.0,4.8L23.9,.0L22.7,16.3L.8,24.2z" fill-rule="nonzero" stroke-width="1" fill="#fcfcfc" stroke="#bcbcbc" id="shape169" transform="translate(1.708000,1.448900)"/><path d="M1.8,4.9L.0,23.6C.0,23.6,22.0,16.2,21.9,16.2C21.8,16.1,25.1,.0,25.1,.0L1.8,4.9z" fill-rule="nonzero" stroke-width="1" fill="#fcfcfc" stroke="#a0a0a0" id="shape170" transform="translate(2.625300,1.993600)"/><path d="M3.5,4.6L.0,22.8L21.6,15.0L25.7,.0L3.5,4.6z" fill-rule="nonzero" stroke-width="1" fill="#fcfcfc" stroke="#a0a0a0" id="shape171" transform="translate(3.352700,2.920600)"/><path d="M.2,22.8L.0,22.9L3.1,8.8C3.1,8.8,3.3,7.9,4.1,7.6C4.8,7.4,11.3,6.0,11.3,6.0C11.3,6.0,11.9,5.8,11.9,4.7C12.0,3.5,12.9,3.3,12.9,3.3L28.2,.0L28.6,.2L9.4,8.2L.2,22.8z" fill-rule="nonzero" fill="#e7d299" id="shape172" transform="translate(2.403000,3.557900)"/><path d="M.1,22.2C.1,22.2,.2,22.7,.3,22.6C.6,22.5,3.5,9.4,3.8,8.8C4.0,8.2,4.2,7.9,4.9,7.7C5.7,7.5,11.9,6.1,11.9,6.1C11.9,6.1,12.3,6.1,12.4,5.2C12.6,4.3,12.5,3.6,13.5,3.3C14.5,3.1,28.7,-0.2,28.8,.0C28.9,.2,29.1,.3,29.0,.9C28.8,1.6,23.1,14.4,23.1,14.4C23.1,14.4,23.1,14.9,22.6,14.9C22.1,15.0,.4,23.0,.4,23.0C.4,23.0,-0.2,22.9,.1,22.2z" fill-rule="nonzero" fill="url(#lg2)" id="shape173" transform="translate(2.167500,3.750300)"/><path d="M224.2,342.7L224.2,342.7z" stroke-width="1" fill="none" stroke="#000000" id="shape174" transform="translate(26.500663,3.542605)"/><path d="M14.4,2.0C14.4,2.0,23.9,-0.1,24.0,.0C24.1,.3,24.3,.4,24.1,1.0C24.0,1.6,18.3,14.4,18.3,14.4C18.3,14.4,18.3,14.8,17.7,14.9C17.2,15.0,.0,21.4,.0,21.4L14.4,2.0z" fill-rule="nonzero" fill="url(#lg3)" id="shape175" transform="translate(7.008500,3.774500)"/><text style="fill:#191919;font-family:Arial;font-size:9.60pt;font-weight:bold" xml:space="preserve"><tspan x="-5.8" y="42.7">partials</tspan></text></g><g id="group176" transform="translate(309.809008,794.778383)"><path d="M2.3,26.0L2.2,26.4C2.2,26.4,2.0,25.9,2.0,25.4C2.0,24.9,.0,2.9,.0,2.9C.0,2.9,.1,2.0,1.2,1.8C2.2,1.6,8.5,.6,8.9,.6C9.6,.7,9.4,2.5,9.8,2.5C10.2,2.5,25.3,.0,25.3,.0C25.3,.0,25.6,-0.1,25.5,.6C25.5,1.1,2.3,25.9,2.3,26.0z" fill-rule="nonzero" fill="#e7d299" id="shape177" transform="translate(-0.006100,-0.001800)"/><path d="M1.9,26.2L.0,2.8C.0,2.8,-0.2,2.0,1.1,1.8C2.4,1.6,8.2,.6,8.2,.6C8.2,.6,8.8,.2,9.0,1.7C9.0,2.7,9.6,2.6,10.1,2.5C10.6,2.4,24.9,.0,24.9,.0C24.9,.0,25.2,.0,25.2,.7C25.2,1.5,24.3,17.8,24.3,17.8L1.9,26.2z" fill-rule="nonzero" fill="url(#lg1)" id="shape178" transform="translate(0.413700,0.224800)"/><path d="M.0,23.3L.3,4.0L22.5,.0L.0,23.3z" fill-rule="nonzero" fill-opacity="0.55" fill="#ffffff" id="shape179" transform="translate(3.352700,2.457700)"/><path d="M.8,24.2L.0,4.8L23.9,.0L22.7,16.3L.8,24.2z" fill-rule="nonzero" stroke-width="1" fill="#fcfcfc" stroke="#bcbcbc" id="shape180" transform="translate(1.708000,1.448900)"/><path d="M1.8,4.9L.0,23.6C.0,23.6,22.0,16.2,21.9,16.2C21.8,16.1,25.1,.0,25.1,.0L1.8,4.9z" fill-rule="nonzero" stroke-width="1" fill="#fcfcfc" stroke="#a0a0a0" id="shape181" transform="translate(2.625300,1.993600)"/><path d="M3.5,4.6L.0,22.8L21.6,15.0L25.7,.0L3.5,4.6z" fill-rule="nonzero" stroke-width="1" fill="#fcfcfc" stroke="#a0a0a0" id="shape182" transform="translate(3.352700,2.920600)"/><path d="M.2,22.8L.0,22.9L3.1,8.8C3.1,8.8,3.3,7.9,4.1,7.6C4.8,7.4,11.3,6.0,11.3,6.0C11.3,6.0,11.9,5.8,11.9,4.7C12.0,3.5,12.9,3.3,12.9,3.3L28.2,.0L28.6,.2L9.4,8.2L.2,22.8z" fill-rule="nonzero" fill="#e7d299" id="shape183" transform="translate(2.403000,3.557900)"/><path d="M.1,22.2C.1,22.2,.2,22.7,.3,22.6C.6,22.5,3.5,9.4,3.8,8.8C4.0,8.2,4.2,7.9,4.9,7.7C5.7,7.5,11.9,6.1,11.9,6.1C11.9,6.1,12.3,6.1,12.4,5.2C12.6,4.3,12.5,3.6,13.5,3.3C14.5,3.1,28.7,-0.2,28.8,.0C28.9,.2,29.1,.3,29.0,.9C28.8,1.6,23.1,14.4,23.1,14.4C23.1,14.4,23.1,14.9,22.6,14.9C22.1,15.0,.4,23.0,.4,23.0C.4,23.0,-0.2,22.9,.1,22.2z" fill-rule="nonzero" fill="url(#lg2)" id="shape184" transform="translate(2.167500,3.750300)"/><path d="M224.2,342.7L224.2,342.7z" stroke-width="1" fill="none" stroke="#000000" id="shape185" transform="translate(26.500663,3.542605)"/><path d="M14.4,2.0C14.4,2.0,23.9,-0.1,24.0,.0C24.1,.3,24.3,.4,24.1,1.0C24.0,1.6,18.3,14.4,18.3,14.4C18.3,14.4,18.3,14.8,17.7,14.9C17.2,15.0,.0,21.4,.0,21.4L14.4,2.0z" fill-rule="nonzero" fill="url(#lg3)" id="shape186" transform="translate(7.008500,3.774500)"/><text style="fill:#191919;font-family:Arial;font-size:9.60pt;font-weight:bold" xml:space="preserve"><tspan x="-1.4" y="42.7">styles</tspan></text></g><g id="shape187" transform="translate(278.676753,74.692209)"><path d="M.0,.0L-28.0,.0L-28.0,733.0L25.0,733.0" stroke-width="1" fill="none" stroke="#191919"/><path d="M25.0,730.0L31.0,733.0L25.0,736.0L25.0,730.0" stroke-width="1" fill="#191919" stroke="#191919" stroke-linecap="round"/></g><g id="shape188" transform="translate(389.570032,655.714949)"><path d="M.0,.0L-28.0,.0L-28.0,48.0L28.0,48.0" stroke-width="1" fill="none" stroke="#191919"/><path d="M28.0,45.0L34.0,48.0L28.0,51.0L28.0,45.0" stroke-width="1" fill="#191919" stroke="#191919" stroke-linecap="round"/></g><g id="shape189" transform="translate(389.570032,655.714949)"><path d="M.0,.0L-28.0,.0L-28.0,106.0L28.0,106.0" stroke-width="1" fill="none" stroke="#191919"/><path d="M28.0,103.0L34.0,106.0L28.0,109.0L28.0,103.0" stroke-width="1" fill="#191919" stroke="#191919" stroke-linecap="round"/></g><g id="shape190" transform="translate(343.000000,167.000000)"><path d="M.0,.0L-28.0,.0L-28.0,45.0L26.0,45.0" stroke-width="1" fill="none" stroke="#191919"/><path d="M26.0,42.0L32.0,45.0L26.0,48.0L26.0,42.0" stroke-width="1" fill="#191919" stroke="#191919" stroke-linecap="round"/></g><g id="shape191" transform="translate(343.437306,167.010748)"><path d="M.0,.0L-28.0,.0L-28.0,95.0L26.0,95.0" stroke-width="1" fill="none" stroke="#191919"/><path d="M26.0,92.0L32.0,95.0L26.0,98.0L26.0,92.0" stroke-width="1" fill="#191919" stroke="#191919" stroke-linecap="round"/></g><g id="shape192" transform="translate(340.000000,549.625535)"><path d="M.0,.0L-29.0,.0L-29.0,53.0L43.0,53.0" stroke-width="1" fill="none" stroke="#191919"/><path d="M43.0,50.0L49.0,53.0L43.0,56.0L43.0,50.0" stroke-width="1" fill="#191919" stroke="#191919" stroke-linecap="round"/></g><g id="shape193" transform="translate(340.000000,549.625535)"><path d="M.0,.0L-29.0,.0L-29.0,106.0L43.0,106.0" stroke-width="1" fill="none" stroke="#191919"/><path d="M43.0,103.0L49.0,106.0L43.0,109.0L43.0,103.0" stroke-width="1" fill="#191919" stroke="#191919" stroke-linecap="round"/></g><g id="shape194" transform="translate(375.880739,153.636286)"><text style="fill:#a66834;font-family:Arial;font-size:10.00pt;font-weight:bold" xml:space="preserve"><tspan x="20.1" y="17.4">Tipagem de componentes e dados utilizados na página home</tspan></text></g><g id="shape195" transform="translate(413.133000,199.295653)"><text style="fill:#a66834;font-family:Arial;font-size:10.00pt;font-weight:bold" xml:space="preserve"><tspan x="10.6" y="17.4">Tipagem de dados utilizados em lógica</tspan></text></g><g id="shape196" transform="translate(413.133000,246.469263)"><text style="fill:#a66834;font-family:Arial;font-size:10.00pt;font-weight:bold" xml:space="preserve"><tspan x="15.2" y="20.2">Tipagem utilizada em componentes gráficos</tspan></text></g><g id="shape197" transform="translate(343.437306,293.303650)"><text style="fill:#a66834;font-family:Arial;font-size:10.00pt;font-weight:bold" xml:space="preserve"><tspan x="10.4" y="20.2">Páginas para exibição</tspan></text></g><g id="shape198" transform="translate(347.925827,341.778383)"><text style="fill:#a66834;font-family:Arial;font-size:10.00pt;font-weight:bold" xml:space="preserve"><tspan x="17.0" y="17.5">Reducers utilizados na manipulação de dados de páginas</tspan></text></g><g id="shape199" transform="translate(352.718653,387.796073)"><text style="fill:#a66834;font-family:Arial;font-size:10.00pt;font-weight:bold" xml:space="preserve"><tspan x="5.5" y="20.0"> Rotas de acesso às páginas</tspan></text></g><g id="shape200" transform="translate(359.000000,438.783740)"><text style="fill:#a66834;font-family:Arial;font-size:10.00pt;font-weight:bold" xml:space="preserve"><tspan x="7.6" y="17.4">Elementos visuais utilizados nas páginas</tspan></text></g><g id="shape201" transform="translate(389.570032,492.301430)"><text style="fill:#a66834;font-family:Arial;font-size:10.00pt;font-weight:bold" xml:space="preserve"><tspan x="7.6" y="17.4">Imagens utilizada em componentes</tspan></text></g><g id="shape202" transform="translate(389.570032,545.819089)"><text style="fill:#a66834;font-family:Arial;font-size:10.00pt;font-weight:bold" xml:space="preserve"><tspan x="13.2" y="17.4">Componentes utilizados no desenvolvimento de páginas</tspan></text></g><g id="shape203" transform="translate(435.000000,579.125565)"><text style="fill:#a66834;font-family:Arial;font-size:10.00pt;font-weight:bold" xml:space="preserve"><tspan x="3.2" y="19.9">Componente de uso geral utilizado no positionamento </tspan><tspan x="3.2" y="35.9">de itens em componentes de maior complexidade</tspan></text></g><g id="shape204" transform="translate(445.000000,642.340484)"><text style="fill:#a66834;font-family:Arial;font-size:10.00pt;font-weight:bold" xml:space="preserve"><tspan x="3.2" y="17.4">Componentes da página home</tspan></text></g><g id="shape205" transform="translate(472.000000,682.251100)"><text style="fill:#a66834;font-family:Arial;font-size:10.00pt;font-weight:bold" xml:space="preserve"><tspan x="3.2" y="28.0">Componentes de maior complexidade que são utilizados </tspan><tspan x="3.2" y="44.0">para a criação de componentes finais da página home</tspan></text></g><g id="shape206" transform="translate(472.000000,748.661685)"><text style="fill:#a66834;font-family:Arial;font-size:10.00pt;font-weight:bold" xml:space="preserve"><tspan x="3.2" y="19.9">Componentes utilizados no desenvolvimento dos </tspan><tspan x="3.2" y="35.9">componentes módulo</tspan></text></g><g id="shape207" transform="translate(354.000000,804.251100)"><text style="fill:#a66834;font-family:Arial;font-size:10.00pt;font-weight:bold" xml:space="preserve"><tspan x="3.2" y="17.4">Estilos de formatação de cores e fontes</tspan></text></g></g></svg>