<svg xmlns="http://www.w3.org/2000/svg" width="20" height="20" viewBox="0 0 20 20">
    <defs>
        <style>
            .prefix__cls-1{fill:#d65923}
        </style>
    </defs>
    <g id="prefix__Agrupar_3" data-name="Agrupar 3" transform="translate(-906.5 -462.5)">
        <g id="prefix__cancel" transform="translate(907.75 463.75)">
            <path id="prefix__Caminho_10" d="M14.575 13.992L8.658 8.075a.412.412 0 00-.583.583l5.917 5.917a.412.412 0 10.583-.583zm-.583-5.917l-5.917 5.917a.412.412 0 00.583.583l5.917-5.917a.412.412 0 00-.583-.583z" class="prefix__cls-1" data-name="Caminho 10" transform="translate(-2.492 -2.658)"/>
            <path id="prefix__Caminho_11" d="M4.317 16.183l.333-.333a7.826 7.826 0 01-2.333-5.583A7.689 7.689 0 014.65 4.683a7.689 7.689 0 015.583-2.333 7.689 7.689 0 015.583 2.333 7.826 7.826 0 012.333 5.583 7.689 7.689 0 01-2.333 5.583 7.826 7.826 0 01-5.583 2.333A7.689 7.689 0 014.65 15.85l-.333.333-.333.333A8.783 8.783 0 0010.15 19.1a8.443 8.443 0 006.167-2.583A8.783 8.783 0 0018.9 10.35a8.443 8.443 0 00-2.583-6.167A8.783 8.783 0 0010.15 1.6a8.443 8.443 0 00-6.167 2.583A8.783 8.783 0 001.4 10.35a8.443 8.443 0 002.583 6.167z" class="prefix__cls-1" data-name="Caminho 11" transform="translate(-1.4 -1.6)"/>
        </g>
        <path id="prefix__Retângulo_5" d="M0 0H20V20H0z" data-name="Retângulo 5" transform="translate(906.5 462.5)" style="fill:none"/>
    </g>
</svg>
