<?xml version="1.0" encoding="UTF-8" standalone="no"?>
<svg
   width="103"
   height="45"
   viewBox="0 0 103 45"
   version="1.1"
   id="svg2"
   sodipodi:docname="bx-logo.svg"
   inkscape:version="1.3.2 (091e20e, 2023-11-25, custom)"
   inkscape:export-filename="bx-logo.svg"
   inkscape:export-xdpi="96"
   inkscape:export-ydpi="96"
   xmlns:inkscape="http://www.inkscape.org/namespaces/inkscape"
   xmlns:sodipodi="http://sodipodi.sourceforge.net/DTD/sodipodi-0.dtd"
   xmlns="http://www.w3.org/2000/svg"
   xmlns:svg="http://www.w3.org/2000/svg">
  <sodipodi:namedview
     id="namedview2"
     pagecolor="#505050"
     bordercolor="#ffffff"
     borderopacity="1"
     inkscape:showpageshadow="0"
     inkscape:pageopacity="0"
     inkscape:pagecheckerboard="1"
     inkscape:deskcolor="#505050"
     inkscape:zoom="5.6601942"
     inkscape:cx="51.676672"
     inkscape:cy="22.525729"
     inkscape:window-width="1536"
     inkscape:window-height="793"
     inkscape:window-x="1912"
     inkscape:window-y="43"
     inkscape:window-maximized="1"
     inkscape:current-layer="bx-logo" />
  <defs
     id="defs1">
    <style
       id="style1">
            .cls-1{fill:#71bb00;font-size:24px;font-family:SFProDisplay-Black,SF Pro Display;font-weight:800}.cls-2{fill:#707070;font-size:12px;font-family:SFProDisplay-Light,SF Pro Display;font-weight:300;letter-spacing:.024em}
        </style>
  </defs>
  <g
     id="bx-logo"
     transform="translate(-615 -31)">
    <path
       style="font-weight:900;font-size:24px;font-family:'SF Pro Display';-inkscape-font-specification:'SF Pro Display Heavy';fill:#71bb00"
       d="m 95.660156,-4.0664062 h -0.09375 L 93.785156,0 h -4.933594 l 3.726563,-6.421875 -3.738281,-6.515625 h 5.4375 l 1.582031,3.9257812 h 0.09375 L 97.523437,-12.9375 h 5.167973 L 98.953125,-6.515625 102.69141,0 h -5.179691 z"
       transform="translate(615,54)"
       id="path19" />
    <path
       style="font-weight:900;font-size:24px;font-family:'SF Pro Display';-inkscape-font-specification:'SF Pro Display Heavy';fill:#71bb00"
       d="m 81.703125,0.328125 q -3.1875,0 -4.992188,-1.7695312 -1.804687,-1.7812501 -1.804687,-5.0390625 0,-3.1757813 1.828125,-4.9804693 1.839844,-1.804687 4.96875,-1.804687 3.152344,0 4.980469,1.804687 1.828125,1.7929692 1.828125,4.9804693 0,3.2578124 -1.804688,5.0390625 -1.804687,1.7695312 -5.003906,1.7695312 z m 0,-3.4335938 q 0.902344,0 1.417969,-0.8789062 0.515625,-0.8789062 0.515625,-2.484375 0,-1.5703125 -0.527344,-2.4609375 -0.515625,-0.9023438 -1.40625,-0.9023438 -0.890625,0 -1.40625,0.9023438 -0.515625,0.890625 -0.515625,2.4609375 0,1.6171875 0.503906,2.4960937 0.503906,0.8671875 1.417969,0.8671875 z"
       transform="translate(615,54)"
       id="path18" />
    <path
       style="font-weight:900;font-size:24px;font-family:'SF Pro Display';-inkscape-font-specification:'SF Pro Display Heavy';fill:#71bb00"
       d="m 68.742187,0.1875 q -1.417968,0 -2.4375,-0.6328125 -1.007812,-0.6445312 -1.464843,-1.7929688 h -0.09375 V 0 h -4.804688 v -16.910156 h 4.804688 v 6.304687 h 0.09375 q 0.457031,-1.195312 1.453125,-1.851562 1.007812,-0.667969 2.390625,-0.667969 2.449218,0 3.761718,1.722656 1.3125,1.7226565 1.3125,4.933594 0,3.1992187 -1.300781,4.9335938 Q 71.15625,0.1875 68.742187,0.1875 Z m -0.46875,-8.8007813 q -0.550781,-0.8085937 -1.488281,-0.8085937 -0.9375,0 -1.5,0.8085937 -0.550781,0.7968751 -0.5625,2.1562501 0.01172,1.3710937 0.5625,2.15625 0.550781,0.7851562 1.5,0.7851562 0.9375,0 1.488281,-0.796875 0.5625,-0.796875 0.5625,-2.15625 0,-1.3476562 -0.5625,-2.1445313 z"
       transform="translate(615,54)"
       id="path17" />
    <path
       style="font-weight:900;font-size:24px;font-family:'SF Pro Display';-inkscape-font-specification:'SF Pro Display Heavy';fill:#71bb00"
       d="m 49.300781,0.1875 q -2.390625,0 -3.714844,-1.7578125 -1.324218,-1.7695313 -1.324218,-4.9335937 0,-3.1171876 1.347656,-4.8632818 1.359375,-1.757812 3.773437,-1.757812 1.382813,0 2.390625,0.703125 1.019532,0.691406 1.40625,1.816406 h 0.09375 v -6.304687 h 4.804688 V 0 h -4.804688 v -2.2382813 h -0.09375 q -0.339843,1.0429688 -1.40625,1.73437505 Q 50.71875,0.1875 49.300781,0.1875 Z m 3.445313,-8.8242188 q -0.550782,-0.7851562 -1.511719,-0.7851562 -0.960938,0 -1.511719,0.796875 -0.539062,0.7851563 -0.539062,2.15625 0,1.3945313 0.539062,2.1796875 0.539063,0.7734375 1.511719,0.7734375 0.972656,0 1.511719,-0.7734375 0.550781,-0.7734375 0.550781,-2.1679687 0,-1.3945313 -0.550781,-2.1796876 z"
       transform="translate(615,54)"
       id="path16" />
    <path
       style="font-weight:900;font-size:24px;font-family:'SF Pro Display';-inkscape-font-specification:'SF Pro Display Heavy';fill:#71bb00"
       d="m 37.921875,0 v -16.910156 h 4.804687 V 0 Z"
       transform="translate(615,54)"
       id="path15" />
    <path
       style="font-weight:900;font-size:24px;font-family:'SF Pro Display';-inkscape-font-specification:'SF Pro Display Heavy';fill:#71bb00"
       d="m 35.355469,-14.296875 q -0.679688,0.644531 -1.699219,0.644531 -1.019531,0 -1.710938,-0.644531 -0.679687,-0.65625 -0.679687,-1.628906 0,-0.972656 0.679687,-1.617188 0.691407,-0.65625 1.710938,-0.65625 1.019531,0 1.699219,0.65625 0.691406,0.644532 0.691406,1.617188 0,0.972656 -0.691406,1.628906 z"
       transform="translate(615,54)"
       id="path14" />
    <path
       style="font-weight:900;font-size:24px;font-family:'SF Pro Display';-inkscape-font-specification:'SF Pro Display Heavy';fill:#71bb00"
       d="m 31.253906,0 v -12.9375 h 4.804688 V 0 Z"
       transform="translate(615,54)"
       id="path13" />
    <path
       style="font-weight:900;font-size:24px;font-family:'SF Pro Display';-inkscape-font-specification:'SF Pro Display Heavy';fill:#71bb00"
       d="M 29.449219,-12.9375 V 0 h -4.6875 v -2.5429688 h -0.09375 q -0.398438,1.3476563 -1.324219,2.0742188 -0.914063,0.7265625 -2.332031,0.7265625 -2.132813,0 -3.480469,-1.3125 -1.335938,-1.3242188 -1.335938,-3.5859375 V -12.9375 H 21 v 7.21875 q 0,1.0078125 0.503906,1.5585938 0.503906,0.5390624 1.359375,0.5390624 0.808594,0 1.289063,-0.5742187 0.492187,-0.5742187 0.492187,-1.5117187 V -12.9375 Z"
       transform="translate(615,54)"
       id="path12" />
    <path
       style="font-weight:900;font-size:24px;font-family:'SF Pro Display';-inkscape-font-specification:'SF Pro Display Heavy';fill:#71bb00"
       d="M 9.7617188,0.1875 Q 8.34375,0.1875 7.3242187,-0.4453125 6.3164062,-1.0898437 5.859375,-2.2382813 H 5.765625 V 0 H 0.9609375 V -16.910156 H 5.765625 v 6.304687 h 0.09375 Q 6.3164062,-11.800781 7.3125,-12.457031 8.3203125,-13.125 9.703125,-13.125 q 2.449219,0 3.761719,1.722656 1.3125,1.7226565 1.3125,4.933594 0,3.1992187 -1.300781,4.9335938 Q 12.175781,0.1875 9.7617188,0.1875 Z m -0.46875,-8.8007813 Q 8.7421875,-9.421875 7.8046875,-9.421875 q -0.9375,0 -1.5,0.8085937 -0.5507813,0.7968751 -0.5625,2.1562501 0.011719,1.3710937 0.5625,2.15625 0.5507812,0.7851562 1.5,0.7851562 0.9375,0 1.4882813,-0.796875 0.5625,-0.796875 0.5625,-2.15625 0,-1.3476562 -0.5625,-2.1445313 z"
       transform="translate(615,54)"
       id="buildbox" />
    <path
       style="font-weight:300;font-size:12px;font-family:'SF Pro Display';-inkscape-font-specification:'SF Pro Display Light';letter-spacing:0.024em;fill:#707070"
       d="m 94.96772,-0.7265625 h -4.306641 v -3.2460938 h 4.089844 V -4.6875 H 90.661079 V -7.7285156 H 94.96772 V -8.4550781 H 89.864204 V 0 h 5.103516 z"
       transform="translate(615,73)"
       id="path11" />
    <path
       style="font-weight:300;font-size:12px;font-family:'SF Pro Display';-inkscape-font-specification:'SF Pro Display Light';letter-spacing:0.024em;fill:#707070"
       d="m 88.28714,-3.4335938 v -0.8144531 h -3.421875 v 0.703125 h 2.625 v 0.2988281 c 0,1.5937501 -1.078125,2.6367188 -2.712891,2.6367188 -1.810547,0 -2.976562,-1.4355469 -2.976562,-3.6679687 0,-2.203125 1.142578,-3.5683594 2.976562,-3.5683594 1.289063,0 2.279297,0.7265625 2.625,1.9335937 h 0.832032 c -0.316407,-1.6171875 -1.681641,-2.6777344 -3.457032,-2.6777344 -2.308593,0 -3.796875,1.6933594 -3.796875,4.3125001 0,2.6660156 1.50586,4.41210932 3.796875,4.41210932 2.197266,0 3.509766,-1.33593752 3.509766,-3.56835942 z"
       transform="translate(615,73)"
       id="path10" />
    <path
       style="font-weight:300;font-size:12px;font-family:'SF Pro Display';-inkscape-font-specification:'SF Pro Display Light';letter-spacing:0.024em;fill:#707070"
       d="m 73.661247,0 v -7.0664062 h 0.04102 L 78.676872,0 h 0.773438 v -8.4550781 h -0.791016 v 7.0605469 h -0.04102 L 73.661247,-8.4550781 H 72.870232 V 0 Z"
       transform="translate(615,73)"
       id="path9" />
    <path
       style="font-weight:300;font-size:12px;font-family:'SF Pro Display';-inkscape-font-specification:'SF Pro Display Light';letter-spacing:0.024em;fill:#707070"
       d="m 71.217003,-0.7265625 h -4.306641 v -3.2460938 h 4.089844 V -4.6875 h -4.089844 v -3.0410156 h 4.306641 V -8.4550781 H 66.113487 V 0 h 5.103516 z"
       transform="translate(615,73)"
       id="path8" />
    <path
       style="font-weight:300;font-size:12px;font-family:'SF Pro Display';-inkscape-font-specification:'SF Pro Display Light';letter-spacing:0.024em;fill:#707070"
       d="M 64.694626,-0.7265625 H 60.458298 V -8.4550781 H 59.661423 V 0 h 5.033203 z"
       transform="translate(615,73)"
       id="path7" />
    <path
       style="font-weight:300;font-size:12px;font-family:'SF Pro Display';-inkscape-font-specification:'SF Pro Display Light';letter-spacing:0.024em;fill:#707070"
       d="M 58.242561,-0.7265625 H 54.006233 V -8.4550781 H 53.209358 V 0 h 5.033203 z"
       transform="translate(615,73)"
       id="path6" />
    <path
       style="font-weight:300;font-size:12px;font-family:'SF Pro Display';-inkscape-font-specification:'SF Pro Display Light';letter-spacing:0.024em;fill:#707070"
       d="m 51.145969,0 h 0.84375 L 48.831516,-8.4550781 H 48.034641 L 44.870579,0 h 0.849609 l 0.9375,-2.5898438 h 3.550781 z m -2.730468,-7.4648437 h 0.03516 l 1.517578,4.1835937 h -3.070312 z"
       transform="translate(615,73)"
       id="path5" />
    <path
       style="font-weight:300;font-size:12px;font-family:'SF Pro Display';-inkscape-font-specification:'SF Pro Display Light';letter-spacing:0.024em;fill:#707070"
       d="m 43.656796,0 v -8.4550781 h -0.802735 v 3.7617187 H 37.908749 V -8.4550781 H 37.111874 V 0 h 0.796875 v -3.9667969 h 4.945312 V 0 Z"
       transform="translate(615,73)"
       id="path4" />
    <path
       style="font-weight:300;font-size:12px;font-family:'SF Pro Display';-inkscape-font-specification:'SF Pro Display Light';letter-spacing:0.024em;fill:#707070"
       d="m 32.218407,0.13476562 c 1.833984,0 3.128906,-0.99023437 3.427734,-2.63671872 h -0.802734 c -0.251953,1.171875 -1.271485,1.8925781 -2.619141,1.8925781 -1.798828,0 -2.953125,-1.4121094 -2.953125,-3.6386719 0,-2.1972656 1.154297,-3.5976562 2.947266,-3.5976562 1.3125,0 2.390625,0.8554687 2.625,2.0742187 h 0.802734 c -0.228516,-1.6523437 -1.640625,-2.8183594 -3.427734,-2.8183594 -2.296875,0 -3.767578,1.6933594 -3.767578,4.3417969 0,2.6777344 1.464843,4.38281252 3.767578,4.38281252 z"
       transform="translate(615,73)"
       id="path3" />
    <path
       style="font-weight:300;font-size:12px;font-family:'SF Pro Display';-inkscape-font-specification:'SF Pro Display Light';letter-spacing:0.024em;fill:#707070"
       d="m 21.757641,0 c 1.787109,0 2.859375,-0.87890625 2.859375,-2.3203125 0,-1.171875 -0.814453,-1.9628906 -1.986328,-2.1035156 v -0.041016 c 0.902343,-0.1640625 1.546875,-0.9667969 1.546875,-1.9042969 0,-1.2480469 -0.984375,-2.0859375 -2.4375,-2.0859375 H 18.699047 V 0 Z m -2.261719,-7.7460937 h 2.074219 c 1.125,0 1.798828,0.5449218 1.798828,1.4648437 0,0.9960938 -0.75,1.5820313 -2.033203,1.5820313 h -1.839844 z m 0,7.03710933 V -4.0078125 h 2.044922 c 1.458984,0 2.255859,0.5917969 2.255859,1.6464844 0,1.0488281 -0.767578,1.65234373 -2.15039,1.65234373 z"
       transform="translate(615,73)"
       id="path2" />
    <path
       style="font-weight:300;font-size:12px;font-family:'SF Pro Display';-inkscape-font-specification:'SF Pro Display Light';letter-spacing:0.024em;fill:#707070"
       d="m 17.045813,-0.7265625 h -4.306641 v -3.2460938 h 4.089844 V -4.6875 h -4.089844 v -3.0410156 h 4.306641 V -8.4550781 H 11.942297 V 0 h 5.103516 z"
       transform="translate(615,73)"
       id="path1" />
    <path
       style="font-weight:300;font-size:12px;font-family:'SF Pro Display';-inkscape-font-specification:'SF Pro Display Light';letter-spacing:0.024em;fill:#707070"
       d="m 5.4082031,-7.0839844 h 0.046875 L 7.5351562,0 H 8.2734375 L 10.605469,-8.4550781 H 9.7675781 L 7.9101562,-1.2304687 H 7.8691406 L 5.8300781,-8.4550781 H 5.0332031 L 2.9882813,-1.2304687 H 2.953125 L 1.0898437,-8.4550781 H 0.2578125 L 2.5839844,0 H 3.328125 Z"
       transform="translate(615,73)"
       id="WEB_CHALLENGE" />
  </g>
</svg>
