<svg width="512" height="384" viewBox="0 0 512 384" fill="none" xmlns="http://www.w3.org/2000/svg">
<path d="M464 384H48C21.49 384 0 362.51 0 336V48C0 21.49 21.49 0 48 0H464C490.51 0 512 21.49 512 48V336C512 362.51 490.51 384 464 384ZM112 56C81.072 56 56 81.072 56 112C56 142.928 81.072 168 112 168C142.928 168 168 142.928 168 112C168 81.072 142.928 56 112 56ZM64 320H448V208L360.485 120.485C355.799 115.799 348.201 115.799 343.514 120.485L208 256L152.485 200.485C147.799 195.799 140.201 195.799 135.514 200.485L64 272V320Z" fill="#494949"/>
</svg>
