<svg width="248" height="248" viewBox="0 0 248 248" fill="none" xmlns="http://www.w3.org/2000/svg">
<path d="M124 0C55.5 0 0 55.5 0 124C0 192.5 55.5 248 124 248C192.5 248 248 192.5 248 124C248 55.5 192.5 0 124 0ZM124 224C68.75 224 24 179.25 24 124C24 68.75 68.75 24 124 24C179.25 24 224 68.75 224 124C224 179.25 179.25 224 124 224ZM174.9 92.9L143.8 124L174.9 155.1C177.25 157.45 177.25 161.25 174.9 163.6L163.6 174.9C161.25 177.25 157.45 177.25 155.1 174.9L124 143.8L92.9 174.9C90.55 177.25 86.75 177.25 84.4 174.9L73.1 163.6C70.75 161.25 70.75 157.45 73.1 155.1L104.2 124L73.1 92.9C70.75 90.55 70.75 86.75 73.1 84.4L84.4 73.1C86.75 70.75 90.55 70.75 92.9 73.1L124 104.2L155.1 73.1C157.45 70.75 161.25 70.75 163.6 73.1L174.9 84.4C177.25 86.75 177.25 90.55 174.9 92.9V92.9Z" fill="#EF6529"/>
</svg>
